%TF.GenerationSoftware,KiCad,Pcbnew,9.0.7*%
%TF.CreationDate,2026-03-20T13:48:14-04:00*%
%TF.ProjectId,theboard.v3.7,74686562-6f61-4726-942e-76332e372e6b,3.7*%
%TF.SameCoordinates,Original*%
%TF.FileFunction,Copper,L4,Inr*%
%TF.FilePolarity,Positive*%
%FSLAX46Y46*%
G04 Gerber Fmt 4.6, Leading zero omitted, Abs format (unit mm)*
G04 Created by KiCad (PCBNEW 9.0.7) date 2026-03-20 13:48:14*
%MOMM*%
%LPD*%
G01*
G04 APERTURE LIST*
G04 Aperture macros list*
%AMRoundRect*
0 Rectangle with rounded corners*
0 $1 Rounding radius*
0 $2 $3 $4 $5 $6 $7 $8 $9 X,Y pos of 4 corners*
0 Add a 4 corners polygon primitive as box body*
4,1,4,$2,$3,$4,$5,$6,$7,$8,$9,$2,$3,0*
0 Add four circle primitives for the rounded corners*
1,1,$1+$1,$2,$3*
1,1,$1+$1,$4,$5*
1,1,$1+$1,$6,$7*
1,1,$1+$1,$8,$9*
0 Add four rect primitives between the rounded corners*
20,1,$1+$1,$2,$3,$4,$5,0*
20,1,$1+$1,$4,$5,$6,$7,0*
20,1,$1+$1,$6,$7,$8,$9,0*
20,1,$1+$1,$8,$9,$2,$3,0*%
G04 Aperture macros list end*
%TA.AperFunction,ComponentPad*%
%ADD10O,1.500000X3.000000*%
%TD*%
%TA.AperFunction,ComponentPad*%
%ADD11O,1.700000X3.400000*%
%TD*%
%TA.AperFunction,ComponentPad*%
%ADD12C,0.700000*%
%TD*%
%TA.AperFunction,ComponentPad*%
%ADD13C,4.400000*%
%TD*%
%TA.AperFunction,ComponentPad*%
%ADD14C,5.800000*%
%TD*%
%TA.AperFunction,ComponentPad*%
%ADD15O,1.750000X1.200000*%
%TD*%
%TA.AperFunction,ComponentPad*%
%ADD16RoundRect,0.250000X-0.625000X0.350000X-0.625000X-0.350000X0.625000X-0.350000X0.625000X0.350000X0*%
%TD*%
%TA.AperFunction,ComponentPad*%
%ADD17C,1.700000*%
%TD*%
%TA.AperFunction,ComponentPad*%
%ADD18RoundRect,0.250000X-0.600000X-0.600000X0.600000X-0.600000X0.600000X0.600000X-0.600000X0.600000X0*%
%TD*%
%TA.AperFunction,ComponentPad*%
%ADD19O,1.950000X1.700000*%
%TD*%
%TA.AperFunction,ComponentPad*%
%ADD20RoundRect,0.250000X-0.725000X0.600000X-0.725000X-0.600000X0.725000X-0.600000X0.725000X0.600000X0*%
%TD*%
%TA.AperFunction,ComponentPad*%
%ADD21C,1.520000*%
%TD*%
%TA.AperFunction,ComponentPad*%
%ADD22R,1.520000X1.520000*%
%TD*%
%TA.AperFunction,ComponentPad*%
%ADD23C,0.450000*%
%TD*%
%TA.AperFunction,ComponentPad*%
%ADD24C,1.900000*%
%TD*%
%TA.AperFunction,ComponentPad*%
%ADD25R,1.900000X1.900000*%
%TD*%
%TA.AperFunction,ViaPad*%
%ADD26C,0.600000*%
%TD*%
%TA.AperFunction,Conductor*%
%ADD27C,0.200000*%
%TD*%
G04 APERTURE END LIST*
D10*
%TO.N,GND*%
%TO.C,J10*%
X71250000Y-130337500D03*
D11*
X71250000Y-124377500D03*
D10*
X56750000Y-130337500D03*
D11*
X56750000Y-124377500D03*
%TD*%
D12*
%TO.N,GND*%
%TO.C,H1*%
X16400000Y-14750000D03*
X15916726Y-15916726D03*
X15916726Y-13583274D03*
X14750000Y-16400000D03*
D13*
X14750000Y-14750000D03*
D12*
X14750000Y-13100000D03*
X13583274Y-15916726D03*
X13583274Y-13583274D03*
X13100000Y-14750000D03*
%TD*%
D14*
%TO.N,GND*%
%TO.C,J7*%
X84750000Y-102525000D03*
X84750000Y-82525000D03*
X84750000Y-64525000D03*
X84750000Y-52525000D03*
%TD*%
D12*
%TO.N,GND*%
%TO.C,H2*%
X102483274Y-14666726D03*
X102000000Y-15833452D03*
X102000000Y-13500000D03*
X100833274Y-16316726D03*
D13*
X100833274Y-14666726D03*
D12*
X100833274Y-13016726D03*
X99666548Y-15833452D03*
X99666548Y-13500000D03*
X99183274Y-14666726D03*
%TD*%
D15*
%TO.N,GND*%
%TO.C,J11*%
X16500000Y-92000000D03*
%TO.N,/SW_IN_LED*%
X16500000Y-90000000D03*
%TO.N,/WIFI_LED*%
X16500000Y-88000000D03*
%TO.N,Net-(J11-Pin_5)*%
X16500000Y-86000000D03*
%TO.N,/LED_nPWR*%
X16500000Y-84000000D03*
%TO.N,Net-(J11-Pin_3)*%
X16500000Y-82000000D03*
%TO.N,GND*%
X16500000Y-80000000D03*
D16*
%TO.N,/PWR_IN_LED*%
X16500000Y-78000000D03*
%TD*%
D17*
%TO.N,GND*%
%TO.C,J9*%
X19500000Y-48360000D03*
X16960000Y-48360000D03*
X19500000Y-45820000D03*
X16960000Y-45820000D03*
X19500000Y-43280000D03*
%TO.N,/XVF_INT*%
X16960000Y-43280000D03*
%TO.N,/XVF_BOOT*%
X19500000Y-40740000D03*
%TO.N,/XVF_RST*%
X16960000Y-40740000D03*
%TO.N,/XVF_SCL*%
X19500000Y-38200000D03*
%TO.N,/XVF_SDA*%
X16960000Y-38200000D03*
%TO.N,GND*%
X19500000Y-35660000D03*
X16960000Y-35660000D03*
%TO.N,/I2S_DATA_IN*%
X19500000Y-33120000D03*
%TO.N,/I2S_LRCLK*%
X16960000Y-33120000D03*
%TO.N,/I2S_BCLK*%
X19500000Y-30580000D03*
%TO.N,/I2S_MCLK*%
X16960000Y-30580000D03*
%TO.N,GND*%
X19500000Y-28040000D03*
X16960000Y-28040000D03*
%TO.N,+5V*%
X19500000Y-25500000D03*
D18*
X16960000Y-25500000D03*
%TD*%
D19*
%TO.N,/I2S_MCLK*%
%TO.C,J8*%
X17250000Y-70499999D03*
%TO.N,+5V*%
X17250000Y-67999999D03*
%TO.N,GND*%
X17250000Y-65499999D03*
%TO.N,/I2S_DATA_OUT*%
X17250000Y-62999999D03*
%TO.N,/I2S_BCLK*%
X17250000Y-60499999D03*
D20*
%TO.N,/I2S_LRCLK*%
X17250000Y-57999999D03*
%TD*%
D21*
%TO.N,GND*%
%TO.C,J1*%
X48250000Y-129060000D03*
D22*
%TO.N,Net-(J1-Pin_1)*%
X48250000Y-126060000D03*
%TD*%
D23*
%TO.N,GND*%
%TO.C,U1*%
X43500000Y-92950000D03*
X44350000Y-92060000D03*
X43500000Y-92060000D03*
X42650000Y-92060000D03*
X44350000Y-90900000D03*
X43500000Y-90900000D03*
X42650000Y-90900000D03*
X44350000Y-89740000D03*
X43500000Y-89740000D03*
X42650000Y-89740000D03*
X43500000Y-88850000D03*
%TD*%
D24*
%TO.N,+28V_SW*%
%TO.C,J3*%
X27000000Y-128994250D03*
X22800000Y-128994250D03*
%TO.N,GND*%
X27000000Y-123494250D03*
D25*
X22800000Y-123494250D03*
%TD*%
D12*
%TO.N,GND*%
%TO.C,H3*%
X16483274Y-131166726D03*
X16000000Y-132333452D03*
X16000000Y-130000000D03*
X14833274Y-132816726D03*
D13*
X14833274Y-131166726D03*
D12*
X14833274Y-129516726D03*
X13666548Y-132333452D03*
X13666548Y-130000000D03*
X13183274Y-131166726D03*
%TD*%
%TO.N,GND*%
%TO.C,H4*%
X102233274Y-131166726D03*
X101750000Y-132333452D03*
X101750000Y-130000000D03*
X100583274Y-132816726D03*
D13*
X100583274Y-131166726D03*
D12*
X100583274Y-129516726D03*
X99416548Y-132333452D03*
X99416548Y-130000000D03*
X98933274Y-131166726D03*
%TD*%
D21*
%TO.N,+28V_SW*%
%TO.C,J2*%
X37500000Y-129060000D03*
D22*
%TO.N,+28V*%
X37500000Y-126060000D03*
%TD*%
D26*
%TO.N,GND*%
X68000000Y-125500000D03*
%TO.N,Net-(U1-FB)*%
X45000000Y-95250000D03*
X45000000Y-98750000D03*
%TO.N,Net-(J1-Pin_1)*%
X48250000Y-112500000D03*
%TO.N,Net-(U2-EN)*%
X36750000Y-79250000D03*
X36750000Y-80750000D03*
%TO.N,/SW_IN_LED*%
X18000000Y-90000000D03*
%TO.N,Net-(D4-A)*%
X18500000Y-96425000D03*
X22250000Y-96425000D03*
%TO.N,Net-(U2-FB)*%
X38000000Y-78250000D03*
X43750000Y-78250000D03*
%TO.N,Net-(U1-RT)*%
X40750000Y-93000000D03*
%TO.N,Net-(U1-CBOOT)*%
X40500000Y-86500000D03*
X40500000Y-91061149D03*
%TO.N,/PWR_IN_LED*%
X18000000Y-78000000D03*
%TO.N,+28V_SW*%
X49000000Y-92750000D03*
X30500000Y-98074999D03*
X30500000Y-107500000D03*
%TO.N,/WIFI_LED*%
X12600000Y-88000000D03*
X30500000Y-40285237D03*
X12600000Y-107500000D03*
%TO.N,Net-(D3-A)*%
X22249998Y-109500000D03*
X15750000Y-109500000D03*
%TO.N,+28V*%
X37500000Y-112500000D03*
X37500000Y-118500000D03*
%TO.N,/I2S_DATA_IN*%
X25000000Y-33250000D03*
X25000000Y-40250000D03*
%TO.N,/I2S_DATA_OUT*%
X22250000Y-39500000D03*
X22250000Y-63000000D03*
%TO.N,/I2S_BCLK*%
X29000000Y-34250000D03*
X12750000Y-60500000D03*
X12750000Y-29250000D03*
%TO.N,/I2S_LRCLK*%
X34500000Y-33500000D03*
X14250000Y-58000000D03*
X14250000Y-33120000D03*
X34500000Y-39500000D03*
%TO.N,/XVF_RST*%
X27250000Y-42250000D03*
X30500000Y-42250000D03*
%TO.N,Net-(D2-A)*%
X15750000Y-105250000D03*
X22250000Y-105250000D03*
%TO.N,/XVF_SDA*%
X30500000Y-51000000D03*
X30500000Y-46000000D03*
%TO.N,Net-(J11-Pin_5)*%
X18000000Y-86000000D03*
%TO.N,Net-(J11-Pin_3)*%
X17895190Y-81895190D03*
%TO.N,/XVF_SCL*%
X33750000Y-45750000D03*
X25750000Y-38203230D03*
%TO.N,/LED_nPWR*%
X25000000Y-53500000D03*
X13250000Y-104250000D03*
X20750000Y-75000000D03*
X13250000Y-84000000D03*
%TO.N,Net-(D1-A)*%
X22250000Y-102250000D03*
X15750000Y-102250000D03*
%TO.N,/I2S_MCLK*%
X35250000Y-62500000D03*
X35250000Y-45250000D03*
X35250000Y-32000000D03*
%TO.N,/XVF_BOOT*%
X30500000Y-43750000D03*
X27250000Y-43750000D03*
%TO.N,/XVF_INT*%
X33250000Y-43500000D03*
X27250000Y-44750000D03*
%TO.N,+3.3V*%
X29750000Y-50000000D03*
X29750000Y-37250000D03*
X45500000Y-70000000D03*
X29750000Y-54250000D03*
X26750000Y-111250000D03*
X89250000Y-29000000D03*
X26750000Y-107000000D03*
X79750000Y-29000000D03*
%TO.N,+5V*%
X26250000Y-53000000D03*
X26250000Y-50000000D03*
X39750000Y-103500000D03*
X44250000Y-96000000D03*
X26250000Y-52250000D03*
X60000000Y-121250000D03*
X26250000Y-50700003D03*
X35250000Y-90000000D03*
X26250000Y-49250000D03*
X40750000Y-92250000D03*
X26250000Y-51500000D03*
X37250000Y-83250000D03*
X47369999Y-99170000D03*
%TO.N,GND*%
X63250000Y-40750000D03*
X46750000Y-88250000D03*
X45500000Y-80750000D03*
%TO.N,+5V*%
X46250000Y-99170000D03*
%TO.N,GND*%
X63250000Y-52750000D03*
X27500000Y-40750000D03*
X32449999Y-46300001D03*
X89500000Y-20500000D03*
X64500000Y-40750000D03*
X48250000Y-89000000D03*
X76000000Y-20500000D03*
X64500000Y-48000000D03*
X27500000Y-35900000D03*
X63125000Y-38375000D03*
X93250000Y-31750000D03*
X88000000Y-20500000D03*
X61600001Y-35899999D03*
X46750000Y-89750000D03*
X75500000Y-21000000D03*
X25750000Y-39000000D03*
X64591859Y-43043059D03*
X32375000Y-37125000D03*
X65000000Y-125500000D03*
X64625000Y-35625000D03*
X27500000Y-48700000D03*
X32500000Y-42750000D03*
X27500000Y-34750000D03*
X39750000Y-106250000D03*
X64500000Y-50500000D03*
X48000000Y-92000000D03*
X60500000Y-125500000D03*
X63250000Y-54000000D03*
X80500000Y-20500000D03*
X32500000Y-47500000D03*
X64500000Y-46750000D03*
X82000000Y-20500000D03*
X63144867Y-37099999D03*
X77500000Y-20500000D03*
X33500000Y-80250000D03*
X63250000Y-46750000D03*
X91500000Y-31000000D03*
X46500000Y-93250000D03*
X64500000Y-51500000D03*
X27500000Y-45500000D03*
X15750000Y-97250000D03*
X79000000Y-20500000D03*
X53750000Y-89000000D03*
X46750000Y-89000000D03*
X27500000Y-46300000D03*
X64500000Y-38500000D03*
X63250000Y-39500000D03*
X33250000Y-118500000D03*
X32449999Y-44350000D03*
X32399999Y-35899999D03*
X33750000Y-97750000D03*
X63250000Y-50500000D03*
X64500000Y-54000000D03*
X52000000Y-73250000D03*
X41750000Y-109195000D03*
X43000000Y-102250000D03*
X63250000Y-51500000D03*
X64650001Y-37099999D03*
X64500000Y-52750000D03*
X25750000Y-43000000D03*
X27500000Y-37100000D03*
X32449999Y-40699999D03*
X93500000Y-17500000D03*
X27500000Y-47500000D03*
X32349999Y-49099999D03*
X64500000Y-49250000D03*
X63149999Y-41899999D03*
X33750000Y-100500000D03*
X90000000Y-31000000D03*
X32287664Y-38776234D03*
X66500000Y-125500000D03*
X15750000Y-100750000D03*
X32449999Y-34699999D03*
X86500000Y-20500000D03*
X64500000Y-44000000D03*
X94000000Y-20500000D03*
X49000000Y-82000000D03*
X32399999Y-53899999D03*
X63250000Y-49250000D03*
X85000000Y-20500000D03*
X33750000Y-95000000D03*
X63250000Y-48000000D03*
X64500000Y-39500000D03*
X64600001Y-41899999D03*
X33750000Y-103000000D03*
X64500000Y-45500000D03*
X63500000Y-125500000D03*
X45325001Y-87075001D03*
X63250000Y-45500000D03*
X83500000Y-20500000D03*
X93000000Y-20500000D03*
X37500000Y-97500000D03*
X37500000Y-95750000D03*
X37500000Y-99500000D03*
%TO.N,Net-(U1-RT)*%
X41500000Y-99500000D03*
%TO.N,/PWR_IN_LED*%
X22500000Y-78000000D03*
%TO.N,/SW_IN_LED*%
X22000000Y-90000000D03*
%TO.N,Net-(J11-Pin_5)*%
X22500000Y-86000000D03*
%TO.N,Net-(J11-Pin_3)*%
X22500000Y-82000000D03*
%TO.N,+3.3V*%
X26750000Y-88000000D03*
X26750000Y-83750000D03*
%TO.N,+28V*%
X28750000Y-100500000D03*
%TO.N,+28V_SW*%
X30500000Y-94250000D03*
%TO.N,+28V*%
X28750000Y-79900000D03*
%TD*%
D27*
%TO.N,Net-(U2-EN)*%
X36750000Y-79250000D02*
X36750000Y-80750000D01*
%TO.N,Net-(U2-FB)*%
X43750000Y-78250000D02*
X38000000Y-78250000D01*
%TO.N,Net-(U1-CBOOT)*%
X40500000Y-91061149D02*
X40500000Y-86500000D01*
%TO.N,/WIFI_LED*%
X24000000Y-42250000D02*
X24750000Y-41500000D01*
X12600000Y-75500000D02*
X13850000Y-74250000D01*
X20500000Y-74250000D02*
X24000000Y-70750000D01*
X29285237Y-41500000D02*
X30500000Y-40285237D01*
X24750000Y-41500000D02*
X29285237Y-41500000D01*
X12600000Y-88000000D02*
X12600000Y-107500000D01*
X12600000Y-88000000D02*
X12600000Y-75500000D01*
X24000000Y-70750000D02*
X24000000Y-42250000D01*
X13850000Y-74250000D02*
X20500000Y-74250000D01*
%TO.N,/I2S_DATA_IN*%
X25000000Y-40250000D02*
X25000000Y-33250000D01*
%TO.N,/I2S_DATA_OUT*%
X22250000Y-39500000D02*
X22250000Y-63000000D01*
%TO.N,/I2S_BCLK*%
X25330000Y-30580000D02*
X29000000Y-34250000D01*
X19500000Y-30580000D02*
X25330000Y-30580000D01*
X12750000Y-60500000D02*
X12750000Y-29250000D01*
%TO.N,/I2S_LRCLK*%
X34500000Y-33500000D02*
X34500000Y-39500000D01*
X14250000Y-33120000D02*
X14250000Y-58000000D01*
%TO.N,/XVF_RST*%
X27250000Y-42250000D02*
X30500000Y-42250000D01*
%TO.N,/XVF_SDA*%
X30500000Y-51000000D02*
X30500000Y-46000000D01*
%TO.N,/XVF_SCL*%
X25796770Y-38250000D02*
X33750000Y-38250000D01*
X33750000Y-45750000D02*
X33750000Y-38250000D01*
X25750000Y-38203230D02*
X25796770Y-38250000D01*
%TO.N,/LED_nPWR*%
X13250000Y-104250000D02*
X13250000Y-84000000D01*
%TO.N,/I2S_MCLK*%
X35250000Y-62500000D02*
X35250000Y-45250000D01*
X35250000Y-45250000D02*
X35250000Y-32000000D01*
%TO.N,/XVF_BOOT*%
X27250000Y-43750000D02*
X30500000Y-43750000D01*
%TO.N,/XVF_INT*%
X33250000Y-43500000D02*
X33250000Y-44500000D01*
X27500000Y-45000000D02*
X27250000Y-44750000D01*
X33250000Y-44500000D02*
X32750000Y-45000000D01*
X32750000Y-45000000D02*
X27500000Y-45000000D01*
%TO.N,Net-(U1-RT)*%
X40750000Y-93000000D02*
X40750000Y-94500000D01*
X40750000Y-94500000D02*
X41500000Y-95250000D01*
X41500000Y-95250000D02*
X41500000Y-99500000D01*
%TO.N,Net-(D1-A)*%
X15750000Y-102250000D02*
X22250000Y-102250000D01*
%TO.N,Net-(D2-A)*%
X15750000Y-105250000D02*
X22250000Y-105250000D01*
%TO.N,Net-(D3-A)*%
X22249998Y-109500000D02*
X15750000Y-109500000D01*
%TO.N,/SW_IN_LED*%
X22000000Y-90000000D02*
X18000000Y-90000000D01*
%TO.N,Net-(J11-Pin_5)*%
X22500000Y-86000000D02*
X18000000Y-86000000D01*
%TO.N,/LED_nPWR*%
X25000000Y-53500000D02*
X25000000Y-70750000D01*
X25000000Y-70750000D02*
X20750000Y-75000000D01*
%TO.N,/PWR_IN_LED*%
X22500000Y-78000000D02*
X18000000Y-78000000D01*
%TO.N,Net-(J11-Pin_3)*%
X22500000Y-82000000D02*
X18000000Y-82000000D01*
X18000000Y-82000000D02*
X17895190Y-81895190D01*
%TO.N,Net-(D4-A)*%
X22250000Y-96425000D02*
X18500000Y-96425000D01*
%TD*%
M02*
