M48
; DRILL file {KiCad 9.0.7} date 2026-03-20T13:48:15-0400
; FORMAT={-:-/ absolute / inch / decimal}
; #@! TF.CreationDate,2026-03-20T13:48:15-04:00
; #@! TF.GenerationSoftware,Kicad,Pcbnew,9.0.7
; #@! TF.FileFunction,Plated,1,6,PTH
FMAT,2
INCH
; #@! TA.AperFunction,Plated,PTH,ComponentDrill
T1C0.0079
; #@! TA.AperFunction,Plated,PTH,ViaDrill
T2C0.0118
; #@! TA.AperFunction,Plated,PTH,ComponentDrill
T3C0.0157
; #@! TA.AperFunction,Plated,PTH,ComponentDrill
T4C0.0295
; #@! TA.AperFunction,Plated,PTH,ComponentDrill
T5C0.0354
; #@! TA.AperFunction,Plated,PTH,ComponentDrill
T6C0.0374
; #@! TA.AperFunction,Plated,PTH,ComponentDrill
T7C0.0394
; #@! TA.AperFunction,Plated,PTH,ComponentDrill
T8C0.0402
; #@! TA.AperFunction,Plated,PTH,ComponentDrill
T9C0.0551
; #@! TA.AperFunction,Plated,PTH,ComponentDrill
T10C0.0866
; #@! TA.AperFunction,Plated,PTH,ComponentDrill
T11C0.1457
%
G90
G05
T1
X1.6791Y-3.5331
X1.6791Y-3.5787
X1.6791Y-3.6244
X1.7126Y-3.498
X1.7126Y-3.5331
X1.7126Y-3.5787
X1.7126Y-3.6244
X1.7126Y-3.6594
X1.7461Y-3.5331
X1.7461Y-3.5787
X1.7461Y-3.6244
T2
X0.4961Y-3.4646
X0.4961Y-4.2323
X0.502Y-1.1516
X0.502Y-2.3819
X0.5217Y-3.3071
X0.5217Y-4.1043
X0.561Y-1.3039
X0.561Y-2.2835
X0.6201Y-3.8287
X0.6201Y-3.9665
X0.6201Y-4.0256
X0.6201Y-4.1437
X0.6201Y-4.311
X0.7045Y-3.2242
X0.7087Y-3.0709
X0.7087Y-3.3858
X0.7087Y-3.5433
X0.7283Y-3.7963
X0.8169Y-2.9528
X0.8661Y-3.5433
X0.876Y-4.311
X0.876Y-1.5551
X0.876Y-2.4803
X0.876Y-3.7963
X0.876Y-4.0256
X0.876Y-4.1437
X0.8858Y-3.0709
X0.8858Y-3.2283
X0.8858Y-3.3858
X0.9843Y-1.3091
X0.9843Y-1.5846
X0.9843Y-2.1063
X1.0138Y-1.5041
X1.0138Y-1.5354
X1.0138Y-1.6929
X1.0335Y-1.939
X1.0335Y-1.9685
X1.0335Y-1.9961
X1.0335Y-2.0276
X1.0335Y-2.0571
X1.0335Y-2.0866
X1.0531Y-3.2972
X1.0531Y-3.4646
X1.0531Y-4.2126
X1.0531Y-4.3799
X1.0728Y-1.6634
X1.0728Y-1.7224
X1.0728Y-1.7618
X1.0827Y-1.3681
X1.0827Y-1.4134
X1.0827Y-1.4606
X1.0827Y-1.6043
X1.0827Y-1.7913
X1.0827Y-1.8228
X1.0827Y-1.8701
X1.0827Y-1.9173
X1.1319Y-3.1457
X1.1319Y-3.9567
X1.1417Y-1.3484
X1.1713Y-1.4665
X1.1713Y-1.9685
X1.1713Y-2.1358
X1.2008Y-1.586
X1.2008Y-1.6634
X1.2008Y-1.7224
X1.2008Y-1.811
X1.2008Y-2.0079
X1.2008Y-3.7106
X1.2008Y-3.8612
X1.2008Y-4.2323
X1.2712Y-1.5266
X1.2736Y-1.9331
X1.2746Y-1.4616
X1.2756Y-1.4134
X1.2756Y-2.122
X1.2776Y-1.3661
X1.2776Y-1.6024
X1.2776Y-1.7461
X1.2776Y-1.8228
X1.2795Y-1.6831
X1.2795Y-1.8701
X1.3091Y-1.7126
X1.3091Y-4.6654
X1.3189Y-3.1594
X1.3287Y-1.8012
X1.3287Y-3.7402
X1.3287Y-3.8484
X1.3287Y-3.9567
X1.3287Y-4.0551
X1.3583Y-1.3189
X1.3583Y-1.5551
X1.3878Y-1.2598
X1.3878Y-1.7815
X1.3878Y-2.4606
X1.3878Y-3.5433
X1.4469Y-3.1201
X1.4469Y-3.1791
X1.4665Y-3.2776
X1.4764Y-3.7697
X1.4764Y-3.8386
X1.4764Y-3.9173
X1.4764Y-4.4291
X1.4764Y-4.6654
X1.4961Y-3.0807
X1.565Y-4.0748
X1.565Y-4.1831
X1.5945Y-3.4055
X1.5945Y-3.5851
X1.6043Y-3.6319
X1.6043Y-3.6614
X1.6339Y-3.9173
X1.6437Y-4.299
X1.6929Y-4.0256
X1.7224Y-3.0807
X1.7421Y-3.7795
X1.7717Y-3.75
X1.7717Y-3.8878
X1.7844Y-3.4281
X1.7913Y-2.7559
X1.7913Y-3.1791
X1.8209Y-3.9043
X1.8307Y-3.6713
X1.8406Y-3.4744
X1.8406Y-3.5039
X1.8406Y-3.5335
X1.865Y-3.9043
X1.8898Y-3.622
X1.8996Y-3.5039
X1.8996Y-4.4291
X1.9291Y-3.2283
X1.9291Y-3.6516
X2.0472Y-2.8839
X2.1161Y-3.5039
X2.3622Y-4.7736
X2.3819Y-4.9409
X2.4252Y-1.4134
X2.4852Y-1.5108
X2.486Y-1.4606
X2.4862Y-1.6496
X2.4902Y-1.5551
X2.4902Y-1.6043
X2.4902Y-1.7913
X2.4902Y-1.8406
X2.4902Y-1.8898
X2.4902Y-1.939
X2.4902Y-1.9882
X2.4902Y-2.0276
X2.4902Y-2.0768
X2.4902Y-2.126
X2.5Y-4.9409
X2.5394Y-1.5157
X2.5394Y-1.5551
X2.5394Y-1.6043
X2.5394Y-1.7323
X2.5394Y-1.7913
X2.5394Y-1.8406
X2.5394Y-1.8898
X2.5394Y-1.939
X2.5394Y-1.9882
X2.5394Y-2.0276
X2.5394Y-2.0768
X2.5394Y-2.126
X2.543Y-1.6946
X2.5433Y-1.6496
X2.5443Y-1.4026
X2.5453Y-1.4606
X2.5591Y-4.9409
X2.6181Y-4.9409
X2.6772Y-4.9409
X2.9724Y-0.8268
X2.9921Y-0.8071
X3.0512Y-0.8071
X3.1102Y-0.8071
X3.1398Y-1.1417
X3.1693Y-0.8071
X3.2283Y-0.8071
X3.2874Y-0.8071
X3.3465Y-0.8071
X3.4055Y-0.8071
X3.4646Y-0.8071
X3.5138Y-1.1417
X3.5236Y-0.8071
X3.5433Y-1.2205
X3.6024Y-1.2205
X3.6614Y-0.8071
X3.6713Y-1.25
X3.6811Y-0.689
X3.7008Y-0.8071
T3
X0.5157Y-0.5807
X0.519Y-5.164
X0.5348Y-0.5348
X0.5348Y-0.6266
X0.5381Y-5.1181
X0.5381Y-5.21
X0.5807Y-0.5157
X0.5807Y-0.6457
X0.584Y-5.0991
X0.584Y-5.229
X0.6266Y-0.5348
X0.6266Y-0.6266
X0.6299Y-5.1181
X0.6299Y-5.21
X0.6457Y-0.5807
X0.6489Y-5.164
X3.895Y-5.164
X3.9049Y-0.5774
X3.914Y-5.1181
X3.914Y-5.21
X3.9239Y-0.5315
X3.9239Y-0.6234
X3.96Y-5.0991
X3.96Y-5.229
X3.9698Y-0.5125
X3.9698Y-0.6424
X4.0059Y-5.1181
X4.0059Y-5.21
X4.0157Y-0.5315
X4.0157Y-0.6234
X4.0249Y-5.164
X4.0348Y-0.5774
T4
X0.6496Y-3.0709
X0.6496Y-3.1496
X0.6496Y-3.2283
X0.6496Y-3.3071
X0.6496Y-3.3858
X0.6496Y-3.4646
X0.6496Y-3.5433
X0.6496Y-3.622
T6
X0.6791Y-2.2835
X0.6791Y-2.3819
X0.6791Y-2.4803
X0.6791Y-2.5787
X0.6791Y-2.6772
X0.6791Y-2.7756
T7
X0.6677Y-1.0039
X0.6677Y-1.1039
X0.6677Y-1.2039
X0.6677Y-1.3039
X0.6677Y-1.4039
X0.6677Y-1.5039
X0.6677Y-1.6039
X0.6677Y-1.7039
X0.6677Y-1.8039
X0.6677Y-1.9039
X0.7677Y-1.0039
X0.7677Y-1.1039
X0.7677Y-1.2039
X0.7677Y-1.3039
X0.7677Y-1.4039
X0.7677Y-1.5039
X0.7677Y-1.6039
X0.7677Y-1.7039
X0.7677Y-1.8039
X0.7677Y-1.9039
T8
X1.4764Y-4.963
X1.4764Y-5.0811
X1.8996Y-4.963
X1.8996Y-5.0811
T9
X0.8976Y-4.862
X0.8976Y-5.0785
X1.063Y-4.862
X1.063Y-5.0785
T10
X0.5807Y-0.5807
X0.584Y-5.164
X3.96Y-5.164
X3.9698Y-0.5774
T11
X3.3366Y-2.0679
X3.3366Y-2.5404
X3.3366Y-3.249
X3.3366Y-4.0364
T5
G00X2.2343Y-4.8613
M15
G01X2.2343Y-4.9322
M16
G05
G00X2.2343Y-5.1078
M15
G01X2.2343Y-5.155
M16
G05
G00X2.8051Y-4.8613
M15
G01X2.8051Y-4.9322
M16
G05
G00X2.8051Y-5.1078
M15
G01X2.8051Y-5.155
M16
G05
M30
