%TF.GenerationSoftware,KiCad,Pcbnew,9.0.7*%
%TF.CreationDate,2026-03-20T13:48:14-04:00*%
%TF.ProjectId,theboard.v3.7,74686562-6f61-4726-942e-76332e372e6b,3.7*%
%TF.SameCoordinates,Original*%
%TF.FileFunction,Copper,L6,Bot*%
%TF.FilePolarity,Positive*%
%FSLAX46Y46*%
G04 Gerber Fmt 4.6, Leading zero omitted, Abs format (unit mm)*
G04 Created by KiCad (PCBNEW 9.0.7) date 2026-03-20 13:48:14*
%MOMM*%
%LPD*%
G01*
G04 APERTURE LIST*
G04 Aperture macros list*
%AMRoundRect*
0 Rectangle with rounded corners*
0 $1 Rounding radius*
0 $2 $3 $4 $5 $6 $7 $8 $9 X,Y pos of 4 corners*
0 Add a 4 corners polygon primitive as box body*
4,1,4,$2,$3,$4,$5,$6,$7,$8,$9,$2,$3,0*
0 Add four circle primitives for the rounded corners*
1,1,$1+$1,$2,$3*
1,1,$1+$1,$4,$5*
1,1,$1+$1,$6,$7*
1,1,$1+$1,$8,$9*
0 Add four rect primitives between the rounded corners*
20,1,$1+$1,$2,$3,$4,$5,0*
20,1,$1+$1,$4,$5,$6,$7,0*
20,1,$1+$1,$6,$7,$8,$9,0*
20,1,$1+$1,$8,$9,$2,$3,0*%
G04 Aperture macros list end*
%TA.AperFunction,ComponentPad*%
%ADD10O,1.500000X3.000000*%
%TD*%
%TA.AperFunction,ComponentPad*%
%ADD11O,1.700000X3.400000*%
%TD*%
%TA.AperFunction,ComponentPad*%
%ADD12C,0.700000*%
%TD*%
%TA.AperFunction,ComponentPad*%
%ADD13C,4.400000*%
%TD*%
%TA.AperFunction,ComponentPad*%
%ADD14C,5.800000*%
%TD*%
%TA.AperFunction,ComponentPad*%
%ADD15O,1.750000X1.200000*%
%TD*%
%TA.AperFunction,ComponentPad*%
%ADD16RoundRect,0.250000X-0.625000X0.350000X-0.625000X-0.350000X0.625000X-0.350000X0.625000X0.350000X0*%
%TD*%
%TA.AperFunction,ComponentPad*%
%ADD17C,1.700000*%
%TD*%
%TA.AperFunction,ComponentPad*%
%ADD18RoundRect,0.250000X-0.600000X-0.600000X0.600000X-0.600000X0.600000X0.600000X-0.600000X0.600000X0*%
%TD*%
%TA.AperFunction,ComponentPad*%
%ADD19O,1.950000X1.700000*%
%TD*%
%TA.AperFunction,ComponentPad*%
%ADD20RoundRect,0.250000X-0.725000X0.600000X-0.725000X-0.600000X0.725000X-0.600000X0.725000X0.600000X0*%
%TD*%
%TA.AperFunction,ComponentPad*%
%ADD21C,1.520000*%
%TD*%
%TA.AperFunction,ComponentPad*%
%ADD22R,1.520000X1.520000*%
%TD*%
%TA.AperFunction,ComponentPad*%
%ADD23C,0.450000*%
%TD*%
%TA.AperFunction,ComponentPad*%
%ADD24C,1.900000*%
%TD*%
%TA.AperFunction,ComponentPad*%
%ADD25R,1.900000X1.900000*%
%TD*%
%TA.AperFunction,ViaPad*%
%ADD26C,0.600000*%
%TD*%
%TA.AperFunction,Conductor*%
%ADD27C,1.000000*%
%TD*%
%TA.AperFunction,Conductor*%
%ADD28C,0.500000*%
%TD*%
%TA.AperFunction,Conductor*%
%ADD29C,0.200000*%
%TD*%
G04 APERTURE END LIST*
D10*
%TO.P,J10,S4,SH*%
%TO.N,GND*%
X71250000Y-130337500D03*
D11*
%TO.P,J10,S3,SH*%
X71250000Y-124377500D03*
D10*
%TO.P,J10,S2,SH*%
X56750000Y-130337500D03*
D11*
%TO.P,J10,S1,SH*%
X56750000Y-124377500D03*
%TD*%
D12*
%TO.P,H1,1*%
%TO.N,GND*%
X16400000Y-14750000D03*
X15916726Y-15916726D03*
X15916726Y-13583274D03*
X14750000Y-16400000D03*
D13*
X14750000Y-14750000D03*
D12*
X14750000Y-13100000D03*
X13583274Y-15916726D03*
X13583274Y-13583274D03*
X13100000Y-14750000D03*
%TD*%
D14*
%TO.P,J7,M4*%
%TO.N,GND*%
X84750000Y-102525000D03*
%TO.P,J7,M3*%
X84750000Y-82525000D03*
%TO.P,J7,M2*%
X84750000Y-64525000D03*
%TO.P,J7,M1*%
X84750000Y-52525000D03*
%TD*%
D12*
%TO.P,H2,1*%
%TO.N,GND*%
X102483274Y-14666726D03*
X102000000Y-15833452D03*
X102000000Y-13500000D03*
X100833274Y-16316726D03*
D13*
X100833274Y-14666726D03*
D12*
X100833274Y-13016726D03*
X99666548Y-15833452D03*
X99666548Y-13500000D03*
X99183274Y-14666726D03*
%TD*%
D15*
%TO.P,J11,8,Pin_8*%
%TO.N,GND*%
X16500000Y-92000000D03*
%TO.P,J11,7,Pin_7*%
%TO.N,/SW_IN_LED*%
X16500000Y-90000000D03*
%TO.P,J11,6,Pin_6*%
%TO.N,/WIFI_LED*%
X16500000Y-88000000D03*
%TO.P,J11,5,Pin_5*%
%TO.N,Net-(J11-Pin_5)*%
X16500000Y-86000000D03*
%TO.P,J11,4,Pin_4*%
%TO.N,/LED_nPWR*%
X16500000Y-84000000D03*
%TO.P,J11,3,Pin_3*%
%TO.N,Net-(J11-Pin_3)*%
X16500000Y-82000000D03*
%TO.P,J11,2,Pin_2*%
%TO.N,GND*%
X16500000Y-80000000D03*
D16*
%TO.P,J11,1,Pin_1*%
%TO.N,/PWR_IN_LED*%
X16500000Y-78000000D03*
%TD*%
D17*
%TO.P,J9,20,Pin_20*%
%TO.N,GND*%
X19500000Y-48360000D03*
%TO.P,J9,19,Pin_19*%
X16960000Y-48360000D03*
%TO.P,J9,18,Pin_18*%
X19500000Y-45820000D03*
%TO.P,J9,17,Pin_17*%
X16960000Y-45820000D03*
%TO.P,J9,16,Pin_16*%
X19500000Y-43280000D03*
%TO.P,J9,15,Pin_15*%
%TO.N,/XVF_INT*%
X16960000Y-43280000D03*
%TO.P,J9,14,Pin_14*%
%TO.N,/XVF_BOOT*%
X19500000Y-40740000D03*
%TO.P,J9,13,Pin_13*%
%TO.N,/XVF_RST*%
X16960000Y-40740000D03*
%TO.P,J9,12,Pin_12*%
%TO.N,/XVF_SCL*%
X19500000Y-38200000D03*
%TO.P,J9,11,Pin_11*%
%TO.N,/XVF_SDA*%
X16960000Y-38200000D03*
%TO.P,J9,10,Pin_10*%
%TO.N,GND*%
X19500000Y-35660000D03*
%TO.P,J9,9,Pin_9*%
X16960000Y-35660000D03*
%TO.P,J9,8,Pin_8*%
%TO.N,/I2S_DATA_IN*%
X19500000Y-33120000D03*
%TO.P,J9,7,Pin_7*%
%TO.N,/I2S_LRCLK*%
X16960000Y-33120000D03*
%TO.P,J9,6,Pin_6*%
%TO.N,/I2S_BCLK*%
X19500000Y-30580000D03*
%TO.P,J9,5,Pin_5*%
%TO.N,/I2S_MCLK*%
X16960000Y-30580000D03*
%TO.P,J9,4,Pin_4*%
%TO.N,GND*%
X19500000Y-28040000D03*
%TO.P,J9,3,Pin_3*%
X16960000Y-28040000D03*
%TO.P,J9,2,Pin_2*%
%TO.N,+5V*%
X19500000Y-25500000D03*
D18*
%TO.P,J9,1,Pin_1*%
X16960000Y-25500000D03*
%TD*%
D19*
%TO.P,J8,6,Pin_6*%
%TO.N,/I2S_MCLK*%
X17250000Y-70499999D03*
%TO.P,J8,5,Pin_5*%
%TO.N,+5V*%
X17250000Y-67999999D03*
%TO.P,J8,4,Pin_4*%
%TO.N,GND*%
X17250000Y-65499999D03*
%TO.P,J8,3,Pin_3*%
%TO.N,/I2S_DATA_OUT*%
X17250000Y-62999999D03*
%TO.P,J8,2,Pin_2*%
%TO.N,/I2S_BCLK*%
X17250000Y-60499999D03*
D20*
%TO.P,J8,1,Pin_1*%
%TO.N,/I2S_LRCLK*%
X17250000Y-57999999D03*
%TD*%
D21*
%TO.P,J1,2,Pin_2*%
%TO.N,GND*%
X48250000Y-129060000D03*
D22*
%TO.P,J1,1,Pin_1*%
%TO.N,Net-(J1-Pin_1)*%
X48250000Y-126060000D03*
%TD*%
D23*
%TO.P,U1,42,DAP*%
%TO.N,GND*%
X43500000Y-92950000D03*
%TO.P,U1,41,DAP*%
X44350000Y-92060000D03*
%TO.P,U1,40,DAP*%
X43500000Y-92060000D03*
%TO.P,U1,39,DAP*%
X42650000Y-92060000D03*
%TO.P,U1,38,DAP*%
X44350000Y-90900000D03*
%TO.P,U1,37,DAP*%
X43500000Y-90900000D03*
%TO.P,U1,36,DAP*%
X42650000Y-90900000D03*
%TO.P,U1,35,DAP*%
X44350000Y-89740000D03*
%TO.P,U1,34,DAP*%
X43500000Y-89740000D03*
%TO.P,U1,33,DAP*%
X42650000Y-89740000D03*
%TO.P,U1,32,DAP*%
X43500000Y-88850000D03*
%TD*%
D24*
%TO.P,J3,4,4*%
%TO.N,+28V_SW*%
X27000000Y-128994250D03*
%TO.P,J3,3,3*%
X22800000Y-128994250D03*
%TO.P,J3,2,2*%
%TO.N,GND*%
X27000000Y-123494250D03*
D25*
%TO.P,J3,1,1*%
X22800000Y-123494250D03*
%TD*%
D12*
%TO.P,H3,1*%
%TO.N,GND*%
X16483274Y-131166726D03*
X16000000Y-132333452D03*
X16000000Y-130000000D03*
X14833274Y-132816726D03*
D13*
X14833274Y-131166726D03*
D12*
X14833274Y-129516726D03*
X13666548Y-132333452D03*
X13666548Y-130000000D03*
X13183274Y-131166726D03*
%TD*%
%TO.P,H4,1*%
%TO.N,GND*%
X102233274Y-131166726D03*
X101750000Y-132333452D03*
X101750000Y-130000000D03*
X100583274Y-132816726D03*
D13*
X100583274Y-131166726D03*
D12*
X100583274Y-129516726D03*
X99416548Y-132333452D03*
X99416548Y-130000000D03*
X98933274Y-131166726D03*
%TD*%
D21*
%TO.P,J2,2,Pin_2*%
%TO.N,+28V_SW*%
X37500000Y-129060000D03*
D22*
%TO.P,J2,1,Pin_1*%
%TO.N,+28V*%
X37500000Y-126060000D03*
%TD*%
D26*
%TO.N,GND*%
X68000000Y-125500000D03*
%TO.N,Net-(U1-FB)*%
X45000000Y-95250000D03*
X45000000Y-98750000D03*
%TO.N,Net-(J1-Pin_1)*%
X48250000Y-112500000D03*
%TO.N,Net-(U2-EN)*%
X36750000Y-79250000D03*
X36750000Y-80750000D03*
%TO.N,/SW_IN_LED*%
X18000000Y-90000000D03*
%TO.N,Net-(D4-A)*%
X18500000Y-96425000D03*
X22250000Y-96425000D03*
%TO.N,Net-(U2-FB)*%
X38000000Y-78250000D03*
X43750000Y-78250000D03*
%TO.N,Net-(U1-RT)*%
X40750000Y-93000000D03*
%TO.N,Net-(U1-CBOOT)*%
X40500000Y-86500000D03*
X40500000Y-91061149D03*
%TO.N,/PWR_IN_LED*%
X18000000Y-78000000D03*
%TO.N,+28V_SW*%
X49000000Y-92750000D03*
X30500000Y-98074999D03*
X30500000Y-107500000D03*
%TO.N,/WIFI_LED*%
X12600000Y-88000000D03*
X30500000Y-40285237D03*
X12600000Y-107500000D03*
%TO.N,Net-(D3-A)*%
X22249998Y-109500000D03*
X15750000Y-109500000D03*
%TO.N,+28V*%
X37500000Y-112500000D03*
X37500000Y-118500000D03*
%TO.N,/I2S_DATA_IN*%
X25000000Y-33250000D03*
X25000000Y-40250000D03*
%TO.N,/I2S_DATA_OUT*%
X22250000Y-39500000D03*
X22250000Y-63000000D03*
%TO.N,/I2S_BCLK*%
X29000000Y-34250000D03*
X12750000Y-60500000D03*
X12750000Y-29250000D03*
%TO.N,/I2S_LRCLK*%
X34500000Y-33500000D03*
X14250000Y-58000000D03*
X14250000Y-33120000D03*
X34500000Y-39500000D03*
%TO.N,/XVF_RST*%
X27250000Y-42250000D03*
X30500000Y-42250000D03*
%TO.N,Net-(D2-A)*%
X15750000Y-105250000D03*
X22250000Y-105250000D03*
%TO.N,/XVF_SDA*%
X30500000Y-51000000D03*
X30500000Y-46000000D03*
%TO.N,Net-(J11-Pin_5)*%
X18000000Y-86000000D03*
%TO.N,Net-(J11-Pin_3)*%
X17895190Y-81895190D03*
%TO.N,/XVF_SCL*%
X33750000Y-45750000D03*
X25750000Y-38203230D03*
%TO.N,/LED_nPWR*%
X25000000Y-53500000D03*
X13250000Y-104250000D03*
X20750000Y-75000000D03*
X13250000Y-84000000D03*
%TO.N,Net-(D1-A)*%
X22250000Y-102250000D03*
X15750000Y-102250000D03*
%TO.N,/I2S_MCLK*%
X35250000Y-62500000D03*
X35250000Y-45250000D03*
X35250000Y-32000000D03*
%TO.N,/XVF_BOOT*%
X30500000Y-43750000D03*
X27250000Y-43750000D03*
%TO.N,/XVF_INT*%
X33250000Y-43500000D03*
X27250000Y-44750000D03*
%TO.N,+3.3V*%
X29750000Y-50000000D03*
X29750000Y-37250000D03*
X45500000Y-70000000D03*
X29750000Y-54250000D03*
X26750000Y-111250000D03*
X89250000Y-29000000D03*
X26750000Y-107000000D03*
X79750000Y-29000000D03*
%TO.N,+5V*%
X26250000Y-53000000D03*
X26250000Y-50000000D03*
X39750000Y-103500000D03*
X44250000Y-96000000D03*
X26250000Y-52250000D03*
X60000000Y-121250000D03*
X26250000Y-50700003D03*
X35250000Y-90000000D03*
X26250000Y-49250000D03*
X40750000Y-92250000D03*
X26250000Y-51500000D03*
X37250000Y-83250000D03*
X47369999Y-99170000D03*
%TO.N,GND*%
X63250000Y-40750000D03*
X46750000Y-88250000D03*
X45500000Y-80750000D03*
%TO.N,+5V*%
X46250000Y-99170000D03*
%TO.N,GND*%
X63250000Y-52750000D03*
X27500000Y-40750000D03*
X32449999Y-46300001D03*
X89500000Y-20500000D03*
X64500000Y-40750000D03*
X48250000Y-89000000D03*
X76000000Y-20500000D03*
X64500000Y-48000000D03*
X27500000Y-35900000D03*
X63125000Y-38375000D03*
X93250000Y-31750000D03*
X88000000Y-20500000D03*
X61600001Y-35899999D03*
X46750000Y-89750000D03*
X75500000Y-21000000D03*
X25750000Y-39000000D03*
X64591859Y-43043059D03*
X32375000Y-37125000D03*
X65000000Y-125500000D03*
X64625000Y-35625000D03*
X27500000Y-48700000D03*
X32500000Y-42750000D03*
X27500000Y-34750000D03*
X39750000Y-106250000D03*
X64500000Y-50500000D03*
X48000000Y-92000000D03*
X60500000Y-125500000D03*
X63250000Y-54000000D03*
X80500000Y-20500000D03*
X32500000Y-47500000D03*
X64500000Y-46750000D03*
X82000000Y-20500000D03*
X63144867Y-37099999D03*
X77500000Y-20500000D03*
X33500000Y-80250000D03*
X63250000Y-46750000D03*
X91500000Y-31000000D03*
X46500000Y-93250000D03*
X64500000Y-51500000D03*
X27500000Y-45500000D03*
X15750000Y-97250000D03*
X79000000Y-20500000D03*
X53750000Y-89000000D03*
X46750000Y-89000000D03*
X27500000Y-46300000D03*
X64500000Y-38500000D03*
X63250000Y-39500000D03*
X33250000Y-118500000D03*
X32449999Y-44350000D03*
X32399999Y-35899999D03*
X33750000Y-97750000D03*
X63250000Y-50500000D03*
X64500000Y-54000000D03*
X52000000Y-73250000D03*
X41750000Y-109195000D03*
X43000000Y-102250000D03*
X63250000Y-51500000D03*
X64650001Y-37099999D03*
X64500000Y-52750000D03*
X25750000Y-43000000D03*
X27500000Y-37100000D03*
X32449999Y-40699999D03*
X93500000Y-17500000D03*
X27500000Y-47500000D03*
X32349999Y-49099999D03*
X64500000Y-49250000D03*
X63149999Y-41899999D03*
X33750000Y-100500000D03*
X90000000Y-31000000D03*
X32287664Y-38776234D03*
X66500000Y-125500000D03*
X15750000Y-100750000D03*
X32449999Y-34699999D03*
X86500000Y-20500000D03*
X64500000Y-44000000D03*
X94000000Y-20500000D03*
X49000000Y-82000000D03*
X32399999Y-53899999D03*
X63250000Y-49250000D03*
X85000000Y-20500000D03*
X33750000Y-95000000D03*
X63250000Y-48000000D03*
X64500000Y-39500000D03*
X64600001Y-41899999D03*
X33750000Y-103000000D03*
X64500000Y-45500000D03*
X63500000Y-125500000D03*
X45325001Y-87075001D03*
X63250000Y-45500000D03*
X83500000Y-20500000D03*
X93000000Y-20500000D03*
X37500000Y-97500000D03*
X37500000Y-95750000D03*
X37500000Y-99500000D03*
%TO.N,Net-(U1-RT)*%
X41500000Y-99500000D03*
%TO.N,/PWR_IN_LED*%
X22500000Y-78000000D03*
%TO.N,/SW_IN_LED*%
X22000000Y-90000000D03*
%TO.N,Net-(J11-Pin_5)*%
X22500000Y-86000000D03*
%TO.N,Net-(J11-Pin_3)*%
X22500000Y-82000000D03*
%TO.N,+3.3V*%
X26750000Y-88000000D03*
X26750000Y-83750000D03*
%TO.N,+28V*%
X28750000Y-100500000D03*
%TO.N,+28V_SW*%
X30500000Y-94250000D03*
%TO.N,+28V*%
X28750000Y-79900000D03*
%TD*%
D27*
%TO.N,+28V_SW*%
X30500000Y-94250000D02*
X30500000Y-107500000D01*
%TO.N,Net-(J1-Pin_1)*%
X48250000Y-112500000D02*
X48250000Y-126060000D01*
%TO.N,+28V_SW*%
X52000000Y-95750000D02*
X52000000Y-104000000D01*
X48500000Y-107500000D02*
X30500000Y-107500000D01*
X52000000Y-104000000D02*
X48500000Y-107500000D01*
X49000000Y-92750000D02*
X52000000Y-95750000D01*
%TO.N,+28V*%
X37500000Y-126060000D02*
X37500000Y-118500000D01*
D28*
%TO.N,+3.3V*%
X29750000Y-30000000D02*
X29750000Y-37250000D01*
X79750000Y-29000000D02*
X89250000Y-29000000D01*
X30750000Y-29000000D02*
X29750000Y-30000000D01*
X28250000Y-70000000D02*
X45500000Y-70000000D01*
X79750000Y-29000000D02*
X30750000Y-29000000D01*
X29750000Y-50000000D02*
X29750000Y-54250000D01*
X29750000Y-50000000D02*
X29750000Y-37250000D01*
D27*
%TO.N,+5V*%
X17250000Y-67999999D02*
X21250000Y-63999999D01*
X21250000Y-63999999D02*
X21250000Y-59500000D01*
X26250000Y-54500000D02*
X26250000Y-49250000D01*
X21250000Y-59500000D02*
X26250000Y-54500000D01*
D29*
%TO.N,Net-(U1-FB)*%
X45000000Y-98750000D02*
X45000000Y-95250000D01*
D28*
%TO.N,+3.3V*%
X28250000Y-70000000D02*
X26250000Y-68000000D01*
X26250000Y-68000000D02*
X26250000Y-57750000D01*
X26250000Y-57750000D02*
X29750000Y-54250000D01*
X26750000Y-71500000D02*
X28250000Y-70000000D01*
X26750000Y-111250000D02*
X26750000Y-71500000D01*
D27*
%TO.N,+28V*%
X28750000Y-79900000D02*
X28750000Y-100500000D01*
X37500000Y-112500000D02*
X33000000Y-112500000D01*
X28750000Y-108250000D02*
X28750000Y-100500000D01*
X33000000Y-112500000D02*
X28750000Y-108250000D01*
%TD*%
%TA.AperFunction,Conductor*%
%TO.N,GND*%
G36*
X18070122Y-43297191D02*
G01*
X18126794Y-43338057D01*
X18151343Y-43394730D01*
X18183242Y-43596127D01*
X18183242Y-43596130D01*
X18248904Y-43798217D01*
X18345375Y-43987550D01*
X18384728Y-44041716D01*
X19017037Y-43409408D01*
X19034075Y-43472993D01*
X19099901Y-43587007D01*
X19192993Y-43680099D01*
X19307007Y-43745925D01*
X19370590Y-43762962D01*
X18738282Y-44395269D01*
X18738282Y-44395270D01*
X18792452Y-44434626D01*
X18802048Y-44439516D01*
X18805158Y-44442454D01*
X18809302Y-44443523D01*
X18830336Y-44466233D01*
X18852844Y-44487491D01*
X18853872Y-44491644D01*
X18856780Y-44494784D01*
X18862197Y-44525265D01*
X18869638Y-44555312D01*
X18868258Y-44559361D01*
X18869007Y-44563575D01*
X18857085Y-44592145D01*
X18847100Y-44621447D01*
X18843281Y-44625228D01*
X18842101Y-44628057D01*
X18832916Y-44635492D01*
X18816207Y-44652040D01*
X18706137Y-44728040D01*
X18674311Y-44738540D01*
X18642761Y-44749798D01*
X18639948Y-44749878D01*
X18639786Y-44749932D01*
X18639614Y-44749887D01*
X18635682Y-44750000D01*
X17824318Y-44750000D01*
X17757279Y-44730315D01*
X17751433Y-44726318D01*
X17667557Y-44665379D01*
X17478217Y-44568904D01*
X17276128Y-44503242D01*
X17074730Y-44471343D01*
X17011595Y-44441414D01*
X16974664Y-44382102D01*
X16975662Y-44312239D01*
X17014272Y-44254007D01*
X17069933Y-44227254D01*
X17237251Y-44193973D01*
X17410231Y-44122322D01*
X17565908Y-44018302D01*
X17698302Y-43885908D01*
X17802322Y-43730231D01*
X17873973Y-43557251D01*
X17907254Y-43389933D01*
X17939637Y-43328026D01*
X18000353Y-43293452D01*
X18070122Y-43297191D01*
G37*
%TD.AperFunction*%
%TA.AperFunction,Conductor*%
G36*
X100944043Y-12500765D02*
G01*
X101192895Y-12517075D01*
X101208953Y-12519190D01*
X101416105Y-12560395D01*
X101449535Y-12567045D01*
X101465202Y-12571243D01*
X101634947Y-12628863D01*
X101697481Y-12650091D01*
X101712458Y-12656294D01*
X101921799Y-12759529D01*
X101932460Y-12764787D01*
X101946508Y-12772897D01*
X102150464Y-12909177D01*
X102163328Y-12919048D01*
X102347749Y-13080781D01*
X102359218Y-13092250D01*
X102520951Y-13276671D01*
X102530825Y-13289539D01*
X102667102Y-13493492D01*
X102675212Y-13507539D01*
X102783702Y-13727534D01*
X102789909Y-13742520D01*
X102868756Y-13974797D01*
X102872954Y-13990464D01*
X102920807Y-14231035D01*
X102922925Y-14247116D01*
X102939235Y-14495956D01*
X102939500Y-14504066D01*
X102939500Y-131415933D01*
X102939235Y-131424043D01*
X102922925Y-131672883D01*
X102920807Y-131688964D01*
X102872954Y-131929535D01*
X102868756Y-131945202D01*
X102789909Y-132177479D01*
X102783702Y-132192465D01*
X102675212Y-132412460D01*
X102667102Y-132426507D01*
X102530825Y-132630460D01*
X102520951Y-132643328D01*
X102359218Y-132827749D01*
X102347749Y-132839218D01*
X102163328Y-133000951D01*
X102150460Y-133010825D01*
X101946507Y-133147102D01*
X101932460Y-133155212D01*
X101712465Y-133263702D01*
X101697479Y-133269909D01*
X101465202Y-133348756D01*
X101449535Y-133352954D01*
X101208964Y-133400807D01*
X101192883Y-133402925D01*
X100944043Y-133419235D01*
X100935933Y-133419500D01*
X53374000Y-133419500D01*
X53306961Y-133399815D01*
X53261206Y-133347011D01*
X53250000Y-133295500D01*
X53250000Y-129489117D01*
X55500000Y-129489117D01*
X55500000Y-130087500D01*
X56300000Y-130087500D01*
X56300000Y-130587500D01*
X55500000Y-130587500D01*
X55500000Y-131185882D01*
X55530778Y-131380205D01*
X55591581Y-131567335D01*
X55680904Y-131742643D01*
X55796555Y-131901821D01*
X55935678Y-132040944D01*
X56094856Y-132156595D01*
X56270162Y-132245918D01*
X56457283Y-132306718D01*
X56500000Y-132313484D01*
X56500000Y-131312777D01*
X56576306Y-131356833D01*
X56690756Y-131387500D01*
X56809244Y-131387500D01*
X56923694Y-131356833D01*
X57000000Y-131312777D01*
X57000000Y-132313483D01*
X57042716Y-132306718D01*
X57229837Y-132245918D01*
X57405143Y-132156595D01*
X57564321Y-132040944D01*
X57703444Y-131901821D01*
X57819095Y-131742643D01*
X57908418Y-131567335D01*
X57969221Y-131380205D01*
X58000000Y-131185882D01*
X58000000Y-130587500D01*
X57200000Y-130587500D01*
X57200000Y-130087500D01*
X58000000Y-130087500D01*
X58000000Y-129489117D01*
X70000000Y-129489117D01*
X70000000Y-130087500D01*
X70800000Y-130087500D01*
X70800000Y-130587500D01*
X70000000Y-130587500D01*
X70000000Y-131185882D01*
X70030778Y-131380205D01*
X70091581Y-131567335D01*
X70180904Y-131742643D01*
X70296555Y-131901821D01*
X70435678Y-132040944D01*
X70594856Y-132156595D01*
X70770162Y-132245918D01*
X70957283Y-132306718D01*
X71000000Y-132313484D01*
X71000000Y-131312777D01*
X71076306Y-131356833D01*
X71190756Y-131387500D01*
X71309244Y-131387500D01*
X71423694Y-131356833D01*
X71500000Y-131312777D01*
X71500000Y-132313483D01*
X71542716Y-132306718D01*
X71729837Y-132245918D01*
X71905143Y-132156595D01*
X72064321Y-132040944D01*
X72203444Y-131901821D01*
X72319095Y-131742643D01*
X72408418Y-131567335D01*
X72469221Y-131380205D01*
X72500000Y-131185882D01*
X72500000Y-130587500D01*
X71700000Y-130587500D01*
X71700000Y-130087500D01*
X72500000Y-130087500D01*
X72500000Y-129489117D01*
X72469221Y-129294794D01*
X72408418Y-129107664D01*
X72319095Y-128932356D01*
X72203444Y-128773178D01*
X72064321Y-128634055D01*
X71905143Y-128518404D01*
X71729835Y-128429081D01*
X71542705Y-128368278D01*
X71500000Y-128361514D01*
X71500000Y-129362222D01*
X71423694Y-129318167D01*
X71309244Y-129287500D01*
X71190756Y-129287500D01*
X71076306Y-129318167D01*
X71000000Y-129362222D01*
X71000000Y-128361514D01*
X70999999Y-128361514D01*
X70957294Y-128368278D01*
X70770164Y-128429081D01*
X70594856Y-128518404D01*
X70435678Y-128634055D01*
X70296555Y-128773178D01*
X70180904Y-128932356D01*
X70091581Y-129107664D01*
X70030778Y-129294794D01*
X70000000Y-129489117D01*
X58000000Y-129489117D01*
X57969221Y-129294794D01*
X57908418Y-129107664D01*
X57819095Y-128932356D01*
X57703444Y-128773178D01*
X57564321Y-128634055D01*
X57405143Y-128518404D01*
X57229835Y-128429081D01*
X57042705Y-128368278D01*
X57000000Y-128361514D01*
X57000000Y-129362222D01*
X56923694Y-129318167D01*
X56809244Y-129287500D01*
X56690756Y-129287500D01*
X56576306Y-129318167D01*
X56500000Y-129362222D01*
X56500000Y-128361514D01*
X56499999Y-128361514D01*
X56457294Y-128368278D01*
X56270164Y-128429081D01*
X56094856Y-128518404D01*
X55935678Y-128634055D01*
X55796555Y-128773178D01*
X55680904Y-128932356D01*
X55591581Y-129107664D01*
X55530778Y-129294794D01*
X55500000Y-129489117D01*
X53250000Y-129489117D01*
X53250000Y-123421253D01*
X55400000Y-123421253D01*
X55400000Y-124127500D01*
X56300000Y-124127500D01*
X56300000Y-124627500D01*
X55400000Y-124627500D01*
X55400000Y-125333746D01*
X55433242Y-125543627D01*
X55433242Y-125543630D01*
X55498904Y-125745717D01*
X55595379Y-125935057D01*
X55720272Y-126106959D01*
X55720276Y-126106964D01*
X55870535Y-126257223D01*
X55870540Y-126257227D01*
X56042442Y-126382120D01*
X56231782Y-126478595D01*
X56433871Y-126544257D01*
X56500000Y-126554731D01*
X56500000Y-125652777D01*
X56576306Y-125696833D01*
X56690756Y-125727500D01*
X56809244Y-125727500D01*
X56923694Y-125696833D01*
X57000000Y-125652777D01*
X57000000Y-126554730D01*
X57066126Y-126544257D01*
X57066129Y-126544257D01*
X57268217Y-126478595D01*
X57457557Y-126382120D01*
X57629459Y-126257227D01*
X57629464Y-126257223D01*
X57779723Y-126106964D01*
X57779727Y-126106959D01*
X57904620Y-125935057D01*
X58001095Y-125745717D01*
X58066757Y-125543630D01*
X58066757Y-125543627D01*
X58100000Y-125333746D01*
X58100000Y-124627500D01*
X57200000Y-124627500D01*
X57200000Y-124127500D01*
X58100000Y-124127500D01*
X58100000Y-123421253D01*
X69900000Y-123421253D01*
X69900000Y-124127500D01*
X70800000Y-124127500D01*
X70800000Y-124627500D01*
X69900000Y-124627500D01*
X69900000Y-125333746D01*
X69933242Y-125543627D01*
X69933242Y-125543630D01*
X69998904Y-125745717D01*
X70095379Y-125935057D01*
X70220272Y-126106959D01*
X70220276Y-126106964D01*
X70370535Y-126257223D01*
X70370540Y-126257227D01*
X70542442Y-126382120D01*
X70731782Y-126478595D01*
X70933871Y-126544257D01*
X71000000Y-126554731D01*
X71000000Y-125652777D01*
X71076306Y-125696833D01*
X71190756Y-125727500D01*
X71309244Y-125727500D01*
X71423694Y-125696833D01*
X71500000Y-125652777D01*
X71500000Y-126554730D01*
X71566126Y-126544257D01*
X71566129Y-126544257D01*
X71768217Y-126478595D01*
X71957557Y-126382120D01*
X72129459Y-126257227D01*
X72129464Y-126257223D01*
X72279723Y-126106964D01*
X72279727Y-126106959D01*
X72404620Y-125935057D01*
X72501095Y-125745717D01*
X72566757Y-125543630D01*
X72566757Y-125543627D01*
X72600000Y-125333746D01*
X72600000Y-124627500D01*
X71700000Y-124627500D01*
X71700000Y-124127500D01*
X72600000Y-124127500D01*
X72600000Y-123421253D01*
X72566757Y-123211372D01*
X72566757Y-123211369D01*
X72501095Y-123009282D01*
X72404620Y-122819942D01*
X72279727Y-122648040D01*
X72279723Y-122648035D01*
X72129464Y-122497776D01*
X72129459Y-122497772D01*
X71957557Y-122372879D01*
X71768215Y-122276403D01*
X71566124Y-122210741D01*
X71500000Y-122200268D01*
X71500000Y-123102222D01*
X71423694Y-123058167D01*
X71309244Y-123027500D01*
X71190756Y-123027500D01*
X71076306Y-123058167D01*
X71000000Y-123102222D01*
X71000000Y-122200268D01*
X70999999Y-122200268D01*
X70933875Y-122210741D01*
X70731784Y-122276403D01*
X70542442Y-122372879D01*
X70370540Y-122497772D01*
X70370535Y-122497776D01*
X70220276Y-122648035D01*
X70220272Y-122648040D01*
X70095379Y-122819942D01*
X69998904Y-123009282D01*
X69933242Y-123211369D01*
X69933242Y-123211372D01*
X69900000Y-123421253D01*
X58100000Y-123421253D01*
X58066757Y-123211372D01*
X58066757Y-123211369D01*
X58001095Y-123009282D01*
X57904620Y-122819942D01*
X57779727Y-122648040D01*
X57779723Y-122648035D01*
X57629464Y-122497776D01*
X57629459Y-122497772D01*
X57457557Y-122372879D01*
X57268215Y-122276403D01*
X57066124Y-122210741D01*
X57000000Y-122200268D01*
X57000000Y-123102222D01*
X56923694Y-123058167D01*
X56809244Y-123027500D01*
X56690756Y-123027500D01*
X56576306Y-123058167D01*
X56500000Y-123102222D01*
X56500000Y-122200268D01*
X56499999Y-122200268D01*
X56433875Y-122210741D01*
X56231784Y-122276403D01*
X56042442Y-122372879D01*
X55870540Y-122497772D01*
X55870535Y-122497776D01*
X55720276Y-122648035D01*
X55720272Y-122648040D01*
X55595379Y-122819942D01*
X55498904Y-123009282D01*
X55433242Y-123211369D01*
X55433242Y-123211372D01*
X55400000Y-123421253D01*
X53250000Y-123421253D01*
X53250000Y-122250000D01*
X48974500Y-122250000D01*
X48907461Y-122230315D01*
X48861706Y-122177511D01*
X48850500Y-122126000D01*
X48850500Y-120447273D01*
X59599500Y-120447273D01*
X59599500Y-120552727D01*
X59626793Y-120654587D01*
X59679520Y-120745913D01*
X59754087Y-120820480D01*
X59845413Y-120873207D01*
X59947273Y-120900500D01*
X59947275Y-120900500D01*
X60052725Y-120900500D01*
X60052727Y-120900500D01*
X60154587Y-120873207D01*
X60245913Y-120820480D01*
X60320480Y-120745913D01*
X60373207Y-120654587D01*
X60400500Y-120552727D01*
X60400500Y-120447273D01*
X60373207Y-120345413D01*
X60320480Y-120254087D01*
X60245913Y-120179520D01*
X60154587Y-120126793D01*
X60052727Y-120099500D01*
X59947273Y-120099500D01*
X59845413Y-120126793D01*
X59845410Y-120126794D01*
X59754085Y-120179521D01*
X59679521Y-120254085D01*
X59626794Y-120345410D01*
X59626793Y-120345413D01*
X59599500Y-120447273D01*
X48850500Y-120447273D01*
X48850500Y-112420945D01*
X48850500Y-112420943D01*
X48809577Y-112268216D01*
X48809573Y-112268209D01*
X48730524Y-112131290D01*
X48730518Y-112131282D01*
X48618717Y-112019481D01*
X48618709Y-112019475D01*
X48481790Y-111940426D01*
X48481786Y-111940424D01*
X48481784Y-111940423D01*
X48329057Y-111899500D01*
X48170943Y-111899500D01*
X48018216Y-111940423D01*
X48018209Y-111940426D01*
X47881290Y-112019475D01*
X47881282Y-112019481D01*
X47769481Y-112131282D01*
X47769475Y-112131290D01*
X47690426Y-112268209D01*
X47690423Y-112268216D01*
X47649500Y-112420943D01*
X47649500Y-122126000D01*
X47629815Y-122193039D01*
X47577011Y-122238794D01*
X47525500Y-122250000D01*
X43250000Y-122250000D01*
X43250000Y-124670500D01*
X43230315Y-124737539D01*
X43177511Y-124783294D01*
X43126000Y-124794500D01*
X38324500Y-124794500D01*
X38257461Y-124774815D01*
X38211706Y-124722011D01*
X38200500Y-124670500D01*
X38200500Y-118500000D01*
X39750000Y-118500000D01*
X45000000Y-118500000D01*
X45000000Y-111500000D01*
X39750000Y-111500000D01*
X39750000Y-118500000D01*
X38200500Y-118500000D01*
X38200500Y-118431004D01*
X38173581Y-118295677D01*
X38173580Y-118295676D01*
X38173580Y-118295672D01*
X38173578Y-118295667D01*
X38120778Y-118168195D01*
X38120771Y-118168182D01*
X38044114Y-118053458D01*
X38044111Y-118053454D01*
X37946545Y-117955888D01*
X37946541Y-117955885D01*
X37831817Y-117879228D01*
X37831804Y-117879221D01*
X37704332Y-117826421D01*
X37704322Y-117826418D01*
X37568995Y-117799500D01*
X37568993Y-117799500D01*
X37431007Y-117799500D01*
X37431005Y-117799500D01*
X37295677Y-117826418D01*
X37295667Y-117826421D01*
X37168195Y-117879221D01*
X37168182Y-117879228D01*
X37053458Y-117955885D01*
X37053454Y-117955888D01*
X36955888Y-118053454D01*
X36955885Y-118053458D01*
X36879228Y-118168182D01*
X36879221Y-118168195D01*
X36826421Y-118295667D01*
X36826418Y-118295677D01*
X36799500Y-118431004D01*
X36799500Y-124670500D01*
X36779815Y-124737539D01*
X36727011Y-124783294D01*
X36675500Y-124794500D01*
X36623992Y-124794500D01*
X36580313Y-124799197D01*
X36528825Y-124810397D01*
X36518627Y-124812890D01*
X36518624Y-124812891D01*
X36437916Y-124855899D01*
X36437913Y-124855901D01*
X36385104Y-124901660D01*
X36367160Y-124919242D01*
X36367154Y-124919249D01*
X36322511Y-124999059D01*
X36322509Y-124999064D01*
X36302826Y-125066096D01*
X36294500Y-125124003D01*
X36294500Y-127126007D01*
X36299197Y-127169686D01*
X36310397Y-127221174D01*
X36312342Y-127229133D01*
X36312890Y-127231373D01*
X36355900Y-127312085D01*
X36379480Y-127339298D01*
X36408505Y-127402852D01*
X36398562Y-127472011D01*
X36352807Y-127524815D01*
X36285768Y-127544500D01*
X21822514Y-127544500D01*
X21778835Y-127549197D01*
X21727347Y-127560397D01*
X21717149Y-127562890D01*
X21717146Y-127562891D01*
X21636438Y-127605899D01*
X21636435Y-127605901D01*
X21583626Y-127651660D01*
X21565682Y-127669242D01*
X21565676Y-127669249D01*
X21521033Y-127749059D01*
X21521031Y-127749064D01*
X21501348Y-127816096D01*
X21501347Y-127816101D01*
X21501347Y-127816102D01*
X21493024Y-127873992D01*
X21493022Y-127874003D01*
X21493022Y-130126007D01*
X21497719Y-130169686D01*
X21508919Y-130221174D01*
X21511412Y-130231372D01*
X21511413Y-130231375D01*
X21554421Y-130312083D01*
X21554423Y-130312086D01*
X21600182Y-130364895D01*
X21617764Y-130382839D01*
X21617768Y-130382843D01*
X21617769Y-130382844D01*
X21617771Y-130382845D01*
X21697581Y-130427488D01*
X21697585Y-130427490D01*
X21764624Y-130447175D01*
X21822522Y-130455500D01*
X21822526Y-130455500D01*
X33623229Y-130455500D01*
X33623234Y-130455500D01*
X33628745Y-130455426D01*
X33628776Y-130455425D01*
X33628788Y-130455425D01*
X33635373Y-130455249D01*
X33635378Y-130455248D01*
X33635380Y-130455248D01*
X33698231Y-130443618D01*
X33755922Y-130423266D01*
X33825691Y-130419528D01*
X33886406Y-130454103D01*
X33900275Y-130471313D01*
X33909280Y-130484791D01*
X34015205Y-130590716D01*
X34015209Y-130590719D01*
X34139761Y-130673943D01*
X34139767Y-130673946D01*
X34139768Y-130673947D01*
X34278170Y-130731275D01*
X34425092Y-130760499D01*
X34425096Y-130760500D01*
X34425097Y-130760500D01*
X34574904Y-130760500D01*
X34574905Y-130760499D01*
X34721830Y-130731275D01*
X34860232Y-130673947D01*
X34984791Y-130590719D01*
X35090719Y-130484791D01*
X35099098Y-130472250D01*
X35152705Y-130427445D01*
X35222030Y-130418734D01*
X35250247Y-130426824D01*
X35251816Y-130427483D01*
X35251829Y-130427490D01*
X35318868Y-130447175D01*
X35376766Y-130455500D01*
X35376770Y-130455500D01*
X38324513Y-130455500D01*
X38324522Y-130455500D01*
X38368206Y-130450803D01*
X38401243Y-130443616D01*
X38419696Y-130439602D01*
X38419712Y-130439598D01*
X38419717Y-130439597D01*
X38429895Y-130437110D01*
X38510607Y-130394100D01*
X38563411Y-130348345D01*
X38581365Y-130330754D01*
X38626012Y-130250937D01*
X38645697Y-130183898D01*
X38654022Y-130126000D01*
X38654022Y-129925092D01*
X39739500Y-129925092D01*
X39739500Y-130074907D01*
X39768723Y-130221822D01*
X39768725Y-130221830D01*
X39826051Y-130360229D01*
X39826056Y-130360238D01*
X39909280Y-130484790D01*
X39909283Y-130484794D01*
X40015205Y-130590716D01*
X40015209Y-130590719D01*
X40139761Y-130673943D01*
X40139767Y-130673946D01*
X40139768Y-130673947D01*
X40278170Y-130731275D01*
X40425092Y-130760499D01*
X40425096Y-130760500D01*
X40425097Y-130760500D01*
X40574904Y-130760500D01*
X40574905Y-130760499D01*
X40721830Y-130731275D01*
X40860232Y-130673947D01*
X40984791Y-130590719D01*
X41090719Y-130484791D01*
X41173947Y-130360232D01*
X41231275Y-130221830D01*
X41260500Y-130074903D01*
X41260500Y-129925097D01*
X41231275Y-129778170D01*
X41173947Y-129639768D01*
X41173946Y-129639767D01*
X41173943Y-129639761D01*
X41090719Y-129515209D01*
X41090716Y-129515205D01*
X40984794Y-129409283D01*
X40984790Y-129409280D01*
X40860238Y-129326056D01*
X40860229Y-129326051D01*
X40721830Y-129268725D01*
X40721822Y-129268723D01*
X40574907Y-129239500D01*
X40574903Y-129239500D01*
X40425097Y-129239500D01*
X40425092Y-129239500D01*
X40278177Y-129268723D01*
X40278169Y-129268725D01*
X40139770Y-129326051D01*
X40139761Y-129326056D01*
X40015209Y-129409280D01*
X40015205Y-129409283D01*
X39909283Y-129515205D01*
X39909280Y-129515209D01*
X39826056Y-129639761D01*
X39826051Y-129639770D01*
X39768725Y-129778169D01*
X39768723Y-129778177D01*
X39739500Y-129925092D01*
X38654022Y-129925092D01*
X38654022Y-127874000D01*
X38649325Y-127830316D01*
X38645419Y-127812364D01*
X38638124Y-127778825D01*
X38637870Y-127777789D01*
X38635632Y-127768627D01*
X38592622Y-127687915D01*
X38569041Y-127660701D01*
X38540017Y-127597148D01*
X38549960Y-127527989D01*
X38595715Y-127475185D01*
X38662754Y-127455500D01*
X43126000Y-127455500D01*
X43193039Y-127475185D01*
X43238794Y-127527989D01*
X43250000Y-127579500D01*
X43250000Y-133295500D01*
X43230315Y-133362539D01*
X43177511Y-133408294D01*
X43126000Y-133419500D01*
X14504067Y-133419500D01*
X14495957Y-133419235D01*
X14247116Y-133402925D01*
X14231035Y-133400807D01*
X13990464Y-133352954D01*
X13974797Y-133348756D01*
X13742520Y-133269909D01*
X13727534Y-133263702D01*
X13507539Y-133155212D01*
X13493492Y-133147102D01*
X13289539Y-133010825D01*
X13276671Y-133000951D01*
X13092250Y-132839218D01*
X13080781Y-132827749D01*
X12919048Y-132643328D01*
X12909174Y-132630460D01*
X12772897Y-132426507D01*
X12764787Y-132412460D01*
X12712641Y-132306718D01*
X12656294Y-132192458D01*
X12650090Y-132177479D01*
X12571243Y-131945202D01*
X12567045Y-131929535D01*
X12529870Y-131742643D01*
X12519190Y-131688953D01*
X12517075Y-131672895D01*
X12500765Y-131424043D01*
X12500500Y-131415933D01*
X12500500Y-122496405D01*
X21350000Y-122496405D01*
X21350000Y-123244250D01*
X22145879Y-123244250D01*
X22126901Y-123290068D01*
X22100000Y-123425306D01*
X22100000Y-123563194D01*
X22126901Y-123698432D01*
X22145879Y-123744250D01*
X21350000Y-123744250D01*
X21350000Y-124492094D01*
X21356401Y-124551622D01*
X21356403Y-124551629D01*
X21406645Y-124686336D01*
X21406649Y-124686343D01*
X21492809Y-124801437D01*
X21492812Y-124801440D01*
X21607906Y-124887600D01*
X21607913Y-124887604D01*
X21742620Y-124937846D01*
X21742627Y-124937848D01*
X21802155Y-124944249D01*
X21802172Y-124944250D01*
X22550000Y-124944250D01*
X22550000Y-124148370D01*
X22595818Y-124167349D01*
X22731056Y-124194250D01*
X22868944Y-124194250D01*
X23004182Y-124167349D01*
X23050000Y-124148370D01*
X23050000Y-124944250D01*
X23797828Y-124944250D01*
X23797844Y-124944249D01*
X23857372Y-124937848D01*
X23857379Y-124937846D01*
X23992086Y-124887604D01*
X23992093Y-124887600D01*
X24107187Y-124801440D01*
X24107190Y-124801437D01*
X24193350Y-124686343D01*
X24193354Y-124686336D01*
X24229092Y-124590520D01*
X24229092Y-124590519D01*
X24243596Y-124551632D01*
X24243598Y-124551622D01*
X24249999Y-124492094D01*
X24250000Y-124492077D01*
X24250000Y-123744250D01*
X23454121Y-123744250D01*
X23473099Y-123698432D01*
X23500000Y-123563194D01*
X23500000Y-123425306D01*
X23491014Y-123380133D01*
X25550000Y-123380133D01*
X25550000Y-123608366D01*
X25585704Y-123833794D01*
X25656230Y-124050854D01*
X25759851Y-124254219D01*
X25813135Y-124327559D01*
X25813137Y-124327559D01*
X26360690Y-123780006D01*
X26379668Y-123825824D01*
X26456274Y-123940474D01*
X26553776Y-124037976D01*
X26668426Y-124114582D01*
X26714242Y-124133559D01*
X26166688Y-124681112D01*
X26166689Y-124681113D01*
X26240030Y-124734398D01*
X26443395Y-124838019D01*
X26660455Y-124908545D01*
X26885884Y-124944250D01*
X27114116Y-124944250D01*
X27339544Y-124908545D01*
X27556604Y-124838019D01*
X27759966Y-124734400D01*
X27833309Y-124681112D01*
X27833310Y-124681112D01*
X27285757Y-124133559D01*
X27331574Y-124114582D01*
X27446224Y-124037976D01*
X27543726Y-123940474D01*
X27620332Y-123825824D01*
X27639309Y-123780007D01*
X28186862Y-124327560D01*
X28186862Y-124327559D01*
X28240150Y-124254216D01*
X28343769Y-124050854D01*
X28414295Y-123833794D01*
X28450000Y-123608366D01*
X28450000Y-123380133D01*
X28414295Y-123154705D01*
X28343769Y-122937645D01*
X28240148Y-122734280D01*
X28186863Y-122660939D01*
X28186862Y-122660938D01*
X27639309Y-123208491D01*
X27620332Y-123162676D01*
X27543726Y-123048026D01*
X27446224Y-122950524D01*
X27331574Y-122873918D01*
X27285756Y-122854939D01*
X27833309Y-122307387D01*
X27833309Y-122307385D01*
X27759969Y-122254101D01*
X27556604Y-122150480D01*
X27339544Y-122079954D01*
X27114116Y-122044250D01*
X26885884Y-122044250D01*
X26660455Y-122079954D01*
X26443395Y-122150480D01*
X26240035Y-122254098D01*
X26240033Y-122254099D01*
X26166689Y-122307385D01*
X26166689Y-122307386D01*
X26714243Y-122854939D01*
X26668426Y-122873918D01*
X26553776Y-122950524D01*
X26456274Y-123048026D01*
X26379668Y-123162676D01*
X26360690Y-123208493D01*
X25813136Y-122660939D01*
X25813135Y-122660939D01*
X25759849Y-122734283D01*
X25759848Y-122734285D01*
X25656230Y-122937645D01*
X25585704Y-123154705D01*
X25550000Y-123380133D01*
X23491014Y-123380133D01*
X23473099Y-123290068D01*
X23454121Y-123244250D01*
X24250000Y-123244250D01*
X24250000Y-122496422D01*
X24249999Y-122496405D01*
X24243598Y-122436877D01*
X24243596Y-122436870D01*
X24229091Y-122397978D01*
X24193354Y-122302163D01*
X24193350Y-122302156D01*
X24107190Y-122187062D01*
X24107187Y-122187059D01*
X23992093Y-122100899D01*
X23992086Y-122100895D01*
X23857379Y-122050653D01*
X23857372Y-122050651D01*
X23797844Y-122044250D01*
X23050000Y-122044250D01*
X23050000Y-122840129D01*
X23004182Y-122821151D01*
X22868944Y-122794250D01*
X22731056Y-122794250D01*
X22595818Y-122821151D01*
X22550000Y-122840129D01*
X22550000Y-122044250D01*
X21802155Y-122044250D01*
X21742627Y-122050651D01*
X21742620Y-122050653D01*
X21607913Y-122100895D01*
X21607906Y-122100899D01*
X21492812Y-122187059D01*
X21492809Y-122187062D01*
X21406649Y-122302156D01*
X21406645Y-122302163D01*
X21356403Y-122436870D01*
X21356401Y-122436877D01*
X21350000Y-122496405D01*
X12500500Y-122496405D01*
X12500500Y-109447273D01*
X15349500Y-109447273D01*
X15349500Y-109552727D01*
X15376793Y-109654587D01*
X15429520Y-109745913D01*
X15504087Y-109820480D01*
X15595413Y-109873207D01*
X15697273Y-109900500D01*
X15697275Y-109900500D01*
X15802725Y-109900500D01*
X15802727Y-109900500D01*
X15904587Y-109873207D01*
X15995913Y-109820480D01*
X16070480Y-109745913D01*
X16123207Y-109654587D01*
X16150500Y-109552727D01*
X16150500Y-109447273D01*
X21849498Y-109447273D01*
X21849498Y-109552727D01*
X21876791Y-109654587D01*
X21929518Y-109745913D01*
X22004085Y-109820480D01*
X22095411Y-109873207D01*
X22197271Y-109900500D01*
X22197273Y-109900500D01*
X22302723Y-109900500D01*
X22302725Y-109900500D01*
X22404585Y-109873207D01*
X22495911Y-109820480D01*
X22570478Y-109745913D01*
X22623205Y-109654587D01*
X22650498Y-109552727D01*
X22650498Y-109447273D01*
X22623205Y-109345413D01*
X22570478Y-109254087D01*
X22495911Y-109179520D01*
X22404585Y-109126793D01*
X22302725Y-109099500D01*
X22197271Y-109099500D01*
X22095411Y-109126793D01*
X22095408Y-109126794D01*
X22004083Y-109179521D01*
X21929519Y-109254085D01*
X21876792Y-109345410D01*
X21876791Y-109345413D01*
X21849498Y-109447273D01*
X16150500Y-109447273D01*
X16123207Y-109345413D01*
X16070480Y-109254087D01*
X15995913Y-109179520D01*
X15904587Y-109126793D01*
X15802727Y-109099500D01*
X15697273Y-109099500D01*
X15595413Y-109126793D01*
X15595410Y-109126794D01*
X15504085Y-109179521D01*
X15429521Y-109254085D01*
X15376794Y-109345410D01*
X15376793Y-109345413D01*
X15349500Y-109447273D01*
X12500500Y-109447273D01*
X12500500Y-108024500D01*
X12520185Y-107957461D01*
X12572989Y-107911706D01*
X12624500Y-107900500D01*
X12652725Y-107900500D01*
X12652727Y-107900500D01*
X12754587Y-107873207D01*
X12845913Y-107820480D01*
X12920480Y-107745913D01*
X12973207Y-107654587D01*
X13000500Y-107552727D01*
X13000500Y-107447273D01*
X12973207Y-107345413D01*
X12920480Y-107254087D01*
X12845913Y-107179520D01*
X12754587Y-107126793D01*
X12652727Y-107099500D01*
X12624500Y-107099500D01*
X12557461Y-107079815D01*
X12511706Y-107027011D01*
X12500500Y-106975500D01*
X12500500Y-105197273D01*
X15349500Y-105197273D01*
X15349500Y-105302727D01*
X15376793Y-105404587D01*
X15429520Y-105495913D01*
X15504087Y-105570480D01*
X15595413Y-105623207D01*
X15697273Y-105650500D01*
X15697275Y-105650500D01*
X15802725Y-105650500D01*
X15802727Y-105650500D01*
X15904587Y-105623207D01*
X15995913Y-105570480D01*
X16070480Y-105495913D01*
X16123207Y-105404587D01*
X16150500Y-105302727D01*
X16150500Y-105197273D01*
X21849500Y-105197273D01*
X21849500Y-105302727D01*
X21876793Y-105404587D01*
X21929520Y-105495913D01*
X22004087Y-105570480D01*
X22095413Y-105623207D01*
X22197273Y-105650500D01*
X22197275Y-105650500D01*
X22302725Y-105650500D01*
X22302727Y-105650500D01*
X22404587Y-105623207D01*
X22495913Y-105570480D01*
X22570480Y-105495913D01*
X22623207Y-105404587D01*
X22650500Y-105302727D01*
X22650500Y-105197273D01*
X22623207Y-105095413D01*
X22570480Y-105004087D01*
X22495913Y-104929520D01*
X22404587Y-104876793D01*
X22302727Y-104849500D01*
X22197273Y-104849500D01*
X22095413Y-104876793D01*
X22095410Y-104876794D01*
X22004085Y-104929521D01*
X21929521Y-105004085D01*
X21876794Y-105095410D01*
X21876793Y-105095413D01*
X21849500Y-105197273D01*
X16150500Y-105197273D01*
X16123207Y-105095413D01*
X16070480Y-105004087D01*
X15995913Y-104929520D01*
X15904587Y-104876793D01*
X15802727Y-104849500D01*
X15697273Y-104849500D01*
X15595413Y-104876793D01*
X15595410Y-104876794D01*
X15504085Y-104929521D01*
X15429521Y-105004085D01*
X15376794Y-105095410D01*
X15376793Y-105095413D01*
X15349500Y-105197273D01*
X12500500Y-105197273D01*
X12500500Y-104197273D01*
X12849500Y-104197273D01*
X12849500Y-104302727D01*
X12876793Y-104404587D01*
X12929520Y-104495913D01*
X13004087Y-104570480D01*
X13095413Y-104623207D01*
X13197273Y-104650500D01*
X13197275Y-104650500D01*
X13302725Y-104650500D01*
X13302727Y-104650500D01*
X13404587Y-104623207D01*
X13495913Y-104570480D01*
X13570480Y-104495913D01*
X13623207Y-104404587D01*
X13650500Y-104302727D01*
X13650500Y-104197273D01*
X13623207Y-104095413D01*
X13570480Y-104004087D01*
X13495913Y-103929520D01*
X13404587Y-103876793D01*
X13302727Y-103849500D01*
X13197273Y-103849500D01*
X13095413Y-103876793D01*
X13095410Y-103876794D01*
X13004085Y-103929521D01*
X12929521Y-104004085D01*
X12876794Y-104095410D01*
X12876793Y-104095413D01*
X12849500Y-104197273D01*
X12500500Y-104197273D01*
X12500500Y-102197273D01*
X15349500Y-102197273D01*
X15349500Y-102302727D01*
X15376793Y-102404587D01*
X15429520Y-102495913D01*
X15504087Y-102570480D01*
X15595413Y-102623207D01*
X15697273Y-102650500D01*
X15697275Y-102650500D01*
X15802725Y-102650500D01*
X15802727Y-102650500D01*
X15904587Y-102623207D01*
X15995913Y-102570480D01*
X16070480Y-102495913D01*
X16123207Y-102404587D01*
X16150500Y-102302727D01*
X16150500Y-102197273D01*
X21849500Y-102197273D01*
X21849500Y-102302727D01*
X21876793Y-102404587D01*
X21929520Y-102495913D01*
X22004087Y-102570480D01*
X22095413Y-102623207D01*
X22197273Y-102650500D01*
X22197275Y-102650500D01*
X22302725Y-102650500D01*
X22302727Y-102650500D01*
X22404587Y-102623207D01*
X22495913Y-102570480D01*
X22570480Y-102495913D01*
X22623207Y-102404587D01*
X22650500Y-102302727D01*
X22650500Y-102197273D01*
X22623207Y-102095413D01*
X22570480Y-102004087D01*
X22495913Y-101929520D01*
X22404587Y-101876793D01*
X22302727Y-101849500D01*
X22197273Y-101849500D01*
X22095413Y-101876793D01*
X22095410Y-101876794D01*
X22004085Y-101929521D01*
X21929521Y-102004085D01*
X21876794Y-102095410D01*
X21876793Y-102095413D01*
X21849500Y-102197273D01*
X16150500Y-102197273D01*
X16123207Y-102095413D01*
X16070480Y-102004087D01*
X15995913Y-101929520D01*
X15904587Y-101876793D01*
X15802727Y-101849500D01*
X15697273Y-101849500D01*
X15595413Y-101876793D01*
X15595410Y-101876794D01*
X15504085Y-101929521D01*
X15429521Y-102004085D01*
X15376794Y-102095410D01*
X15376793Y-102095413D01*
X15349500Y-102197273D01*
X12500500Y-102197273D01*
X12500500Y-96372273D01*
X18099500Y-96372273D01*
X18099500Y-96477727D01*
X18126793Y-96579587D01*
X18179520Y-96670913D01*
X18254087Y-96745480D01*
X18345413Y-96798207D01*
X18447273Y-96825500D01*
X18447275Y-96825500D01*
X18552725Y-96825500D01*
X18552727Y-96825500D01*
X18654587Y-96798207D01*
X18745913Y-96745480D01*
X18820480Y-96670913D01*
X18873207Y-96579587D01*
X18900500Y-96477727D01*
X18900500Y-96372273D01*
X21849500Y-96372273D01*
X21849500Y-96477727D01*
X21876793Y-96579587D01*
X21929520Y-96670913D01*
X22004087Y-96745480D01*
X22095413Y-96798207D01*
X22197273Y-96825500D01*
X22197275Y-96825500D01*
X22302725Y-96825500D01*
X22302727Y-96825500D01*
X22404587Y-96798207D01*
X22495913Y-96745480D01*
X22570480Y-96670913D01*
X22623207Y-96579587D01*
X22650500Y-96477727D01*
X22650500Y-96372273D01*
X22623207Y-96270413D01*
X22570480Y-96179087D01*
X22495913Y-96104520D01*
X22404587Y-96051793D01*
X22302727Y-96024500D01*
X22197273Y-96024500D01*
X22095413Y-96051793D01*
X22095410Y-96051794D01*
X22004085Y-96104521D01*
X21929521Y-96179085D01*
X21876794Y-96270410D01*
X21876793Y-96270413D01*
X21849500Y-96372273D01*
X18900500Y-96372273D01*
X18873207Y-96270413D01*
X18820480Y-96179087D01*
X18745913Y-96104520D01*
X18654587Y-96051793D01*
X18552727Y-96024500D01*
X18447273Y-96024500D01*
X18345413Y-96051793D01*
X18345410Y-96051794D01*
X18254085Y-96104521D01*
X18179521Y-96179085D01*
X18126794Y-96270410D01*
X18126793Y-96270413D01*
X18099500Y-96372273D01*
X12500500Y-96372273D01*
X12500500Y-91749999D01*
X15150884Y-91749999D01*
X15150885Y-91750000D01*
X16219670Y-91750000D01*
X16199925Y-91769745D01*
X16150556Y-91855255D01*
X16125000Y-91950630D01*
X16125000Y-92049370D01*
X16150556Y-92144745D01*
X16199925Y-92230255D01*
X16219670Y-92250000D01*
X15150885Y-92250000D01*
X15152085Y-92257584D01*
X15205591Y-92422255D01*
X15284195Y-92576524D01*
X15385967Y-92716602D01*
X15508397Y-92839032D01*
X15648475Y-92940804D01*
X15802742Y-93019408D01*
X15967415Y-93072914D01*
X16138429Y-93100000D01*
X16250000Y-93100000D01*
X16250000Y-92280330D01*
X16269745Y-92300075D01*
X16355255Y-92349444D01*
X16450630Y-92375000D01*
X16549370Y-92375000D01*
X16644745Y-92349444D01*
X16730255Y-92300075D01*
X16750000Y-92280330D01*
X16750000Y-93100000D01*
X16861571Y-93100000D01*
X17032584Y-93072914D01*
X17197257Y-93019408D01*
X17351524Y-92940804D01*
X17491602Y-92839032D01*
X17614032Y-92716602D01*
X17715804Y-92576524D01*
X17794408Y-92422255D01*
X17847914Y-92257584D01*
X17849115Y-92250000D01*
X16780330Y-92250000D01*
X16800075Y-92230255D01*
X16849444Y-92144745D01*
X16875000Y-92049370D01*
X16875000Y-91950630D01*
X16849444Y-91855255D01*
X16800075Y-91769745D01*
X16780330Y-91750000D01*
X17849115Y-91750000D01*
X17849115Y-91749999D01*
X17847914Y-91742415D01*
X17794408Y-91577744D01*
X17715804Y-91423475D01*
X17614032Y-91283397D01*
X17491602Y-91160967D01*
X17351524Y-91059195D01*
X17197257Y-90980591D01*
X17032586Y-90927086D01*
X16979250Y-90918638D01*
X16916116Y-90888708D01*
X16879186Y-90829396D01*
X16880184Y-90759533D01*
X16918795Y-90701301D01*
X16974465Y-90674547D01*
X16979328Y-90673580D01*
X17106811Y-90620775D01*
X17221542Y-90544114D01*
X17319114Y-90446542D01*
X17395775Y-90331811D01*
X17395776Y-90331808D01*
X17395778Y-90331805D01*
X17431354Y-90245915D01*
X17438798Y-90227942D01*
X17482638Y-90173539D01*
X17548932Y-90151474D01*
X17616632Y-90168753D01*
X17660744Y-90213392D01*
X17679520Y-90245913D01*
X17754087Y-90320480D01*
X17845413Y-90373207D01*
X17947273Y-90400500D01*
X17947275Y-90400500D01*
X18052725Y-90400500D01*
X18052727Y-90400500D01*
X18154587Y-90373207D01*
X18245913Y-90320480D01*
X18320480Y-90245913D01*
X18373207Y-90154587D01*
X18400500Y-90052727D01*
X18400500Y-89947273D01*
X21599500Y-89947273D01*
X21599500Y-90052727D01*
X21626793Y-90154587D01*
X21679520Y-90245913D01*
X21754087Y-90320480D01*
X21845413Y-90373207D01*
X21947273Y-90400500D01*
X21947275Y-90400500D01*
X22052725Y-90400500D01*
X22052727Y-90400500D01*
X22154587Y-90373207D01*
X22245913Y-90320480D01*
X22320480Y-90245913D01*
X22373207Y-90154587D01*
X22400500Y-90052727D01*
X22400500Y-89947273D01*
X22373207Y-89845413D01*
X22320480Y-89754087D01*
X22245913Y-89679520D01*
X22154587Y-89626793D01*
X22052727Y-89599500D01*
X21947273Y-89599500D01*
X21845413Y-89626793D01*
X21845410Y-89626794D01*
X21754085Y-89679521D01*
X21679521Y-89754085D01*
X21626794Y-89845410D01*
X21626793Y-89845413D01*
X21599500Y-89947273D01*
X18400500Y-89947273D01*
X18373207Y-89845413D01*
X18320480Y-89754087D01*
X18245913Y-89679520D01*
X18154587Y-89626793D01*
X18052727Y-89599500D01*
X17947273Y-89599500D01*
X17845413Y-89626793D01*
X17845410Y-89626794D01*
X17754085Y-89679521D01*
X17679521Y-89754085D01*
X17660745Y-89786606D01*
X17610177Y-89834821D01*
X17541570Y-89848042D01*
X17476706Y-89822073D01*
X17438798Y-89772056D01*
X17395778Y-89668195D01*
X17395771Y-89668182D01*
X17319114Y-89553458D01*
X17319111Y-89553454D01*
X17221545Y-89455888D01*
X17221541Y-89455885D01*
X17106817Y-89379228D01*
X17106804Y-89379221D01*
X16979332Y-89326421D01*
X16979322Y-89326418D01*
X16843995Y-89299500D01*
X16843993Y-89299500D01*
X16156007Y-89299500D01*
X16156005Y-89299500D01*
X16020677Y-89326418D01*
X16020667Y-89326421D01*
X15893195Y-89379221D01*
X15893182Y-89379228D01*
X15778458Y-89455885D01*
X15778454Y-89455888D01*
X15680888Y-89553454D01*
X15680885Y-89553458D01*
X15604228Y-89668182D01*
X15604221Y-89668195D01*
X15551421Y-89795667D01*
X15551418Y-89795677D01*
X15524500Y-89931004D01*
X15524500Y-89931007D01*
X15524500Y-90068993D01*
X15524500Y-90068995D01*
X15524499Y-90068995D01*
X15551418Y-90204322D01*
X15551421Y-90204332D01*
X15604221Y-90331804D01*
X15604228Y-90331817D01*
X15680885Y-90446541D01*
X15680888Y-90446545D01*
X15778454Y-90544111D01*
X15778458Y-90544114D01*
X15893182Y-90620771D01*
X15893195Y-90620778D01*
X16020667Y-90673578D01*
X16020672Y-90673580D01*
X16025532Y-90674546D01*
X16087445Y-90706927D01*
X16122023Y-90767640D01*
X16118289Y-90837410D01*
X16077426Y-90894084D01*
X16020749Y-90918638D01*
X15967413Y-90927086D01*
X15802742Y-90980591D01*
X15648475Y-91059195D01*
X15508397Y-91160967D01*
X15385967Y-91283397D01*
X15284195Y-91423475D01*
X15205591Y-91577744D01*
X15152085Y-91742415D01*
X15150884Y-91749999D01*
X12500500Y-91749999D01*
X12500500Y-88524500D01*
X12520185Y-88457461D01*
X12572989Y-88411706D01*
X12624500Y-88400500D01*
X12652725Y-88400500D01*
X12652727Y-88400500D01*
X12754587Y-88373207D01*
X12845913Y-88320480D01*
X12920480Y-88245913D01*
X12973207Y-88154587D01*
X12996141Y-88068995D01*
X15524499Y-88068995D01*
X15551418Y-88204322D01*
X15551421Y-88204332D01*
X15604221Y-88331804D01*
X15604228Y-88331817D01*
X15680885Y-88446541D01*
X15680888Y-88446545D01*
X15778454Y-88544111D01*
X15778458Y-88544114D01*
X15893182Y-88620771D01*
X15893195Y-88620778D01*
X16020667Y-88673578D01*
X16020672Y-88673580D01*
X16020676Y-88673580D01*
X16020677Y-88673581D01*
X16156004Y-88700500D01*
X16156007Y-88700500D01*
X16843995Y-88700500D01*
X16935041Y-88682389D01*
X16979328Y-88673580D01*
X17106811Y-88620775D01*
X17221542Y-88544114D01*
X17319114Y-88446542D01*
X17395775Y-88331811D01*
X17448580Y-88204328D01*
X17475500Y-88068993D01*
X17475500Y-87931007D01*
X17475500Y-87931004D01*
X17448581Y-87795677D01*
X17448580Y-87795676D01*
X17448580Y-87795672D01*
X17400469Y-87679521D01*
X17395778Y-87668195D01*
X17395771Y-87668182D01*
X17319114Y-87553458D01*
X17319111Y-87553454D01*
X17221545Y-87455888D01*
X17221541Y-87455885D01*
X17106817Y-87379228D01*
X17106804Y-87379221D01*
X16979332Y-87326421D01*
X16979322Y-87326418D01*
X16843995Y-87299500D01*
X16843993Y-87299500D01*
X16156007Y-87299500D01*
X16156005Y-87299500D01*
X16020677Y-87326418D01*
X16020667Y-87326421D01*
X15893195Y-87379221D01*
X15893182Y-87379228D01*
X15778458Y-87455885D01*
X15778454Y-87455888D01*
X15680888Y-87553454D01*
X15680885Y-87553458D01*
X15604228Y-87668182D01*
X15604221Y-87668195D01*
X15551421Y-87795667D01*
X15551418Y-87795677D01*
X15524500Y-87931004D01*
X15524500Y-87931007D01*
X15524500Y-88068993D01*
X15524500Y-88068995D01*
X15524499Y-88068995D01*
X12996141Y-88068995D01*
X13000500Y-88052727D01*
X13000500Y-87947273D01*
X12973207Y-87845413D01*
X12920480Y-87754087D01*
X12845913Y-87679520D01*
X12754587Y-87626793D01*
X12652727Y-87599500D01*
X12624500Y-87599500D01*
X12557461Y-87579815D01*
X12511706Y-87527011D01*
X12500500Y-87475500D01*
X12500500Y-86068995D01*
X15524499Y-86068995D01*
X15551418Y-86204322D01*
X15551421Y-86204332D01*
X15604221Y-86331804D01*
X15604228Y-86331817D01*
X15680885Y-86446541D01*
X15680888Y-86446545D01*
X15778454Y-86544111D01*
X15778458Y-86544114D01*
X15893182Y-86620771D01*
X15893195Y-86620778D01*
X16020667Y-86673578D01*
X16020672Y-86673580D01*
X16020676Y-86673580D01*
X16020677Y-86673581D01*
X16156004Y-86700500D01*
X16156007Y-86700500D01*
X16843995Y-86700500D01*
X16935041Y-86682389D01*
X16979328Y-86673580D01*
X17106811Y-86620775D01*
X17221542Y-86544114D01*
X17319114Y-86446542D01*
X17395775Y-86331811D01*
X17395776Y-86331808D01*
X17395778Y-86331805D01*
X17431354Y-86245915D01*
X17438798Y-86227942D01*
X17482638Y-86173539D01*
X17548932Y-86151474D01*
X17616632Y-86168753D01*
X17660744Y-86213392D01*
X17679520Y-86245913D01*
X17754087Y-86320480D01*
X17845413Y-86373207D01*
X17947273Y-86400500D01*
X17947275Y-86400500D01*
X18052725Y-86400500D01*
X18052727Y-86400500D01*
X18154587Y-86373207D01*
X18245913Y-86320480D01*
X18320480Y-86245913D01*
X18373207Y-86154587D01*
X18400500Y-86052727D01*
X18400500Y-85947273D01*
X22099500Y-85947273D01*
X22099500Y-86052727D01*
X22126793Y-86154587D01*
X22179520Y-86245913D01*
X22254087Y-86320480D01*
X22345413Y-86373207D01*
X22447273Y-86400500D01*
X22447275Y-86400500D01*
X22552725Y-86400500D01*
X22552727Y-86400500D01*
X22654587Y-86373207D01*
X22745913Y-86320480D01*
X22820480Y-86245913D01*
X22873207Y-86154587D01*
X22900500Y-86052727D01*
X22900500Y-85947273D01*
X22873207Y-85845413D01*
X22820480Y-85754087D01*
X22745913Y-85679520D01*
X22654587Y-85626793D01*
X22552727Y-85599500D01*
X22447273Y-85599500D01*
X22345413Y-85626793D01*
X22345410Y-85626794D01*
X22254085Y-85679521D01*
X22179521Y-85754085D01*
X22126794Y-85845410D01*
X22126793Y-85845413D01*
X22099500Y-85947273D01*
X18400500Y-85947273D01*
X18373207Y-85845413D01*
X18320480Y-85754087D01*
X18245913Y-85679520D01*
X18154587Y-85626793D01*
X18052727Y-85599500D01*
X17947273Y-85599500D01*
X17845413Y-85626793D01*
X17845410Y-85626794D01*
X17754085Y-85679521D01*
X17679521Y-85754085D01*
X17660745Y-85786606D01*
X17610177Y-85834821D01*
X17541570Y-85848042D01*
X17476706Y-85822073D01*
X17438798Y-85772056D01*
X17395778Y-85668195D01*
X17395771Y-85668182D01*
X17319114Y-85553458D01*
X17319111Y-85553454D01*
X17221545Y-85455888D01*
X17221541Y-85455885D01*
X17106817Y-85379228D01*
X17106804Y-85379221D01*
X16979332Y-85326421D01*
X16979322Y-85326418D01*
X16843995Y-85299500D01*
X16843993Y-85299500D01*
X16156007Y-85299500D01*
X16156005Y-85299500D01*
X16020677Y-85326418D01*
X16020667Y-85326421D01*
X15893195Y-85379221D01*
X15893182Y-85379228D01*
X15778458Y-85455885D01*
X15778454Y-85455888D01*
X15680888Y-85553454D01*
X15680885Y-85553458D01*
X15604228Y-85668182D01*
X15604221Y-85668195D01*
X15551421Y-85795667D01*
X15551418Y-85795677D01*
X15524500Y-85931004D01*
X15524500Y-85931007D01*
X15524500Y-86068993D01*
X15524500Y-86068995D01*
X15524499Y-86068995D01*
X12500500Y-86068995D01*
X12500500Y-83947273D01*
X12849500Y-83947273D01*
X12849500Y-84052727D01*
X12876793Y-84154587D01*
X12929520Y-84245913D01*
X13004087Y-84320480D01*
X13095413Y-84373207D01*
X13197273Y-84400500D01*
X13197275Y-84400500D01*
X13302725Y-84400500D01*
X13302727Y-84400500D01*
X13404587Y-84373207D01*
X13495913Y-84320480D01*
X13570480Y-84245913D01*
X13623207Y-84154587D01*
X13646141Y-84068995D01*
X15524499Y-84068995D01*
X15551418Y-84204322D01*
X15551421Y-84204332D01*
X15604221Y-84331804D01*
X15604228Y-84331817D01*
X15680885Y-84446541D01*
X15680888Y-84446545D01*
X15778454Y-84544111D01*
X15778458Y-84544114D01*
X15893182Y-84620771D01*
X15893195Y-84620778D01*
X16020667Y-84673578D01*
X16020672Y-84673580D01*
X16020676Y-84673580D01*
X16020677Y-84673581D01*
X16156004Y-84700500D01*
X16156007Y-84700500D01*
X16843995Y-84700500D01*
X16935041Y-84682389D01*
X16979328Y-84673580D01*
X17106811Y-84620775D01*
X17221542Y-84544114D01*
X17319114Y-84446542D01*
X17395775Y-84331811D01*
X17448580Y-84204328D01*
X17475500Y-84068993D01*
X17475500Y-83931007D01*
X17475500Y-83931004D01*
X17448581Y-83795677D01*
X17448580Y-83795676D01*
X17448580Y-83795672D01*
X17400469Y-83679521D01*
X17395778Y-83668195D01*
X17395771Y-83668182D01*
X17319114Y-83553458D01*
X17319111Y-83553454D01*
X17221545Y-83455888D01*
X17221541Y-83455885D01*
X17106817Y-83379228D01*
X17106804Y-83379221D01*
X16979332Y-83326421D01*
X16979322Y-83326418D01*
X16843995Y-83299500D01*
X16843993Y-83299500D01*
X16156007Y-83299500D01*
X16156005Y-83299500D01*
X16020677Y-83326418D01*
X16020667Y-83326421D01*
X15893195Y-83379221D01*
X15893182Y-83379228D01*
X15778458Y-83455885D01*
X15778454Y-83455888D01*
X15680888Y-83553454D01*
X15680885Y-83553458D01*
X15604228Y-83668182D01*
X15604221Y-83668195D01*
X15551421Y-83795667D01*
X15551418Y-83795677D01*
X15524500Y-83931004D01*
X15524500Y-83931007D01*
X15524500Y-84068993D01*
X15524500Y-84068995D01*
X15524499Y-84068995D01*
X13646141Y-84068995D01*
X13650500Y-84052727D01*
X13650500Y-83947273D01*
X13623207Y-83845413D01*
X13570480Y-83754087D01*
X13495913Y-83679520D01*
X13404587Y-83626793D01*
X13302727Y-83599500D01*
X13197273Y-83599500D01*
X13095413Y-83626793D01*
X13095410Y-83626794D01*
X13004085Y-83679521D01*
X12929521Y-83754085D01*
X12876794Y-83845410D01*
X12876793Y-83845413D01*
X12849500Y-83947273D01*
X12500500Y-83947273D01*
X12500500Y-79749999D01*
X15150884Y-79749999D01*
X15150885Y-79750000D01*
X16219670Y-79750000D01*
X16199925Y-79769745D01*
X16150556Y-79855255D01*
X16125000Y-79950630D01*
X16125000Y-80049370D01*
X16150556Y-80144745D01*
X16199925Y-80230255D01*
X16219670Y-80250000D01*
X15150885Y-80250000D01*
X15152085Y-80257584D01*
X15205591Y-80422255D01*
X15284195Y-80576524D01*
X15385967Y-80716602D01*
X15508397Y-80839032D01*
X15648475Y-80940804D01*
X15802742Y-81019408D01*
X15967415Y-81072914D01*
X16020747Y-81081361D01*
X16083882Y-81111290D01*
X16120813Y-81170602D01*
X16119815Y-81240464D01*
X16081205Y-81298697D01*
X16025542Y-81325451D01*
X16020676Y-81326418D01*
X16020667Y-81326421D01*
X15893195Y-81379221D01*
X15893182Y-81379228D01*
X15778458Y-81455885D01*
X15778454Y-81455888D01*
X15680888Y-81553454D01*
X15680885Y-81553458D01*
X15604228Y-81668182D01*
X15604221Y-81668195D01*
X15551421Y-81795667D01*
X15551418Y-81795677D01*
X15524500Y-81931004D01*
X15524500Y-81931007D01*
X15524500Y-82068993D01*
X15524500Y-82068995D01*
X15524499Y-82068995D01*
X15551418Y-82204322D01*
X15551421Y-82204332D01*
X15604221Y-82331804D01*
X15604228Y-82331817D01*
X15680885Y-82446541D01*
X15680888Y-82446545D01*
X15778454Y-82544111D01*
X15778458Y-82544114D01*
X15893182Y-82620771D01*
X15893195Y-82620778D01*
X15954703Y-82646255D01*
X16020672Y-82673580D01*
X16020676Y-82673580D01*
X16020677Y-82673581D01*
X16156004Y-82700500D01*
X16156007Y-82700500D01*
X16843995Y-82700500D01*
X16935041Y-82682389D01*
X16979328Y-82673580D01*
X17106811Y-82620775D01*
X17221542Y-82544114D01*
X17319114Y-82446542D01*
X17395775Y-82331811D01*
X17433024Y-82241882D01*
X17476861Y-82187483D01*
X17543155Y-82165417D01*
X17610855Y-82182695D01*
X17635264Y-82201657D01*
X17649277Y-82215670D01*
X17740603Y-82268397D01*
X17842463Y-82295690D01*
X17842465Y-82295690D01*
X17947915Y-82295690D01*
X17947917Y-82295690D01*
X18049777Y-82268397D01*
X18141103Y-82215670D01*
X18215670Y-82141103D01*
X18268397Y-82049777D01*
X18295690Y-81947917D01*
X18295690Y-81947273D01*
X22099500Y-81947273D01*
X22099500Y-82052727D01*
X22123181Y-82141104D01*
X22126793Y-82154586D01*
X22126794Y-82154589D01*
X22140922Y-82179059D01*
X22179520Y-82245913D01*
X22254087Y-82320480D01*
X22345413Y-82373207D01*
X22447273Y-82400500D01*
X22447275Y-82400500D01*
X22552725Y-82400500D01*
X22552727Y-82400500D01*
X22654587Y-82373207D01*
X22745913Y-82320480D01*
X22820480Y-82245913D01*
X22873207Y-82154587D01*
X22900500Y-82052727D01*
X22900500Y-81947273D01*
X22873207Y-81845413D01*
X22820480Y-81754087D01*
X22745913Y-81679520D01*
X22654587Y-81626793D01*
X22552727Y-81599500D01*
X22447273Y-81599500D01*
X22345413Y-81626793D01*
X22345410Y-81626794D01*
X22254085Y-81679521D01*
X22179521Y-81754085D01*
X22126794Y-81845410D01*
X22126793Y-81845413D01*
X22099500Y-81947273D01*
X18295690Y-81947273D01*
X18295690Y-81842463D01*
X18268397Y-81740603D01*
X18215670Y-81649277D01*
X18141103Y-81574710D01*
X18049777Y-81521983D01*
X17947917Y-81494690D01*
X17842463Y-81494690D01*
X17740603Y-81521983D01*
X17740600Y-81521984D01*
X17649275Y-81574711D01*
X17568963Y-81655024D01*
X17567095Y-81653156D01*
X17521203Y-81686655D01*
X17451456Y-81690798D01*
X17390542Y-81656576D01*
X17376172Y-81638850D01*
X17319114Y-81553458D01*
X17319111Y-81553454D01*
X17221545Y-81455888D01*
X17221541Y-81455885D01*
X17106817Y-81379228D01*
X17106804Y-81379221D01*
X16979332Y-81326421D01*
X16979320Y-81326418D01*
X16974459Y-81325451D01*
X16912548Y-81293066D01*
X16877974Y-81232351D01*
X16881713Y-81162581D01*
X16922580Y-81105909D01*
X16979252Y-81081361D01*
X17032584Y-81072913D01*
X17197257Y-81019408D01*
X17351524Y-80940804D01*
X17491602Y-80839032D01*
X17614032Y-80716602D01*
X17715804Y-80576524D01*
X17794408Y-80422255D01*
X17847914Y-80257584D01*
X17849115Y-80250000D01*
X16780330Y-80250000D01*
X16800075Y-80230255D01*
X16849444Y-80144745D01*
X16875000Y-80049370D01*
X16875000Y-79950630D01*
X16849444Y-79855255D01*
X16800075Y-79769745D01*
X16780330Y-79750000D01*
X17849115Y-79750000D01*
X17849115Y-79749999D01*
X17847914Y-79742415D01*
X17794408Y-79577744D01*
X17715804Y-79423475D01*
X17614032Y-79283397D01*
X17491602Y-79160967D01*
X17351524Y-79059195D01*
X17197255Y-78980591D01*
X17079812Y-78942431D01*
X17022136Y-78902993D01*
X16994938Y-78838635D01*
X17006853Y-78769788D01*
X17054097Y-78718313D01*
X17118130Y-78700500D01*
X17158261Y-78700500D01*
X17180971Y-78697191D01*
X17226393Y-78690573D01*
X17331483Y-78639198D01*
X17414198Y-78556483D01*
X17465573Y-78451393D01*
X17475500Y-78383260D01*
X17475500Y-78341255D01*
X17495185Y-78274216D01*
X17547989Y-78228461D01*
X17617147Y-78218517D01*
X17680703Y-78247542D01*
X17687181Y-78253574D01*
X17754087Y-78320480D01*
X17845413Y-78373207D01*
X17947273Y-78400500D01*
X17947275Y-78400500D01*
X18052725Y-78400500D01*
X18052727Y-78400500D01*
X18154587Y-78373207D01*
X18245913Y-78320480D01*
X18320480Y-78245913D01*
X18373207Y-78154587D01*
X18400500Y-78052727D01*
X18400500Y-77947273D01*
X22099500Y-77947273D01*
X22099500Y-78052727D01*
X22126793Y-78154587D01*
X22179520Y-78245913D01*
X22254087Y-78320480D01*
X22345413Y-78373207D01*
X22447273Y-78400500D01*
X22447275Y-78400500D01*
X22552725Y-78400500D01*
X22552727Y-78400500D01*
X22654587Y-78373207D01*
X22745913Y-78320480D01*
X22820480Y-78245913D01*
X22873207Y-78154587D01*
X22900500Y-78052727D01*
X22900500Y-77947273D01*
X22873207Y-77845413D01*
X22820480Y-77754087D01*
X22745913Y-77679520D01*
X22654587Y-77626793D01*
X22552727Y-77599500D01*
X22447273Y-77599500D01*
X22345413Y-77626793D01*
X22345410Y-77626794D01*
X22254085Y-77679521D01*
X22179521Y-77754085D01*
X22126794Y-77845410D01*
X22126793Y-77845413D01*
X22099500Y-77947273D01*
X18400500Y-77947273D01*
X18373207Y-77845413D01*
X18320480Y-77754087D01*
X18245913Y-77679520D01*
X18154587Y-77626793D01*
X18052727Y-77599500D01*
X17947273Y-77599500D01*
X17845413Y-77626793D01*
X17845410Y-77626794D01*
X17754085Y-77679521D01*
X17687181Y-77746426D01*
X17625858Y-77779911D01*
X17556166Y-77774927D01*
X17500233Y-77733055D01*
X17475816Y-77667591D01*
X17475500Y-77658745D01*
X17475500Y-77616739D01*
X17465573Y-77548608D01*
X17465573Y-77548607D01*
X17414198Y-77443517D01*
X17414196Y-77443515D01*
X17414196Y-77443514D01*
X17331485Y-77360803D01*
X17226391Y-77309426D01*
X17158261Y-77299500D01*
X17158260Y-77299500D01*
X15841740Y-77299500D01*
X15841739Y-77299500D01*
X15773608Y-77309426D01*
X15668514Y-77360803D01*
X15585803Y-77443514D01*
X15534426Y-77548608D01*
X15524500Y-77616739D01*
X15524500Y-78383260D01*
X15534426Y-78451391D01*
X15585803Y-78556485D01*
X15668514Y-78639196D01*
X15668515Y-78639196D01*
X15668517Y-78639198D01*
X15773607Y-78690573D01*
X15807673Y-78695536D01*
X15841739Y-78700500D01*
X15881870Y-78700500D01*
X15948909Y-78720185D01*
X15994664Y-78772989D01*
X16004608Y-78842147D01*
X15975583Y-78905703D01*
X15920188Y-78942431D01*
X15802744Y-78980591D01*
X15648475Y-79059195D01*
X15508397Y-79160967D01*
X15385967Y-79283397D01*
X15284195Y-79423475D01*
X15205591Y-79577744D01*
X15152085Y-79742415D01*
X15150884Y-79749999D01*
X12500500Y-79749999D01*
X12500500Y-74947273D01*
X20349500Y-74947273D01*
X20349500Y-75052727D01*
X20376793Y-75154587D01*
X20429520Y-75245913D01*
X20504087Y-75320480D01*
X20595413Y-75373207D01*
X20697273Y-75400500D01*
X20697275Y-75400500D01*
X20802725Y-75400500D01*
X20802727Y-75400500D01*
X20904587Y-75373207D01*
X20995913Y-75320480D01*
X21070480Y-75245913D01*
X21123207Y-75154587D01*
X21150500Y-75052727D01*
X21150500Y-74947273D01*
X21123207Y-74845413D01*
X21070480Y-74754087D01*
X20995913Y-74679520D01*
X20904587Y-74626793D01*
X20802727Y-74599500D01*
X20697273Y-74599500D01*
X20595413Y-74626793D01*
X20595410Y-74626794D01*
X20504085Y-74679521D01*
X20429521Y-74754085D01*
X20376794Y-74845410D01*
X20376793Y-74845413D01*
X20349500Y-74947273D01*
X12500500Y-74947273D01*
X12500500Y-70406378D01*
X16174500Y-70406378D01*
X16174500Y-70593619D01*
X16211025Y-70777242D01*
X16211027Y-70777250D01*
X16282676Y-70950227D01*
X16282681Y-70950236D01*
X16386697Y-71105906D01*
X16386700Y-71105910D01*
X16519088Y-71238298D01*
X16519092Y-71238301D01*
X16674762Y-71342317D01*
X16674768Y-71342320D01*
X16674769Y-71342321D01*
X16847749Y-71413972D01*
X17031379Y-71450498D01*
X17031383Y-71450499D01*
X17031384Y-71450499D01*
X17468617Y-71450499D01*
X17468618Y-71450498D01*
X17652251Y-71413972D01*
X17825231Y-71342321D01*
X17980908Y-71238301D01*
X18113302Y-71105907D01*
X18217322Y-70950230D01*
X18288973Y-70777250D01*
X18325500Y-70593615D01*
X18325500Y-70406383D01*
X18288973Y-70222748D01*
X18217322Y-70049768D01*
X18217321Y-70049767D01*
X18217318Y-70049761D01*
X18113302Y-69894091D01*
X18113299Y-69894087D01*
X17980911Y-69761699D01*
X17980907Y-69761696D01*
X17825237Y-69657680D01*
X17825228Y-69657675D01*
X17652251Y-69586026D01*
X17652243Y-69586024D01*
X17468620Y-69549499D01*
X17468616Y-69549499D01*
X17031384Y-69549499D01*
X17031379Y-69549499D01*
X16847756Y-69586024D01*
X16847748Y-69586026D01*
X16674771Y-69657675D01*
X16674762Y-69657680D01*
X16519092Y-69761696D01*
X16519088Y-69761699D01*
X16386700Y-69894087D01*
X16386697Y-69894091D01*
X16282681Y-70049761D01*
X16282676Y-70049770D01*
X16211027Y-70222747D01*
X16211025Y-70222755D01*
X16174500Y-70406378D01*
X12500500Y-70406378D01*
X12500500Y-65249999D01*
X15797769Y-65249999D01*
X16845854Y-65249999D01*
X16807370Y-65316656D01*
X16775000Y-65437464D01*
X16775000Y-65562534D01*
X16807370Y-65683342D01*
X16845854Y-65749999D01*
X15797769Y-65749999D01*
X15808242Y-65816125D01*
X15808242Y-65816128D01*
X15873904Y-66018216D01*
X15970379Y-66207556D01*
X16095272Y-66379458D01*
X16095276Y-66379463D01*
X16245535Y-66529722D01*
X16245540Y-66529726D01*
X16417442Y-66654619D01*
X16606782Y-66751094D01*
X16808869Y-66816756D01*
X16808873Y-66816757D01*
X16898316Y-66830923D01*
X16961451Y-66860852D01*
X16998383Y-66920163D01*
X16997385Y-66990026D01*
X16958776Y-67048258D01*
X16903111Y-67075013D01*
X16847754Y-67086024D01*
X16847748Y-67086026D01*
X16674771Y-67157675D01*
X16674762Y-67157680D01*
X16519092Y-67261696D01*
X16519088Y-67261699D01*
X16386700Y-67394087D01*
X16386697Y-67394091D01*
X16282681Y-67549761D01*
X16282676Y-67549770D01*
X16211027Y-67722747D01*
X16211025Y-67722755D01*
X16174500Y-67906378D01*
X16174500Y-68093619D01*
X16211025Y-68277242D01*
X16211027Y-68277250D01*
X16282676Y-68450227D01*
X16282681Y-68450236D01*
X16386697Y-68605906D01*
X16386700Y-68605910D01*
X16519088Y-68738298D01*
X16519092Y-68738301D01*
X16674762Y-68842317D01*
X16674768Y-68842320D01*
X16674769Y-68842321D01*
X16847749Y-68913972D01*
X17031379Y-68950498D01*
X17031383Y-68950499D01*
X17031384Y-68950499D01*
X17468617Y-68950499D01*
X17468618Y-68950498D01*
X17652251Y-68913972D01*
X17825231Y-68842321D01*
X17980908Y-68738301D01*
X18113302Y-68605907D01*
X18217322Y-68450230D01*
X18288973Y-68277250D01*
X18325500Y-68093615D01*
X18325500Y-67906383D01*
X18316422Y-67860745D01*
X18322649Y-67791156D01*
X18350356Y-67748876D01*
X21618713Y-64480520D01*
X21618716Y-64480519D01*
X21730520Y-64368715D01*
X21780639Y-64281903D01*
X21809577Y-64231784D01*
X21850500Y-64079057D01*
X21850500Y-63920942D01*
X21850500Y-63446580D01*
X21870185Y-63379541D01*
X21922989Y-63333786D01*
X21992147Y-63323842D01*
X22036495Y-63339191D01*
X22095413Y-63373207D01*
X22197273Y-63400500D01*
X22197275Y-63400500D01*
X22302725Y-63400500D01*
X22302727Y-63400500D01*
X22404587Y-63373207D01*
X22495913Y-63320480D01*
X22570480Y-63245913D01*
X22623207Y-63154587D01*
X22650500Y-63052727D01*
X22650500Y-62947273D01*
X22623207Y-62845413D01*
X22570480Y-62754087D01*
X22495913Y-62679520D01*
X22404587Y-62626793D01*
X22302727Y-62599500D01*
X22197273Y-62599500D01*
X22095413Y-62626793D01*
X22095410Y-62626794D01*
X22036500Y-62660806D01*
X21968599Y-62677279D01*
X21902572Y-62654426D01*
X21859382Y-62599505D01*
X21850500Y-62553419D01*
X21850500Y-59800096D01*
X21870185Y-59733057D01*
X21886814Y-59712420D01*
X23895378Y-57703856D01*
X25899500Y-57703856D01*
X25899500Y-57714591D01*
X25899500Y-68046144D01*
X25906282Y-68071454D01*
X25923386Y-68135289D01*
X25923387Y-68135290D01*
X25969527Y-68215208D01*
X25969531Y-68215213D01*
X27666637Y-69912319D01*
X27700122Y-69973642D01*
X27695138Y-70043334D01*
X27666637Y-70087681D01*
X26469531Y-71284786D01*
X26469527Y-71284791D01*
X26423387Y-71364709D01*
X26423386Y-71364712D01*
X26399500Y-71453856D01*
X26399500Y-83522857D01*
X26382888Y-83584855D01*
X26376795Y-83595408D01*
X26376793Y-83595413D01*
X26349500Y-83697273D01*
X26349500Y-83802726D01*
X26376794Y-83904589D01*
X26376794Y-83904590D01*
X26382885Y-83915139D01*
X26399500Y-83977142D01*
X26399500Y-87772857D01*
X26382888Y-87834855D01*
X26376795Y-87845408D01*
X26376793Y-87845413D01*
X26349500Y-87947273D01*
X26349500Y-88052727D01*
X26353858Y-88068993D01*
X26376794Y-88154589D01*
X26376794Y-88154590D01*
X26382885Y-88165139D01*
X26399500Y-88227142D01*
X26399500Y-106772857D01*
X26382888Y-106834855D01*
X26376795Y-106845408D01*
X26376793Y-106845413D01*
X26349500Y-106947273D01*
X26349500Y-107052726D01*
X26376794Y-107154589D01*
X26376794Y-107154590D01*
X26382885Y-107165139D01*
X26399500Y-107227142D01*
X26399500Y-111022857D01*
X26382888Y-111084855D01*
X26376795Y-111095408D01*
X26376793Y-111095413D01*
X26349500Y-111197273D01*
X26349500Y-111302727D01*
X26376793Y-111404587D01*
X26429520Y-111495913D01*
X26504087Y-111570480D01*
X26595413Y-111623207D01*
X26697273Y-111650500D01*
X26697275Y-111650500D01*
X26802725Y-111650500D01*
X26802727Y-111650500D01*
X26904587Y-111623207D01*
X26995913Y-111570480D01*
X27070480Y-111495913D01*
X27123207Y-111404587D01*
X27150500Y-111302727D01*
X27150500Y-111197273D01*
X27123207Y-111095413D01*
X27122255Y-111093764D01*
X27117112Y-111084855D01*
X27100500Y-111022857D01*
X27100500Y-108318996D01*
X28049499Y-108318996D01*
X28076418Y-108454322D01*
X28076421Y-108454332D01*
X28129222Y-108581807D01*
X28205887Y-108696545D01*
X32553454Y-113044112D01*
X32668192Y-113120777D01*
X32795667Y-113173578D01*
X32795672Y-113173580D01*
X32795676Y-113173580D01*
X32795677Y-113173581D01*
X32931003Y-113200500D01*
X32931006Y-113200500D01*
X37568995Y-113200500D01*
X37660041Y-113182389D01*
X37704328Y-113173580D01*
X37831811Y-113120775D01*
X37946542Y-113044114D01*
X38044114Y-112946542D01*
X38120775Y-112831811D01*
X38173580Y-112704328D01*
X38200500Y-112568993D01*
X38200500Y-112431007D01*
X38200500Y-112431004D01*
X38173581Y-112295677D01*
X38173580Y-112295676D01*
X38173580Y-112295672D01*
X38173578Y-112295667D01*
X38120778Y-112168195D01*
X38120771Y-112168182D01*
X38044114Y-112053458D01*
X38044111Y-112053454D01*
X37946545Y-111955888D01*
X37946541Y-111955885D01*
X37831817Y-111879228D01*
X37831804Y-111879221D01*
X37704332Y-111826421D01*
X37704322Y-111826418D01*
X37568995Y-111799500D01*
X37568993Y-111799500D01*
X33341519Y-111799500D01*
X33274480Y-111779815D01*
X33253838Y-111763181D01*
X29486819Y-107996162D01*
X29453334Y-107934839D01*
X29450500Y-107908481D01*
X29450500Y-94170943D01*
X29899500Y-94170943D01*
X29899500Y-107579056D01*
X29940423Y-107731783D01*
X29940426Y-107731790D01*
X30019475Y-107868709D01*
X30019478Y-107868713D01*
X30019480Y-107868716D01*
X30131284Y-107980520D01*
X30131286Y-107980521D01*
X30131290Y-107980524D01*
X30268209Y-108059573D01*
X30268216Y-108059577D01*
X30420943Y-108100500D01*
X30579057Y-108100500D01*
X48413331Y-108100500D01*
X48413347Y-108100501D01*
X48420943Y-108100501D01*
X48579054Y-108100501D01*
X48579057Y-108100501D01*
X48731785Y-108059577D01*
X48781904Y-108030639D01*
X48868716Y-107980520D01*
X48980520Y-107868716D01*
X48980520Y-107868714D01*
X48990728Y-107858507D01*
X48990730Y-107858504D01*
X52358506Y-104490728D01*
X52358511Y-104490724D01*
X52368714Y-104480520D01*
X52368716Y-104480520D01*
X52480520Y-104368716D01*
X52559577Y-104231784D01*
X52589534Y-104119981D01*
X52600500Y-104079058D01*
X52600500Y-103920943D01*
X52600500Y-102357972D01*
X81350000Y-102357972D01*
X81350000Y-102692027D01*
X81382742Y-103024474D01*
X81382745Y-103024491D01*
X81447915Y-103352123D01*
X81544890Y-103671808D01*
X81672731Y-103980442D01*
X81672733Y-103980447D01*
X81830199Y-104275045D01*
X81830210Y-104275063D01*
X82015795Y-104552811D01*
X82015805Y-104552825D01*
X82174837Y-104746606D01*
X82174838Y-104746607D01*
X83277060Y-103644384D01*
X83356112Y-103747407D01*
X83527593Y-103918888D01*
X83630613Y-103997938D01*
X82528391Y-105100160D01*
X82528392Y-105100161D01*
X82722174Y-105259194D01*
X82722188Y-105259204D01*
X82999936Y-105444789D01*
X82999954Y-105444800D01*
X83294552Y-105602266D01*
X83294557Y-105602268D01*
X83603191Y-105730109D01*
X83922876Y-105827084D01*
X84250508Y-105892254D01*
X84250525Y-105892257D01*
X84582972Y-105925000D01*
X84917028Y-105925000D01*
X85249474Y-105892257D01*
X85249491Y-105892254D01*
X85577123Y-105827084D01*
X85896808Y-105730109D01*
X86205442Y-105602268D01*
X86205447Y-105602266D01*
X86500045Y-105444800D01*
X86500063Y-105444789D01*
X86777811Y-105259204D01*
X86777825Y-105259194D01*
X86971606Y-105100161D01*
X86971607Y-105100160D01*
X85869385Y-103997938D01*
X85972407Y-103918888D01*
X86143888Y-103747407D01*
X86222938Y-103644385D01*
X87325160Y-104746607D01*
X87325161Y-104746606D01*
X87484194Y-104552825D01*
X87484204Y-104552811D01*
X87669789Y-104275063D01*
X87669800Y-104275045D01*
X87827266Y-103980447D01*
X87827268Y-103980442D01*
X87955109Y-103671808D01*
X88052084Y-103352123D01*
X88117254Y-103024491D01*
X88117257Y-103024474D01*
X88150000Y-102692027D01*
X88150000Y-102357972D01*
X88117257Y-102025525D01*
X88117254Y-102025508D01*
X88052084Y-101697876D01*
X87955109Y-101378191D01*
X87827268Y-101069557D01*
X87827266Y-101069552D01*
X87669800Y-100774954D01*
X87669789Y-100774936D01*
X87484204Y-100497188D01*
X87484194Y-100497174D01*
X87325161Y-100303392D01*
X87325160Y-100303391D01*
X86222938Y-101405613D01*
X86143888Y-101302593D01*
X85972407Y-101131112D01*
X85869385Y-101052060D01*
X86971607Y-99949838D01*
X86971606Y-99949837D01*
X86777825Y-99790805D01*
X86777811Y-99790795D01*
X86500063Y-99605210D01*
X86500045Y-99605199D01*
X86205447Y-99447733D01*
X86205442Y-99447731D01*
X85896808Y-99319890D01*
X85577123Y-99222915D01*
X85249491Y-99157745D01*
X85249474Y-99157742D01*
X84917028Y-99125000D01*
X84582972Y-99125000D01*
X84250525Y-99157742D01*
X84250508Y-99157745D01*
X83922876Y-99222915D01*
X83603191Y-99319890D01*
X83294557Y-99447731D01*
X83294552Y-99447733D01*
X82999954Y-99605199D01*
X82999936Y-99605210D01*
X82722174Y-99790804D01*
X82528392Y-99949837D01*
X82528391Y-99949838D01*
X83630614Y-101052061D01*
X83527593Y-101131112D01*
X83356112Y-101302593D01*
X83277061Y-101405614D01*
X82174838Y-100303391D01*
X82174837Y-100303392D01*
X82015804Y-100497174D01*
X81830210Y-100774936D01*
X81830199Y-100774954D01*
X81672733Y-101069552D01*
X81672731Y-101069557D01*
X81544890Y-101378191D01*
X81447915Y-101697876D01*
X81382745Y-102025508D01*
X81382742Y-102025525D01*
X81350000Y-102357972D01*
X52600500Y-102357972D01*
X52600500Y-95839060D01*
X52600501Y-95839047D01*
X52600501Y-95670944D01*
X52589943Y-95631541D01*
X52559577Y-95518216D01*
X52546701Y-95495914D01*
X52480524Y-95381290D01*
X52480518Y-95381282D01*
X49368718Y-92269483D01*
X49368716Y-92269481D01*
X49231785Y-92190423D01*
X49079057Y-92149499D01*
X48920943Y-92149499D01*
X48806397Y-92180192D01*
X48768214Y-92190423D01*
X48631284Y-92269481D01*
X48631281Y-92269483D01*
X48519483Y-92381281D01*
X48519481Y-92381284D01*
X48440423Y-92518214D01*
X48440423Y-92518215D01*
X48399499Y-92670943D01*
X48399499Y-92670945D01*
X48399499Y-92829054D01*
X48399498Y-92829054D01*
X48399499Y-92829057D01*
X48440423Y-92981785D01*
X48519481Y-93118716D01*
X48519483Y-93118718D01*
X51363181Y-95962416D01*
X51396666Y-96023739D01*
X51399500Y-96050097D01*
X51399500Y-103699903D01*
X51379815Y-103766942D01*
X51363181Y-103787584D01*
X48287584Y-106863181D01*
X48226261Y-106896666D01*
X48199903Y-106899500D01*
X31224500Y-106899500D01*
X31157461Y-106879815D01*
X31111706Y-106827011D01*
X31100500Y-106775500D01*
X31100500Y-103447273D01*
X39349500Y-103447273D01*
X39349500Y-103552726D01*
X39376793Y-103654586D01*
X39376794Y-103654589D01*
X39390922Y-103679059D01*
X39429520Y-103745913D01*
X39504087Y-103820480D01*
X39595413Y-103873207D01*
X39697273Y-103900500D01*
X39697275Y-103900500D01*
X39802725Y-103900500D01*
X39802727Y-103900500D01*
X39904587Y-103873207D01*
X39995913Y-103820480D01*
X40070480Y-103745913D01*
X40123207Y-103654587D01*
X40150500Y-103552727D01*
X40150500Y-103447273D01*
X40123207Y-103345413D01*
X40070480Y-103254087D01*
X39995913Y-103179520D01*
X39904587Y-103126793D01*
X39802727Y-103099500D01*
X39697273Y-103099500D01*
X39595413Y-103126793D01*
X39595410Y-103126794D01*
X39504085Y-103179521D01*
X39429521Y-103254085D01*
X39376794Y-103345410D01*
X39376793Y-103345413D01*
X39349500Y-103447273D01*
X31100500Y-103447273D01*
X31100500Y-99447273D01*
X41099500Y-99447273D01*
X41099500Y-99552727D01*
X41126793Y-99654587D01*
X41179520Y-99745913D01*
X41254087Y-99820480D01*
X41345413Y-99873207D01*
X41447273Y-99900500D01*
X41447275Y-99900500D01*
X41552725Y-99900500D01*
X41552727Y-99900500D01*
X41654587Y-99873207D01*
X41745913Y-99820480D01*
X41820480Y-99745913D01*
X41873207Y-99654587D01*
X41900500Y-99552727D01*
X41900500Y-99447273D01*
X41873207Y-99345413D01*
X41820480Y-99254087D01*
X41745913Y-99179520D01*
X41654587Y-99126793D01*
X41552727Y-99099500D01*
X41447273Y-99099500D01*
X41345413Y-99126793D01*
X41345410Y-99126794D01*
X41254085Y-99179521D01*
X41179521Y-99254085D01*
X41126794Y-99345410D01*
X41126793Y-99345413D01*
X41099500Y-99447273D01*
X31100500Y-99447273D01*
X31100500Y-95947273D01*
X43849500Y-95947273D01*
X43849500Y-96052727D01*
X43876793Y-96154587D01*
X43929520Y-96245913D01*
X44004087Y-96320480D01*
X44095413Y-96373207D01*
X44197273Y-96400500D01*
X44197275Y-96400500D01*
X44302725Y-96400500D01*
X44302727Y-96400500D01*
X44404587Y-96373207D01*
X44495913Y-96320480D01*
X44570480Y-96245913D01*
X44570482Y-96245908D01*
X44575426Y-96239467D01*
X44577502Y-96241060D01*
X44618668Y-96201801D01*
X44687274Y-96188571D01*
X44752142Y-96214532D01*
X44792676Y-96271442D01*
X44799500Y-96312011D01*
X44799500Y-98333522D01*
X44779815Y-98400561D01*
X44759121Y-98423060D01*
X44759834Y-98423773D01*
X44679520Y-98504087D01*
X44626794Y-98595410D01*
X44626793Y-98595413D01*
X44599500Y-98697273D01*
X44599500Y-98802727D01*
X44626793Y-98904587D01*
X44679520Y-98995913D01*
X44754087Y-99070480D01*
X44845413Y-99123207D01*
X44947273Y-99150500D01*
X44947275Y-99150500D01*
X45052725Y-99150500D01*
X45052727Y-99150500D01*
X45154587Y-99123207D01*
X45164865Y-99117273D01*
X45849500Y-99117273D01*
X45849500Y-99222727D01*
X45876793Y-99324587D01*
X45929520Y-99415913D01*
X46004087Y-99490480D01*
X46095413Y-99543207D01*
X46197273Y-99570500D01*
X46197275Y-99570500D01*
X46302725Y-99570500D01*
X46302727Y-99570500D01*
X46404587Y-99543207D01*
X46495913Y-99490480D01*
X46570480Y-99415913D01*
X46623207Y-99324587D01*
X46650500Y-99222727D01*
X46650500Y-99117273D01*
X46969499Y-99117273D01*
X46969499Y-99222727D01*
X46996792Y-99324587D01*
X47049519Y-99415913D01*
X47124086Y-99490480D01*
X47215412Y-99543207D01*
X47317272Y-99570500D01*
X47317274Y-99570500D01*
X47422724Y-99570500D01*
X47422726Y-99570500D01*
X47524586Y-99543207D01*
X47615912Y-99490480D01*
X47690479Y-99415913D01*
X47743206Y-99324587D01*
X47770499Y-99222727D01*
X47770499Y-99117273D01*
X47743206Y-99015413D01*
X47690479Y-98924087D01*
X47615912Y-98849520D01*
X47524586Y-98796793D01*
X47422726Y-98769500D01*
X47317272Y-98769500D01*
X47215412Y-98796793D01*
X47215409Y-98796794D01*
X47124084Y-98849521D01*
X47049520Y-98924085D01*
X46996793Y-99015410D01*
X46996792Y-99015413D01*
X46969499Y-99117273D01*
X46650500Y-99117273D01*
X46623207Y-99015413D01*
X46570480Y-98924087D01*
X46495913Y-98849520D01*
X46404587Y-98796793D01*
X46302727Y-98769500D01*
X46197273Y-98769500D01*
X46095413Y-98796793D01*
X46095410Y-98796794D01*
X46004085Y-98849521D01*
X45929521Y-98924085D01*
X45876794Y-99015410D01*
X45876793Y-99015413D01*
X45849500Y-99117273D01*
X45164865Y-99117273D01*
X45245913Y-99070480D01*
X45320480Y-98995913D01*
X45373207Y-98904587D01*
X45400500Y-98802727D01*
X45400500Y-98697273D01*
X45373207Y-98595413D01*
X45320480Y-98504087D01*
X45245913Y-98429520D01*
X45245912Y-98429519D01*
X45240166Y-98423773D01*
X45241847Y-98422091D01*
X45207803Y-98375448D01*
X45200500Y-98333522D01*
X45200500Y-95666476D01*
X45220185Y-95599437D01*
X45240880Y-95576941D01*
X45240166Y-95576227D01*
X45245913Y-95570480D01*
X45320480Y-95495913D01*
X45373207Y-95404587D01*
X45400500Y-95302727D01*
X45400500Y-95197273D01*
X45373207Y-95095413D01*
X45320480Y-95004087D01*
X45245913Y-94929520D01*
X45154587Y-94876793D01*
X45052727Y-94849500D01*
X44947273Y-94849500D01*
X44845413Y-94876793D01*
X44845410Y-94876794D01*
X44754085Y-94929521D01*
X44679521Y-95004085D01*
X44626794Y-95095410D01*
X44626793Y-95095413D01*
X44599500Y-95197273D01*
X44599500Y-95302726D01*
X44626793Y-95404586D01*
X44626794Y-95404589D01*
X44679521Y-95495914D01*
X44756090Y-95572483D01*
X44756703Y-95572763D01*
X44757301Y-95573694D01*
X44759834Y-95576227D01*
X44759283Y-95576777D01*
X44773677Y-95599176D01*
X44792187Y-95624523D01*
X44793013Y-95629263D01*
X44794477Y-95631541D01*
X44799500Y-95666476D01*
X44799500Y-95687988D01*
X44779815Y-95755027D01*
X44727011Y-95800782D01*
X44657853Y-95810726D01*
X44594297Y-95781701D01*
X44576278Y-95759878D01*
X44575426Y-95760533D01*
X44570480Y-95754087D01*
X44495914Y-95679521D01*
X44495913Y-95679520D01*
X44404587Y-95626793D01*
X44302727Y-95599500D01*
X44197273Y-95599500D01*
X44095413Y-95626793D01*
X44095410Y-95626794D01*
X44004085Y-95679521D01*
X43929521Y-95754085D01*
X43876794Y-95845410D01*
X43876793Y-95845413D01*
X43849500Y-95947273D01*
X31100500Y-95947273D01*
X31100500Y-94170945D01*
X31100500Y-94170943D01*
X31059577Y-94018216D01*
X31059573Y-94018209D01*
X30980524Y-93881290D01*
X30980518Y-93881282D01*
X30868717Y-93769481D01*
X30868709Y-93769475D01*
X30731790Y-93690426D01*
X30731786Y-93690424D01*
X30731784Y-93690423D01*
X30579057Y-93649500D01*
X30420943Y-93649500D01*
X30268216Y-93690423D01*
X30268209Y-93690426D01*
X30131290Y-93769475D01*
X30131282Y-93769481D01*
X30019481Y-93881282D01*
X30019475Y-93881290D01*
X29940426Y-94018209D01*
X29940423Y-94018216D01*
X29899500Y-94170943D01*
X29450500Y-94170943D01*
X29450500Y-93250000D01*
X31500000Y-93250000D01*
X40382245Y-93250000D01*
X40449284Y-93269685D01*
X40469926Y-93286319D01*
X40504087Y-93320480D01*
X40595413Y-93373207D01*
X40697273Y-93400500D01*
X40697275Y-93400500D01*
X40802723Y-93400500D01*
X40802727Y-93400500D01*
X40843910Y-93389465D01*
X40913755Y-93391128D01*
X40971618Y-93430290D01*
X40999123Y-93494518D01*
X41000000Y-93509240D01*
X41000000Y-94500000D01*
X46000000Y-94500000D01*
X46000000Y-87500000D01*
X31500000Y-87500000D01*
X31500000Y-93250000D01*
X29450500Y-93250000D01*
X29450500Y-86447273D01*
X40099500Y-86447273D01*
X40099500Y-86552727D01*
X40126793Y-86654587D01*
X40179520Y-86745913D01*
X40254087Y-86820480D01*
X40345413Y-86873207D01*
X40447273Y-86900500D01*
X40447275Y-86900500D01*
X40552725Y-86900500D01*
X40552727Y-86900500D01*
X40654587Y-86873207D01*
X40745913Y-86820480D01*
X40820480Y-86745913D01*
X40873207Y-86654587D01*
X40900500Y-86552727D01*
X40900500Y-86447273D01*
X40873207Y-86345413D01*
X40820480Y-86254087D01*
X40745913Y-86179520D01*
X40654587Y-86126793D01*
X40552727Y-86099500D01*
X40447273Y-86099500D01*
X40345413Y-86126793D01*
X40345410Y-86126794D01*
X40254085Y-86179521D01*
X40179521Y-86254085D01*
X40126794Y-86345410D01*
X40126793Y-86345413D01*
X40099500Y-86447273D01*
X29450500Y-86447273D01*
X29450500Y-83197273D01*
X36849500Y-83197273D01*
X36849500Y-83302727D01*
X36876793Y-83404587D01*
X36929520Y-83495913D01*
X37004087Y-83570480D01*
X37095413Y-83623207D01*
X37197273Y-83650500D01*
X37197275Y-83650500D01*
X37302725Y-83650500D01*
X37302727Y-83650500D01*
X37404587Y-83623207D01*
X37495913Y-83570480D01*
X37570480Y-83495913D01*
X37623207Y-83404587D01*
X37650500Y-83302727D01*
X37650500Y-83197273D01*
X37623207Y-83095413D01*
X37570480Y-83004087D01*
X37495913Y-82929520D01*
X37404587Y-82876793D01*
X37302727Y-82849500D01*
X37197273Y-82849500D01*
X37095413Y-82876793D01*
X37095410Y-82876794D01*
X37004085Y-82929521D01*
X36929521Y-83004085D01*
X36876794Y-83095410D01*
X36876793Y-83095413D01*
X36849500Y-83197273D01*
X29450500Y-83197273D01*
X29450500Y-82357972D01*
X81350000Y-82357972D01*
X81350000Y-82692027D01*
X81382742Y-83024474D01*
X81382745Y-83024491D01*
X81447915Y-83352123D01*
X81544890Y-83671808D01*
X81672731Y-83980442D01*
X81672733Y-83980447D01*
X81830199Y-84275045D01*
X81830210Y-84275063D01*
X82015795Y-84552811D01*
X82015805Y-84552825D01*
X82174837Y-84746606D01*
X82174838Y-84746607D01*
X83277060Y-83644384D01*
X83356112Y-83747407D01*
X83527593Y-83918888D01*
X83630613Y-83997938D01*
X82528391Y-85100160D01*
X82528392Y-85100161D01*
X82722174Y-85259194D01*
X82722188Y-85259204D01*
X82999936Y-85444789D01*
X82999954Y-85444800D01*
X83294552Y-85602266D01*
X83294557Y-85602268D01*
X83603191Y-85730109D01*
X83922876Y-85827084D01*
X84250508Y-85892254D01*
X84250525Y-85892257D01*
X84582972Y-85925000D01*
X84917028Y-85925000D01*
X85249474Y-85892257D01*
X85249491Y-85892254D01*
X85577123Y-85827084D01*
X85896808Y-85730109D01*
X86205442Y-85602268D01*
X86205447Y-85602266D01*
X86500045Y-85444800D01*
X86500063Y-85444789D01*
X86777811Y-85259204D01*
X86777825Y-85259194D01*
X86971606Y-85100161D01*
X86971607Y-85100160D01*
X85869385Y-83997938D01*
X85972407Y-83918888D01*
X86143888Y-83747407D01*
X86222938Y-83644385D01*
X87325160Y-84746607D01*
X87325161Y-84746606D01*
X87484194Y-84552825D01*
X87484204Y-84552811D01*
X87669789Y-84275063D01*
X87669800Y-84275045D01*
X87827266Y-83980447D01*
X87827268Y-83980442D01*
X87955109Y-83671808D01*
X88052084Y-83352123D01*
X88117254Y-83024491D01*
X88117257Y-83024474D01*
X88150000Y-82692027D01*
X88150000Y-82357972D01*
X88117257Y-82025525D01*
X88117254Y-82025508D01*
X88052084Y-81697876D01*
X87955109Y-81378191D01*
X87827268Y-81069557D01*
X87827266Y-81069552D01*
X87669800Y-80774954D01*
X87669789Y-80774936D01*
X87484204Y-80497188D01*
X87484194Y-80497174D01*
X87325161Y-80303392D01*
X87325160Y-80303391D01*
X86222938Y-81405613D01*
X86143888Y-81302593D01*
X85972407Y-81131112D01*
X85869385Y-81052060D01*
X86971607Y-79949838D01*
X86971606Y-79949837D01*
X86777825Y-79790805D01*
X86777811Y-79790795D01*
X86500063Y-79605210D01*
X86500045Y-79605199D01*
X86205447Y-79447733D01*
X86205442Y-79447731D01*
X85896808Y-79319890D01*
X85577123Y-79222915D01*
X85249491Y-79157745D01*
X85249474Y-79157742D01*
X84917028Y-79125000D01*
X84582972Y-79125000D01*
X84250525Y-79157742D01*
X84250508Y-79157745D01*
X83922876Y-79222915D01*
X83603191Y-79319890D01*
X83294557Y-79447731D01*
X83294552Y-79447733D01*
X82999954Y-79605199D01*
X82999936Y-79605210D01*
X82722174Y-79790804D01*
X82528392Y-79949837D01*
X82528391Y-79949838D01*
X83630614Y-81052061D01*
X83527593Y-81131112D01*
X83356112Y-81302593D01*
X83277061Y-81405614D01*
X82174838Y-80303391D01*
X82174837Y-80303392D01*
X82015804Y-80497174D01*
X81830210Y-80774936D01*
X81830199Y-80774954D01*
X81672733Y-81069552D01*
X81672731Y-81069557D01*
X81544890Y-81378191D01*
X81447915Y-81697876D01*
X81382745Y-82025508D01*
X81382742Y-82025525D01*
X81350000Y-82357972D01*
X29450500Y-82357972D01*
X29450500Y-80697273D01*
X36349500Y-80697273D01*
X36349500Y-80802727D01*
X36376793Y-80904587D01*
X36429520Y-80995913D01*
X36504087Y-81070480D01*
X36595413Y-81123207D01*
X36697273Y-81150500D01*
X36697275Y-81150500D01*
X36802725Y-81150500D01*
X36802727Y-81150500D01*
X36904587Y-81123207D01*
X36995913Y-81070480D01*
X37070480Y-80995913D01*
X37123207Y-80904587D01*
X37150500Y-80802727D01*
X37150500Y-80697273D01*
X37123207Y-80595413D01*
X37070480Y-80504087D01*
X36995913Y-80429520D01*
X36904587Y-80376793D01*
X36802727Y-80349500D01*
X36697273Y-80349500D01*
X36595413Y-80376793D01*
X36595410Y-80376794D01*
X36504085Y-80429521D01*
X36429521Y-80504085D01*
X36376794Y-80595410D01*
X36376793Y-80595413D01*
X36349500Y-80697273D01*
X29450500Y-80697273D01*
X29450500Y-79831004D01*
X29423581Y-79695677D01*
X29423580Y-79695676D01*
X29423580Y-79695672D01*
X29423578Y-79695667D01*
X29370778Y-79568195D01*
X29370771Y-79568182D01*
X29294114Y-79453458D01*
X29294111Y-79453454D01*
X29196545Y-79355888D01*
X29196541Y-79355885D01*
X29101302Y-79292248D01*
X29081816Y-79279228D01*
X29081804Y-79279221D01*
X28954332Y-79226421D01*
X28954322Y-79226418D01*
X28818995Y-79199500D01*
X28818993Y-79199500D01*
X28681007Y-79199500D01*
X28681005Y-79199500D01*
X28545677Y-79226418D01*
X28545667Y-79226421D01*
X28418195Y-79279221D01*
X28418182Y-79279228D01*
X28303458Y-79355885D01*
X28303454Y-79355888D01*
X28205888Y-79453454D01*
X28205885Y-79453458D01*
X28129228Y-79568182D01*
X28129221Y-79568195D01*
X28076421Y-79695667D01*
X28076418Y-79695677D01*
X28049500Y-79831004D01*
X28049500Y-79831007D01*
X28049500Y-100431007D01*
X28049500Y-108181006D01*
X28049500Y-108318994D01*
X28049500Y-108318996D01*
X28049499Y-108318996D01*
X27100500Y-108318996D01*
X27100500Y-107227142D01*
X27117115Y-107165139D01*
X27123205Y-107154590D01*
X27123207Y-107154587D01*
X27150500Y-107052727D01*
X27150500Y-106947273D01*
X27123207Y-106845413D01*
X27122255Y-106843764D01*
X27117112Y-106834855D01*
X27100500Y-106772857D01*
X27100500Y-88227142D01*
X27117115Y-88165139D01*
X27123205Y-88154590D01*
X27123207Y-88154587D01*
X27150500Y-88052727D01*
X27150500Y-87947273D01*
X27123207Y-87845413D01*
X27122255Y-87843764D01*
X27117112Y-87834855D01*
X27100500Y-87772857D01*
X27100500Y-83977142D01*
X27117115Y-83915139D01*
X27123205Y-83904590D01*
X27123207Y-83904587D01*
X27150500Y-83802727D01*
X27150500Y-83697273D01*
X27123207Y-83595413D01*
X27122255Y-83593764D01*
X27117112Y-83584855D01*
X27100500Y-83522857D01*
X27100500Y-79197273D01*
X36349500Y-79197273D01*
X36349500Y-79302727D01*
X36376793Y-79404587D01*
X36429520Y-79495913D01*
X36504087Y-79570480D01*
X36595413Y-79623207D01*
X36697273Y-79650500D01*
X36697275Y-79650500D01*
X36802725Y-79650500D01*
X36802727Y-79650500D01*
X36904587Y-79623207D01*
X36995913Y-79570480D01*
X37070480Y-79495913D01*
X37123207Y-79404587D01*
X37150500Y-79302727D01*
X37150500Y-79197273D01*
X37123207Y-79095413D01*
X37070480Y-79004087D01*
X36995913Y-78929520D01*
X36904587Y-78876793D01*
X36802727Y-78849500D01*
X36697273Y-78849500D01*
X36595413Y-78876793D01*
X36595410Y-78876794D01*
X36504085Y-78929521D01*
X36429521Y-79004085D01*
X36376794Y-79095410D01*
X36376793Y-79095413D01*
X36349500Y-79197273D01*
X27100500Y-79197273D01*
X27100500Y-78197273D01*
X37599500Y-78197273D01*
X37599500Y-78302727D01*
X37626793Y-78404587D01*
X37679520Y-78495913D01*
X37754087Y-78570480D01*
X37845413Y-78623207D01*
X37947273Y-78650500D01*
X37947275Y-78650500D01*
X38052725Y-78650500D01*
X38052727Y-78650500D01*
X38154587Y-78623207D01*
X38245913Y-78570480D01*
X38320480Y-78495913D01*
X38373207Y-78404587D01*
X38400500Y-78302727D01*
X38400500Y-78197273D01*
X43349500Y-78197273D01*
X43349500Y-78302727D01*
X43376793Y-78404587D01*
X43429520Y-78495913D01*
X43504087Y-78570480D01*
X43595413Y-78623207D01*
X43697273Y-78650500D01*
X43697275Y-78650500D01*
X43802725Y-78650500D01*
X43802727Y-78650500D01*
X43904587Y-78623207D01*
X43995913Y-78570480D01*
X44070480Y-78495913D01*
X44123207Y-78404587D01*
X44150500Y-78302727D01*
X44150500Y-78197273D01*
X44123207Y-78095413D01*
X44070480Y-78004087D01*
X43995913Y-77929520D01*
X43904587Y-77876793D01*
X43802727Y-77849500D01*
X43697273Y-77849500D01*
X43595413Y-77876793D01*
X43595410Y-77876794D01*
X43504085Y-77929521D01*
X43429521Y-78004085D01*
X43376794Y-78095410D01*
X43376793Y-78095413D01*
X43349500Y-78197273D01*
X38400500Y-78197273D01*
X38373207Y-78095413D01*
X38320480Y-78004087D01*
X38245913Y-77929520D01*
X38154587Y-77876793D01*
X38052727Y-77849500D01*
X37947273Y-77849500D01*
X37845413Y-77876793D01*
X37845410Y-77876794D01*
X37754085Y-77929521D01*
X37679521Y-78004085D01*
X37626794Y-78095410D01*
X37626793Y-78095413D01*
X37599500Y-78197273D01*
X27100500Y-78197273D01*
X27100500Y-71696543D01*
X27120185Y-71629504D01*
X27136819Y-71608862D01*
X28358862Y-70386819D01*
X28420185Y-70353334D01*
X28446543Y-70350500D01*
X45272858Y-70350500D01*
X45334857Y-70367112D01*
X45345413Y-70373207D01*
X45447273Y-70400500D01*
X45447275Y-70400500D01*
X45552725Y-70400500D01*
X45552727Y-70400500D01*
X45654587Y-70373207D01*
X45745913Y-70320480D01*
X45820480Y-70245913D01*
X45873207Y-70154587D01*
X45900500Y-70052727D01*
X45900500Y-69947273D01*
X45873207Y-69845413D01*
X45820480Y-69754087D01*
X45745913Y-69679520D01*
X45654587Y-69626793D01*
X45552727Y-69599500D01*
X45447273Y-69599500D01*
X45345413Y-69626793D01*
X45345410Y-69626794D01*
X45334858Y-69632887D01*
X45272858Y-69649500D01*
X28446544Y-69649500D01*
X28379505Y-69629815D01*
X28358863Y-69613181D01*
X26636819Y-67891137D01*
X26603334Y-67829814D01*
X26600500Y-67803456D01*
X26600500Y-65828681D01*
X27344739Y-65828681D01*
X27344739Y-66171318D01*
X27383097Y-66511768D01*
X27383099Y-66511780D01*
X27383100Y-66511783D01*
X27392468Y-66552825D01*
X27459341Y-66845816D01*
X27459342Y-66845818D01*
X27572503Y-67169216D01*
X27721161Y-67477907D01*
X27721163Y-67477910D01*
X27903450Y-67768018D01*
X28117073Y-68035893D01*
X28359346Y-68278166D01*
X28627221Y-68491789D01*
X28917329Y-68674076D01*
X29226024Y-68822736D01*
X29549422Y-68935897D01*
X29883456Y-69012139D01*
X29883465Y-69012140D01*
X29883470Y-69012141D01*
X30110436Y-69037713D01*
X30223921Y-69050499D01*
X30223924Y-69050500D01*
X30223927Y-69050500D01*
X30566554Y-69050500D01*
X30566555Y-69050499D01*
X30740550Y-69030895D01*
X30907007Y-69012141D01*
X30907010Y-69012140D01*
X30907022Y-69012139D01*
X31241056Y-68935897D01*
X31564454Y-68822736D01*
X31873149Y-68674076D01*
X32163257Y-68491789D01*
X32431132Y-68278166D01*
X32673405Y-68035893D01*
X32887028Y-67768018D01*
X33069315Y-67477910D01*
X33217975Y-67169215D01*
X33331136Y-66845817D01*
X33407378Y-66511783D01*
X33445739Y-66171312D01*
X33445739Y-65828688D01*
X33445738Y-65828681D01*
X60344739Y-65828681D01*
X60344739Y-66171318D01*
X60383097Y-66511768D01*
X60383099Y-66511780D01*
X60383100Y-66511783D01*
X60392468Y-66552825D01*
X60459341Y-66845816D01*
X60459342Y-66845818D01*
X60572503Y-67169216D01*
X60721161Y-67477907D01*
X60721163Y-67477910D01*
X60903450Y-67768018D01*
X61117073Y-68035893D01*
X61359346Y-68278166D01*
X61627221Y-68491789D01*
X61917329Y-68674076D01*
X62226024Y-68822736D01*
X62549422Y-68935897D01*
X62883456Y-69012139D01*
X62883465Y-69012140D01*
X62883470Y-69012141D01*
X63110436Y-69037713D01*
X63223921Y-69050499D01*
X63223924Y-69050500D01*
X63223927Y-69050500D01*
X63566554Y-69050500D01*
X63566555Y-69050499D01*
X63740550Y-69030895D01*
X63907007Y-69012141D01*
X63907010Y-69012140D01*
X63907022Y-69012139D01*
X64241056Y-68935897D01*
X64564454Y-68822736D01*
X64873149Y-68674076D01*
X65163257Y-68491789D01*
X65431132Y-68278166D01*
X65673405Y-68035893D01*
X65887028Y-67768018D01*
X66069315Y-67477910D01*
X66217975Y-67169215D01*
X66331136Y-66845817D01*
X66407378Y-66511783D01*
X66445739Y-66171312D01*
X66445739Y-65828688D01*
X66428063Y-65671808D01*
X66407380Y-65488231D01*
X66407379Y-65488226D01*
X66407378Y-65488217D01*
X66331136Y-65154183D01*
X66217975Y-64830785D01*
X66069315Y-64522090D01*
X65966193Y-64357972D01*
X81350000Y-64357972D01*
X81350000Y-64692027D01*
X81382742Y-65024474D01*
X81382745Y-65024491D01*
X81447915Y-65352123D01*
X81544890Y-65671808D01*
X81672731Y-65980442D01*
X81672733Y-65980447D01*
X81830199Y-66275045D01*
X81830210Y-66275063D01*
X82015795Y-66552811D01*
X82015805Y-66552825D01*
X82174837Y-66746606D01*
X82174838Y-66746607D01*
X83277060Y-65644384D01*
X83356112Y-65747407D01*
X83527593Y-65918888D01*
X83630613Y-65997938D01*
X82528391Y-67100160D01*
X82528392Y-67100161D01*
X82722174Y-67259194D01*
X82722188Y-67259204D01*
X82999936Y-67444789D01*
X82999954Y-67444800D01*
X83294552Y-67602266D01*
X83294557Y-67602268D01*
X83603191Y-67730109D01*
X83922876Y-67827084D01*
X84250508Y-67892254D01*
X84250525Y-67892257D01*
X84582972Y-67925000D01*
X84917028Y-67925000D01*
X85249474Y-67892257D01*
X85249491Y-67892254D01*
X85577123Y-67827084D01*
X85896808Y-67730109D01*
X86205442Y-67602268D01*
X86205447Y-67602266D01*
X86500045Y-67444800D01*
X86500063Y-67444789D01*
X86777811Y-67259204D01*
X86777825Y-67259194D01*
X86971606Y-67100161D01*
X86971607Y-67100160D01*
X85869385Y-65997938D01*
X85972407Y-65918888D01*
X86143888Y-65747407D01*
X86222938Y-65644385D01*
X87325160Y-66746607D01*
X87325161Y-66746606D01*
X87484194Y-66552825D01*
X87484204Y-66552811D01*
X87669789Y-66275063D01*
X87669800Y-66275045D01*
X87827266Y-65980447D01*
X87827268Y-65980442D01*
X87955109Y-65671808D01*
X88052084Y-65352123D01*
X88117254Y-65024491D01*
X88117257Y-65024474D01*
X88150000Y-64692027D01*
X88150000Y-64357972D01*
X88117257Y-64025525D01*
X88117254Y-64025508D01*
X88052084Y-63697876D01*
X87955109Y-63378191D01*
X87827268Y-63069557D01*
X87827266Y-63069552D01*
X87669800Y-62774954D01*
X87669789Y-62774936D01*
X87484204Y-62497188D01*
X87484194Y-62497174D01*
X87325161Y-62303392D01*
X87325160Y-62303391D01*
X86222938Y-63405613D01*
X86143888Y-63302593D01*
X85972407Y-63131112D01*
X85869385Y-63052060D01*
X86971607Y-61949838D01*
X86971606Y-61949837D01*
X86777825Y-61790805D01*
X86777811Y-61790795D01*
X86500063Y-61605210D01*
X86500045Y-61605199D01*
X86205447Y-61447733D01*
X86205442Y-61447731D01*
X85896808Y-61319890D01*
X85577123Y-61222915D01*
X85249491Y-61157745D01*
X85249474Y-61157742D01*
X84917028Y-61125000D01*
X84582972Y-61125000D01*
X84250525Y-61157742D01*
X84250508Y-61157745D01*
X83922876Y-61222915D01*
X83603191Y-61319890D01*
X83294557Y-61447731D01*
X83294552Y-61447733D01*
X82999954Y-61605199D01*
X82999936Y-61605210D01*
X82722174Y-61790804D01*
X82528392Y-61949837D01*
X82528391Y-61949838D01*
X83630614Y-63052061D01*
X83527593Y-63131112D01*
X83356112Y-63302593D01*
X83277061Y-63405614D01*
X82174838Y-62303391D01*
X82174837Y-62303392D01*
X82015804Y-62497174D01*
X81830210Y-62774936D01*
X81830199Y-62774954D01*
X81672733Y-63069552D01*
X81672731Y-63069557D01*
X81544890Y-63378191D01*
X81447915Y-63697876D01*
X81382745Y-64025508D01*
X81382742Y-64025525D01*
X81350000Y-64357972D01*
X65966193Y-64357972D01*
X65887028Y-64231982D01*
X65673405Y-63964107D01*
X65431132Y-63721834D01*
X65410035Y-63705010D01*
X65363100Y-63667581D01*
X65163257Y-63508211D01*
X64948396Y-63373205D01*
X64873146Y-63325922D01*
X64564455Y-63177264D01*
X64241057Y-63064103D01*
X64241055Y-63064102D01*
X63983263Y-63005262D01*
X63907022Y-62987861D01*
X63907019Y-62987860D01*
X63907007Y-62987858D01*
X63566557Y-62949500D01*
X63566551Y-62949500D01*
X63223927Y-62949500D01*
X63223920Y-62949500D01*
X62883470Y-62987858D01*
X62883456Y-62987861D01*
X62549422Y-63064102D01*
X62549420Y-63064103D01*
X62226022Y-63177264D01*
X61917331Y-63325922D01*
X61627222Y-63508210D01*
X61359346Y-63721833D01*
X61117072Y-63964107D01*
X60903449Y-64231983D01*
X60721161Y-64522092D01*
X60572503Y-64830783D01*
X60459342Y-65154181D01*
X60459341Y-65154183D01*
X60383100Y-65488217D01*
X60383097Y-65488231D01*
X60344739Y-65828681D01*
X33445738Y-65828681D01*
X33428063Y-65671808D01*
X33407380Y-65488231D01*
X33407379Y-65488226D01*
X33407378Y-65488217D01*
X33331136Y-65154183D01*
X33217975Y-64830785D01*
X33069315Y-64522090D01*
X32887028Y-64231982D01*
X32673405Y-63964107D01*
X32431132Y-63721834D01*
X32410035Y-63705010D01*
X32363100Y-63667581D01*
X32163257Y-63508211D01*
X31948396Y-63373205D01*
X31873146Y-63325922D01*
X31564455Y-63177264D01*
X31241057Y-63064103D01*
X31241055Y-63064102D01*
X30983263Y-63005262D01*
X30907022Y-62987861D01*
X30907019Y-62987860D01*
X30907007Y-62987858D01*
X30566557Y-62949500D01*
X30566551Y-62949500D01*
X30223927Y-62949500D01*
X30223920Y-62949500D01*
X29883470Y-62987858D01*
X29883456Y-62987861D01*
X29549422Y-63064102D01*
X29549420Y-63064103D01*
X29226022Y-63177264D01*
X28917331Y-63325922D01*
X28627222Y-63508210D01*
X28359346Y-63721833D01*
X28117072Y-63964107D01*
X27903449Y-64231983D01*
X27721161Y-64522092D01*
X27572503Y-64830783D01*
X27459342Y-65154181D01*
X27459341Y-65154183D01*
X27383100Y-65488217D01*
X27383097Y-65488231D01*
X27344739Y-65828681D01*
X26600500Y-65828681D01*
X26600500Y-62447273D01*
X34849500Y-62447273D01*
X34849500Y-62552727D01*
X34849686Y-62553419D01*
X34876793Y-62654586D01*
X34876794Y-62654589D01*
X34888578Y-62675000D01*
X34929520Y-62745913D01*
X35004087Y-62820480D01*
X35095413Y-62873207D01*
X35197273Y-62900500D01*
X35197275Y-62900500D01*
X35302725Y-62900500D01*
X35302727Y-62900500D01*
X35404587Y-62873207D01*
X35495913Y-62820480D01*
X35570480Y-62745913D01*
X35623207Y-62654587D01*
X35650500Y-62552727D01*
X35650500Y-62447273D01*
X35623207Y-62345413D01*
X35570480Y-62254087D01*
X35495913Y-62179520D01*
X35404587Y-62126793D01*
X35302727Y-62099500D01*
X35197273Y-62099500D01*
X35095413Y-62126793D01*
X35095410Y-62126794D01*
X35004085Y-62179521D01*
X34929521Y-62254085D01*
X34876794Y-62345410D01*
X34876793Y-62345413D01*
X34849500Y-62447273D01*
X26600500Y-62447273D01*
X26600500Y-57946543D01*
X26620185Y-57879504D01*
X26636814Y-57858867D01*
X29837227Y-54658453D01*
X29892817Y-54626360D01*
X29904587Y-54623207D01*
X29995913Y-54570480D01*
X30070480Y-54495913D01*
X30123207Y-54404587D01*
X30150500Y-54302727D01*
X30150500Y-54197273D01*
X30123207Y-54095413D01*
X30122255Y-54093764D01*
X30117112Y-54084855D01*
X30100500Y-54022857D01*
X30100500Y-52357972D01*
X81350000Y-52357972D01*
X81350000Y-52692027D01*
X81382742Y-53024474D01*
X81382745Y-53024491D01*
X81447915Y-53352123D01*
X81544890Y-53671808D01*
X81672731Y-53980442D01*
X81672733Y-53980447D01*
X81830199Y-54275045D01*
X81830210Y-54275063D01*
X82015795Y-54552811D01*
X82015805Y-54552825D01*
X82174837Y-54746606D01*
X82174838Y-54746607D01*
X83277060Y-53644384D01*
X83356112Y-53747407D01*
X83527593Y-53918888D01*
X83630613Y-53997938D01*
X82528391Y-55100160D01*
X82528392Y-55100161D01*
X82722174Y-55259194D01*
X82722188Y-55259204D01*
X82999936Y-55444789D01*
X82999954Y-55444800D01*
X83294552Y-55602266D01*
X83294557Y-55602268D01*
X83603191Y-55730109D01*
X83922876Y-55827084D01*
X84250508Y-55892254D01*
X84250525Y-55892257D01*
X84582972Y-55925000D01*
X84917028Y-55925000D01*
X85249474Y-55892257D01*
X85249491Y-55892254D01*
X85577123Y-55827084D01*
X85896808Y-55730109D01*
X86205442Y-55602268D01*
X86205447Y-55602266D01*
X86500045Y-55444800D01*
X86500063Y-55444789D01*
X86777811Y-55259204D01*
X86777825Y-55259194D01*
X86971606Y-55100161D01*
X86971607Y-55100160D01*
X85869385Y-53997938D01*
X85972407Y-53918888D01*
X86143888Y-53747407D01*
X86222938Y-53644385D01*
X87325160Y-54746607D01*
X87325161Y-54746606D01*
X87484194Y-54552825D01*
X87484204Y-54552811D01*
X87669789Y-54275063D01*
X87669800Y-54275045D01*
X87827266Y-53980447D01*
X87827268Y-53980442D01*
X87955109Y-53671808D01*
X88052084Y-53352123D01*
X88117254Y-53024491D01*
X88117257Y-53024474D01*
X88150000Y-52692027D01*
X88150000Y-52357972D01*
X88117257Y-52025525D01*
X88117254Y-52025508D01*
X88052084Y-51697876D01*
X87955109Y-51378191D01*
X87827268Y-51069557D01*
X87827266Y-51069552D01*
X87669800Y-50774954D01*
X87669789Y-50774936D01*
X87484204Y-50497188D01*
X87484194Y-50497174D01*
X87325161Y-50303392D01*
X87325160Y-50303391D01*
X86222938Y-51405613D01*
X86143888Y-51302593D01*
X85972407Y-51131112D01*
X85869385Y-51052060D01*
X86971607Y-49949838D01*
X86971606Y-49949837D01*
X86777825Y-49790805D01*
X86777811Y-49790795D01*
X86500063Y-49605210D01*
X86500045Y-49605199D01*
X86205447Y-49447733D01*
X86205442Y-49447731D01*
X85896808Y-49319890D01*
X85577123Y-49222915D01*
X85249491Y-49157745D01*
X85249474Y-49157742D01*
X84917028Y-49125000D01*
X84582972Y-49125000D01*
X84250525Y-49157742D01*
X84250508Y-49157745D01*
X83922876Y-49222915D01*
X83603191Y-49319890D01*
X83294557Y-49447731D01*
X83294552Y-49447733D01*
X82999954Y-49605199D01*
X82999936Y-49605210D01*
X82722174Y-49790804D01*
X82528392Y-49949837D01*
X82528391Y-49949838D01*
X83630614Y-51052061D01*
X83527593Y-51131112D01*
X83356112Y-51302593D01*
X83277061Y-51405614D01*
X82174838Y-50303391D01*
X82174837Y-50303392D01*
X82015804Y-50497174D01*
X81830210Y-50774936D01*
X81830199Y-50774954D01*
X81672733Y-51069552D01*
X81672731Y-51069557D01*
X81544890Y-51378191D01*
X81447915Y-51697876D01*
X81382745Y-52025508D01*
X81382742Y-52025525D01*
X81350000Y-52357972D01*
X30100500Y-52357972D01*
X30100500Y-51446580D01*
X30120185Y-51379541D01*
X30172989Y-51333786D01*
X30242147Y-51323842D01*
X30286495Y-51339191D01*
X30345413Y-51373207D01*
X30447273Y-51400500D01*
X30447275Y-51400500D01*
X30552725Y-51400500D01*
X30552727Y-51400500D01*
X30654587Y-51373207D01*
X30745913Y-51320480D01*
X30820480Y-51245913D01*
X30873207Y-51154587D01*
X30900500Y-51052727D01*
X30900500Y-50947273D01*
X30873207Y-50845413D01*
X30820480Y-50754087D01*
X30745913Y-50679520D01*
X30654587Y-50626793D01*
X30552727Y-50599500D01*
X30447273Y-50599500D01*
X30345413Y-50626793D01*
X30345410Y-50626794D01*
X30286500Y-50660806D01*
X30218599Y-50677279D01*
X30152572Y-50654426D01*
X30109382Y-50599505D01*
X30100500Y-50553419D01*
X30100500Y-50227142D01*
X30103366Y-50200634D01*
X30107482Y-50181821D01*
X30123207Y-50154587D01*
X30150500Y-50052727D01*
X30150500Y-49947273D01*
X30123207Y-49845413D01*
X30107562Y-49818316D01*
X30103433Y-49799666D01*
X30104291Y-49787005D01*
X30100500Y-49772857D01*
X30100500Y-46446580D01*
X30120185Y-46379541D01*
X30172989Y-46333786D01*
X30242147Y-46323842D01*
X30286495Y-46339191D01*
X30345413Y-46373207D01*
X30447273Y-46400500D01*
X30447275Y-46400500D01*
X30552725Y-46400500D01*
X30552727Y-46400500D01*
X30654587Y-46373207D01*
X30745913Y-46320480D01*
X30820480Y-46245913D01*
X30873207Y-46154587D01*
X30900500Y-46052727D01*
X30900500Y-45947273D01*
X30873207Y-45845413D01*
X30820480Y-45754087D01*
X30763666Y-45697273D01*
X33349500Y-45697273D01*
X33349500Y-45802727D01*
X33376793Y-45904587D01*
X33429520Y-45995913D01*
X33504087Y-46070480D01*
X33595413Y-46123207D01*
X33697273Y-46150500D01*
X33697275Y-46150500D01*
X33802725Y-46150500D01*
X33802727Y-46150500D01*
X33904587Y-46123207D01*
X33995913Y-46070480D01*
X34070480Y-45995913D01*
X34123207Y-45904587D01*
X34150500Y-45802727D01*
X34150500Y-45697273D01*
X34123207Y-45595413D01*
X34070480Y-45504087D01*
X33995913Y-45429520D01*
X33904587Y-45376793D01*
X33802727Y-45349500D01*
X33697273Y-45349500D01*
X33595413Y-45376793D01*
X33595410Y-45376794D01*
X33504085Y-45429521D01*
X33429521Y-45504085D01*
X33376794Y-45595410D01*
X33376793Y-45595413D01*
X33349500Y-45697273D01*
X30763666Y-45697273D01*
X30745913Y-45679520D01*
X30654587Y-45626793D01*
X30552727Y-45599500D01*
X30447273Y-45599500D01*
X30345413Y-45626793D01*
X30345410Y-45626794D01*
X30286500Y-45660806D01*
X30218599Y-45677279D01*
X30152572Y-45654426D01*
X30109382Y-45599505D01*
X30100500Y-45553419D01*
X30100500Y-45197273D01*
X34849500Y-45197273D01*
X34849500Y-45302727D01*
X34854129Y-45320000D01*
X34876793Y-45404586D01*
X34876794Y-45404589D01*
X34890922Y-45429059D01*
X34929520Y-45495913D01*
X35004087Y-45570480D01*
X35095413Y-45623207D01*
X35197273Y-45650500D01*
X35197275Y-45650500D01*
X35302725Y-45650500D01*
X35302727Y-45650500D01*
X35404587Y-45623207D01*
X35495913Y-45570480D01*
X35570480Y-45495913D01*
X35623207Y-45404587D01*
X35650500Y-45302727D01*
X35650500Y-45197273D01*
X35623207Y-45095413D01*
X35570480Y-45004087D01*
X35495913Y-44929520D01*
X35404587Y-44876793D01*
X35302727Y-44849500D01*
X35197273Y-44849500D01*
X35095413Y-44876793D01*
X35095410Y-44876794D01*
X35004085Y-44929521D01*
X34929521Y-45004085D01*
X34876794Y-45095410D01*
X34876793Y-45095413D01*
X34849500Y-45197273D01*
X30100500Y-45197273D01*
X30100500Y-44196580D01*
X30120185Y-44129541D01*
X30172989Y-44083786D01*
X30242147Y-44073842D01*
X30286495Y-44089191D01*
X30345413Y-44123207D01*
X30447273Y-44150500D01*
X30447275Y-44150500D01*
X30552725Y-44150500D01*
X30552727Y-44150500D01*
X30654587Y-44123207D01*
X30745913Y-44070480D01*
X30820480Y-43995913D01*
X30873207Y-43904587D01*
X30900500Y-43802727D01*
X30900500Y-43697273D01*
X30873207Y-43595413D01*
X30820480Y-43504087D01*
X30763666Y-43447273D01*
X32849500Y-43447273D01*
X32849500Y-43552727D01*
X32876793Y-43654587D01*
X32929520Y-43745913D01*
X33004087Y-43820480D01*
X33095413Y-43873207D01*
X33197273Y-43900500D01*
X33197275Y-43900500D01*
X33302725Y-43900500D01*
X33302727Y-43900500D01*
X33404587Y-43873207D01*
X33495913Y-43820480D01*
X33570480Y-43745913D01*
X33623207Y-43654587D01*
X33650500Y-43552727D01*
X33650500Y-43447273D01*
X33623207Y-43345413D01*
X33570480Y-43254087D01*
X33495913Y-43179520D01*
X33404587Y-43126793D01*
X33302727Y-43099500D01*
X33197273Y-43099500D01*
X33095413Y-43126793D01*
X33095410Y-43126794D01*
X33004085Y-43179521D01*
X32929521Y-43254085D01*
X32876794Y-43345410D01*
X32876793Y-43345413D01*
X32849500Y-43447273D01*
X30763666Y-43447273D01*
X30745913Y-43429520D01*
X30654587Y-43376793D01*
X30552727Y-43349500D01*
X30447273Y-43349500D01*
X30345413Y-43376793D01*
X30345410Y-43376794D01*
X30286500Y-43410806D01*
X30218599Y-43427279D01*
X30152572Y-43404426D01*
X30109382Y-43349505D01*
X30100500Y-43303419D01*
X30100500Y-42696580D01*
X30120185Y-42629541D01*
X30172989Y-42583786D01*
X30242147Y-42573842D01*
X30286495Y-42589191D01*
X30345413Y-42623207D01*
X30447273Y-42650500D01*
X30447275Y-42650500D01*
X30552725Y-42650500D01*
X30552727Y-42650500D01*
X30654587Y-42623207D01*
X30745913Y-42570480D01*
X30820480Y-42495913D01*
X30873207Y-42404587D01*
X30900500Y-42302727D01*
X30900500Y-42197273D01*
X30873207Y-42095413D01*
X30820480Y-42004087D01*
X30745913Y-41929520D01*
X30654587Y-41876793D01*
X30552727Y-41849500D01*
X30447273Y-41849500D01*
X30345413Y-41876793D01*
X30345410Y-41876794D01*
X30286500Y-41910806D01*
X30218599Y-41927279D01*
X30152572Y-41904426D01*
X30109382Y-41849505D01*
X30100500Y-41803419D01*
X30100500Y-40731817D01*
X30120185Y-40664778D01*
X30172989Y-40619023D01*
X30242147Y-40609079D01*
X30286495Y-40624428D01*
X30345413Y-40658444D01*
X30447273Y-40685737D01*
X30447275Y-40685737D01*
X30552725Y-40685737D01*
X30552727Y-40685737D01*
X30654587Y-40658444D01*
X30745913Y-40605717D01*
X30820480Y-40531150D01*
X30873207Y-40439824D01*
X30900500Y-40337964D01*
X30900500Y-40232510D01*
X30873207Y-40130650D01*
X30820480Y-40039324D01*
X30745913Y-39964757D01*
X30654587Y-39912030D01*
X30552727Y-39884737D01*
X30447273Y-39884737D01*
X30345413Y-39912030D01*
X30345410Y-39912031D01*
X30286500Y-39946043D01*
X30218599Y-39962516D01*
X30152572Y-39939663D01*
X30109382Y-39884742D01*
X30100500Y-39838656D01*
X30100500Y-39447273D01*
X34099500Y-39447273D01*
X34099500Y-39552727D01*
X34126793Y-39654587D01*
X34179520Y-39745913D01*
X34254087Y-39820480D01*
X34345413Y-39873207D01*
X34447273Y-39900500D01*
X34447275Y-39900500D01*
X34552725Y-39900500D01*
X34552727Y-39900500D01*
X34654587Y-39873207D01*
X34745913Y-39820480D01*
X34820480Y-39745913D01*
X34873207Y-39654587D01*
X34900500Y-39552727D01*
X34900500Y-39447273D01*
X34873207Y-39345413D01*
X34820480Y-39254087D01*
X34745913Y-39179520D01*
X34654587Y-39126793D01*
X34552727Y-39099500D01*
X34447273Y-39099500D01*
X34345413Y-39126793D01*
X34345410Y-39126794D01*
X34254085Y-39179521D01*
X34179521Y-39254085D01*
X34126794Y-39345410D01*
X34126793Y-39345413D01*
X34099500Y-39447273D01*
X30100500Y-39447273D01*
X30100500Y-37477142D01*
X30117115Y-37415139D01*
X30123205Y-37404590D01*
X30123207Y-37404587D01*
X30150500Y-37302727D01*
X30150500Y-37197273D01*
X30123207Y-37095413D01*
X30122255Y-37093764D01*
X30117112Y-37084855D01*
X30100500Y-37022857D01*
X30100500Y-33447273D01*
X34099500Y-33447273D01*
X34099500Y-33552727D01*
X34126793Y-33654587D01*
X34179520Y-33745913D01*
X34254087Y-33820480D01*
X34345413Y-33873207D01*
X34447273Y-33900500D01*
X34447275Y-33900500D01*
X34552725Y-33900500D01*
X34552727Y-33900500D01*
X34654587Y-33873207D01*
X34745913Y-33820480D01*
X34820480Y-33745913D01*
X34873207Y-33654587D01*
X34900500Y-33552727D01*
X34900500Y-33447273D01*
X34873207Y-33345413D01*
X34820480Y-33254087D01*
X34745913Y-33179520D01*
X34654587Y-33126793D01*
X34552727Y-33099500D01*
X34447273Y-33099500D01*
X34345413Y-33126793D01*
X34345410Y-33126794D01*
X34254085Y-33179521D01*
X34179521Y-33254085D01*
X34126794Y-33345410D01*
X34126793Y-33345413D01*
X34099500Y-33447273D01*
X30100500Y-33447273D01*
X30100500Y-31947273D01*
X34849500Y-31947273D01*
X34849500Y-32052727D01*
X34876793Y-32154587D01*
X34929520Y-32245913D01*
X35004087Y-32320480D01*
X35095413Y-32373207D01*
X35197273Y-32400500D01*
X35197275Y-32400500D01*
X35302725Y-32400500D01*
X35302727Y-32400500D01*
X35404587Y-32373207D01*
X35495913Y-32320480D01*
X35570480Y-32245913D01*
X35623207Y-32154587D01*
X35650500Y-32052727D01*
X35650500Y-31947273D01*
X35623207Y-31845413D01*
X35570480Y-31754087D01*
X35495913Y-31679520D01*
X35404587Y-31626793D01*
X35302727Y-31599500D01*
X35197273Y-31599500D01*
X35095413Y-31626793D01*
X35095410Y-31626794D01*
X35004085Y-31679521D01*
X34929521Y-31754085D01*
X34876794Y-31845410D01*
X34876793Y-31845413D01*
X34849500Y-31947273D01*
X30100500Y-31947273D01*
X30100500Y-30196544D01*
X30120185Y-30129505D01*
X30136819Y-30108863D01*
X30858863Y-29386819D01*
X30920186Y-29353334D01*
X30946544Y-29350500D01*
X79522858Y-29350500D01*
X79584857Y-29367112D01*
X79595413Y-29373207D01*
X79697273Y-29400500D01*
X79697275Y-29400500D01*
X79802725Y-29400500D01*
X79802727Y-29400500D01*
X79904587Y-29373207D01*
X79915142Y-29367112D01*
X79977142Y-29350500D01*
X89022858Y-29350500D01*
X89084857Y-29367112D01*
X89095413Y-29373207D01*
X89197273Y-29400500D01*
X89197275Y-29400500D01*
X89302725Y-29400500D01*
X89302727Y-29400500D01*
X89404587Y-29373207D01*
X89495913Y-29320480D01*
X89570480Y-29245913D01*
X89623207Y-29154587D01*
X89650500Y-29052727D01*
X89650500Y-28947273D01*
X89623207Y-28845413D01*
X89570480Y-28754087D01*
X89495913Y-28679520D01*
X89404587Y-28626793D01*
X89302727Y-28599500D01*
X89197273Y-28599500D01*
X89095413Y-28626793D01*
X89095410Y-28626794D01*
X89084858Y-28632887D01*
X89022858Y-28649500D01*
X79977142Y-28649500D01*
X79915142Y-28632887D01*
X79904589Y-28626794D01*
X79904588Y-28626793D01*
X79904587Y-28626793D01*
X79802727Y-28599500D01*
X79697273Y-28599500D01*
X79595413Y-28626793D01*
X79595410Y-28626794D01*
X79584858Y-28632887D01*
X79522858Y-28649500D01*
X30703856Y-28649500D01*
X30614712Y-28673386D01*
X30614709Y-28673387D01*
X30534791Y-28719527D01*
X30534786Y-28719531D01*
X29469531Y-29784786D01*
X29469527Y-29784791D01*
X29443716Y-29829499D01*
X29443716Y-29829500D01*
X29423386Y-29864710D01*
X29399500Y-29953856D01*
X29399500Y-33803419D01*
X29379815Y-33870458D01*
X29327011Y-33916213D01*
X29257853Y-33926157D01*
X29213500Y-33910806D01*
X29154589Y-33876794D01*
X29154588Y-33876793D01*
X29154587Y-33876793D01*
X29052727Y-33849500D01*
X28947273Y-33849500D01*
X28845413Y-33876793D01*
X28845410Y-33876794D01*
X28754085Y-33929521D01*
X28679521Y-34004085D01*
X28626794Y-34095410D01*
X28626793Y-34095413D01*
X28599500Y-34197273D01*
X28599500Y-34302727D01*
X28626793Y-34404587D01*
X28679520Y-34495913D01*
X28754087Y-34570480D01*
X28845413Y-34623207D01*
X28947273Y-34650500D01*
X28947275Y-34650500D01*
X29052725Y-34650500D01*
X29052727Y-34650500D01*
X29154587Y-34623207D01*
X29213502Y-34589192D01*
X29281399Y-34572720D01*
X29347426Y-34595572D01*
X29390617Y-34650493D01*
X29399500Y-34696580D01*
X29399500Y-37022857D01*
X29382888Y-37084855D01*
X29376795Y-37095408D01*
X29376793Y-37095413D01*
X29349500Y-37197273D01*
X29349500Y-37302727D01*
X29364223Y-37357676D01*
X29376794Y-37404589D01*
X29376794Y-37404590D01*
X29382885Y-37415139D01*
X29399500Y-37477142D01*
X29399500Y-49772857D01*
X29382888Y-49834855D01*
X29376795Y-49845408D01*
X29376793Y-49845413D01*
X29349500Y-49947273D01*
X29349500Y-50052726D01*
X29376794Y-50154589D01*
X29376794Y-50154590D01*
X29382885Y-50165139D01*
X29399500Y-50227142D01*
X29399500Y-54022857D01*
X29397872Y-54031036D01*
X29398789Y-54036114D01*
X29393853Y-54051243D01*
X29390060Y-54070312D01*
X29386949Y-54077821D01*
X29376793Y-54095413D01*
X29371536Y-54115029D01*
X29368423Y-54122546D01*
X29355538Y-54138533D01*
X29341544Y-54162772D01*
X25969531Y-57534786D01*
X25969529Y-57534789D01*
X25939068Y-57587549D01*
X25939067Y-57587552D01*
X25932169Y-57599500D01*
X25923386Y-57614712D01*
X25899500Y-57703856D01*
X23895378Y-57703856D01*
X26618713Y-54980521D01*
X26618716Y-54980520D01*
X26730520Y-54868716D01*
X26780639Y-54781904D01*
X26809577Y-54731785D01*
X26850501Y-54579057D01*
X26850501Y-54420943D01*
X26850501Y-54413348D01*
X26850500Y-54413330D01*
X26850500Y-49170945D01*
X26850500Y-49170943D01*
X26809577Y-49018216D01*
X26809573Y-49018209D01*
X26730524Y-48881290D01*
X26730518Y-48881282D01*
X26618717Y-48769481D01*
X26618709Y-48769475D01*
X26481790Y-48690426D01*
X26481786Y-48690424D01*
X26481784Y-48690423D01*
X26329057Y-48649500D01*
X26170943Y-48649500D01*
X26018216Y-48690423D01*
X26018209Y-48690426D01*
X25881290Y-48769475D01*
X25881282Y-48769481D01*
X25769481Y-48881282D01*
X25769475Y-48881290D01*
X25690426Y-49018209D01*
X25690423Y-49018216D01*
X25649500Y-49170943D01*
X25649500Y-54199902D01*
X25629815Y-54266941D01*
X25613181Y-54287583D01*
X20769481Y-59131282D01*
X20769479Y-59131285D01*
X20719361Y-59218094D01*
X20719359Y-59218096D01*
X20690425Y-59268209D01*
X20690424Y-59268210D01*
X20690423Y-59268215D01*
X20649499Y-59420943D01*
X20649499Y-59420945D01*
X20649499Y-59589046D01*
X20649500Y-59589059D01*
X20649500Y-63699902D01*
X20629815Y-63766941D01*
X20613181Y-63787583D01*
X18687084Y-65713680D01*
X18625761Y-65747165D01*
X18599403Y-65749999D01*
X17654146Y-65749999D01*
X17692630Y-65683342D01*
X17725000Y-65562534D01*
X17725000Y-65437464D01*
X17692630Y-65316656D01*
X17654146Y-65249999D01*
X18702231Y-65249999D01*
X18691757Y-65183872D01*
X18691757Y-65183869D01*
X18626095Y-64981781D01*
X18529620Y-64792441D01*
X18404727Y-64620539D01*
X18404723Y-64620534D01*
X18254464Y-64470275D01*
X18254459Y-64470271D01*
X18082557Y-64345378D01*
X17893217Y-64248903D01*
X17691128Y-64183241D01*
X17601682Y-64169074D01*
X17538547Y-64139145D01*
X17501616Y-64079833D01*
X17502614Y-64009970D01*
X17541224Y-63951738D01*
X17596886Y-63924984D01*
X17652251Y-63913972D01*
X17825231Y-63842321D01*
X17980908Y-63738301D01*
X18113302Y-63605907D01*
X18217322Y-63450230D01*
X18288973Y-63277250D01*
X18325500Y-63093615D01*
X18325500Y-62906383D01*
X18288973Y-62722748D01*
X18217322Y-62549768D01*
X18217321Y-62549767D01*
X18217318Y-62549761D01*
X18113302Y-62394091D01*
X18113299Y-62394087D01*
X17980911Y-62261699D01*
X17980907Y-62261696D01*
X17825237Y-62157680D01*
X17825228Y-62157675D01*
X17652251Y-62086026D01*
X17652243Y-62086024D01*
X17468620Y-62049499D01*
X17468616Y-62049499D01*
X17031384Y-62049499D01*
X17031379Y-62049499D01*
X16847756Y-62086024D01*
X16847748Y-62086026D01*
X16674771Y-62157675D01*
X16674762Y-62157680D01*
X16519092Y-62261696D01*
X16519088Y-62261699D01*
X16386700Y-62394087D01*
X16386697Y-62394091D01*
X16282681Y-62549761D01*
X16282676Y-62549770D01*
X16211027Y-62722747D01*
X16211025Y-62722755D01*
X16174500Y-62906378D01*
X16174500Y-63093619D01*
X16211025Y-63277242D01*
X16211027Y-63277250D01*
X16282676Y-63450227D01*
X16282681Y-63450236D01*
X16386697Y-63605906D01*
X16386700Y-63605910D01*
X16519088Y-63738298D01*
X16519092Y-63738301D01*
X16674762Y-63842317D01*
X16674768Y-63842320D01*
X16674769Y-63842321D01*
X16847749Y-63913972D01*
X16903111Y-63924984D01*
X16965021Y-63957368D01*
X16999595Y-64018083D01*
X16995856Y-64087853D01*
X16954990Y-64144525D01*
X16898317Y-64169074D01*
X16808872Y-64183241D01*
X16808869Y-64183241D01*
X16606782Y-64248903D01*
X16417442Y-64345378D01*
X16245540Y-64470271D01*
X16245535Y-64470275D01*
X16095276Y-64620534D01*
X16095272Y-64620539D01*
X15970379Y-64792441D01*
X15873904Y-64981781D01*
X15808242Y-65183869D01*
X15808242Y-65183872D01*
X15797769Y-65249999D01*
X12500500Y-65249999D01*
X12500500Y-61009374D01*
X12520185Y-60942335D01*
X12572989Y-60896580D01*
X12642147Y-60886636D01*
X12656571Y-60889594D01*
X12697273Y-60900500D01*
X12697277Y-60900500D01*
X12802725Y-60900500D01*
X12802727Y-60900500D01*
X12904587Y-60873207D01*
X12995913Y-60820480D01*
X13070480Y-60745913D01*
X13123207Y-60654587D01*
X13150500Y-60552727D01*
X13150500Y-60447273D01*
X13139542Y-60406378D01*
X16174500Y-60406378D01*
X16174500Y-60593619D01*
X16211025Y-60777242D01*
X16211027Y-60777250D01*
X16282676Y-60950227D01*
X16282681Y-60950236D01*
X16386697Y-61105906D01*
X16386700Y-61105910D01*
X16519088Y-61238298D01*
X16519092Y-61238301D01*
X16674762Y-61342317D01*
X16674768Y-61342320D01*
X16674769Y-61342321D01*
X16847749Y-61413972D01*
X17017468Y-61447731D01*
X17031379Y-61450498D01*
X17031383Y-61450499D01*
X17031384Y-61450499D01*
X17468617Y-61450499D01*
X17468618Y-61450498D01*
X17652251Y-61413972D01*
X17825231Y-61342321D01*
X17980908Y-61238301D01*
X18113302Y-61105907D01*
X18217322Y-60950230D01*
X18288973Y-60777250D01*
X18325500Y-60593615D01*
X18325500Y-60406383D01*
X18288973Y-60222748D01*
X18217322Y-60049768D01*
X18217321Y-60049767D01*
X18217318Y-60049761D01*
X18113302Y-59894091D01*
X18113299Y-59894087D01*
X17980911Y-59761699D01*
X17980907Y-59761696D01*
X17825237Y-59657680D01*
X17825228Y-59657675D01*
X17652251Y-59586026D01*
X17652243Y-59586024D01*
X17468620Y-59549499D01*
X17468616Y-59549499D01*
X17031384Y-59549499D01*
X17031379Y-59549499D01*
X16847756Y-59586024D01*
X16847748Y-59586026D01*
X16674771Y-59657675D01*
X16674762Y-59657680D01*
X16519092Y-59761696D01*
X16519088Y-59761699D01*
X16386700Y-59894087D01*
X16386697Y-59894091D01*
X16282681Y-60049761D01*
X16282676Y-60049770D01*
X16211027Y-60222747D01*
X16211025Y-60222755D01*
X16174500Y-60406378D01*
X13139542Y-60406378D01*
X13123207Y-60345413D01*
X13070480Y-60254087D01*
X12995913Y-60179520D01*
X12904587Y-60126793D01*
X12802727Y-60099500D01*
X12697273Y-60099500D01*
X12697271Y-60099500D01*
X12656592Y-60110400D01*
X12586742Y-60108737D01*
X12528880Y-60069574D01*
X12501377Y-60005345D01*
X12500500Y-59990625D01*
X12500500Y-57947273D01*
X13849500Y-57947273D01*
X13849500Y-58052727D01*
X13876793Y-58154587D01*
X13929520Y-58245913D01*
X14004087Y-58320480D01*
X14095413Y-58373207D01*
X14197273Y-58400500D01*
X14197275Y-58400500D01*
X14302725Y-58400500D01*
X14302727Y-58400500D01*
X14404587Y-58373207D01*
X14495913Y-58320480D01*
X14570480Y-58245913D01*
X14623207Y-58154587D01*
X14650500Y-58052727D01*
X14650500Y-57947273D01*
X14623207Y-57845413D01*
X14570480Y-57754087D01*
X14495913Y-57679520D01*
X14404587Y-57626793D01*
X14302727Y-57599500D01*
X14197273Y-57599500D01*
X14095413Y-57626793D01*
X14095410Y-57626794D01*
X14004085Y-57679521D01*
X13929521Y-57754085D01*
X13876794Y-57845410D01*
X13876793Y-57845413D01*
X13849500Y-57947273D01*
X12500500Y-57947273D01*
X12500500Y-57366738D01*
X16174500Y-57366738D01*
X16174500Y-58633259D01*
X16184426Y-58701390D01*
X16235803Y-58806484D01*
X16318514Y-58889195D01*
X16318515Y-58889195D01*
X16318517Y-58889197D01*
X16423607Y-58940572D01*
X16457673Y-58945535D01*
X16491739Y-58950499D01*
X16491740Y-58950499D01*
X18008261Y-58950499D01*
X18030971Y-58947190D01*
X18076393Y-58940572D01*
X18181483Y-58889197D01*
X18264198Y-58806482D01*
X18315573Y-58701392D01*
X18325500Y-58633259D01*
X18325500Y-57366739D01*
X18315573Y-57298606D01*
X18264198Y-57193516D01*
X18264196Y-57193514D01*
X18264196Y-57193513D01*
X18181485Y-57110802D01*
X18076391Y-57059425D01*
X18008261Y-57049499D01*
X18008260Y-57049499D01*
X16491740Y-57049499D01*
X16491739Y-57049499D01*
X16423608Y-57059425D01*
X16318514Y-57110802D01*
X16235803Y-57193513D01*
X16184426Y-57298607D01*
X16174500Y-57366738D01*
X12500500Y-57366738D01*
X12500500Y-53447273D01*
X24599500Y-53447273D01*
X24599500Y-53552726D01*
X24626793Y-53654586D01*
X24626794Y-53654589D01*
X24640922Y-53679059D01*
X24679520Y-53745913D01*
X24754087Y-53820480D01*
X24845413Y-53873207D01*
X24947273Y-53900500D01*
X24947275Y-53900500D01*
X25052725Y-53900500D01*
X25052727Y-53900500D01*
X25154587Y-53873207D01*
X25245913Y-53820480D01*
X25320480Y-53745913D01*
X25373207Y-53654587D01*
X25400500Y-53552727D01*
X25400500Y-53447273D01*
X25373207Y-53345413D01*
X25320480Y-53254087D01*
X25245913Y-53179520D01*
X25154587Y-53126793D01*
X25052727Y-53099500D01*
X24947273Y-53099500D01*
X24845413Y-53126793D01*
X24845410Y-53126794D01*
X24754085Y-53179521D01*
X24679521Y-53254085D01*
X24626794Y-53345410D01*
X24626793Y-53345413D01*
X24599500Y-53447273D01*
X12500500Y-53447273D01*
X12500500Y-45713753D01*
X15610000Y-45713753D01*
X15610000Y-45926246D01*
X15643242Y-46136127D01*
X15643242Y-46136130D01*
X15708904Y-46338217D01*
X15805375Y-46527550D01*
X15844728Y-46581716D01*
X15885729Y-46584943D01*
X15951017Y-46609827D01*
X15992488Y-46666058D01*
X16000000Y-46708561D01*
X16000000Y-47471437D01*
X15980315Y-47538476D01*
X15927511Y-47584231D01*
X15885730Y-47595055D01*
X15844727Y-47598282D01*
X15805380Y-47652439D01*
X15708904Y-47841782D01*
X15643242Y-48043869D01*
X15643242Y-48043872D01*
X15610000Y-48253753D01*
X15610000Y-48466246D01*
X15643242Y-48676127D01*
X15643242Y-48676130D01*
X15708904Y-48878217D01*
X15805375Y-49067550D01*
X15844728Y-49121716D01*
X15885729Y-49124943D01*
X15951017Y-49149827D01*
X15992488Y-49206058D01*
X16000000Y-49248561D01*
X16000000Y-49500000D01*
X16193977Y-49500000D01*
X16250272Y-49513515D01*
X16441782Y-49611095D01*
X16643870Y-49676757D01*
X16853754Y-49710000D01*
X17066246Y-49710000D01*
X17276127Y-49676757D01*
X17276130Y-49676757D01*
X17478217Y-49611095D01*
X17669728Y-49513515D01*
X17726023Y-49500000D01*
X18733977Y-49500000D01*
X18790272Y-49513515D01*
X18981782Y-49611095D01*
X19183870Y-49676757D01*
X19393754Y-49710000D01*
X19606246Y-49710000D01*
X19816127Y-49676757D01*
X19816130Y-49676757D01*
X20018217Y-49611095D01*
X20209728Y-49513515D01*
X20266023Y-49500000D01*
X20500000Y-49500000D01*
X20500000Y-49245413D01*
X20519685Y-49178374D01*
X20572489Y-49132619D01*
X20614273Y-49121795D01*
X20615271Y-49121716D01*
X20654622Y-49067554D01*
X20751095Y-48878217D01*
X20816757Y-48676130D01*
X20816757Y-48676127D01*
X20850000Y-48466246D01*
X20850000Y-48253753D01*
X20816757Y-48043872D01*
X20816757Y-48043869D01*
X20751095Y-47841782D01*
X20654623Y-47652447D01*
X20654622Y-47652445D01*
X20615270Y-47598281D01*
X20614271Y-47598203D01*
X20548982Y-47573319D01*
X20507512Y-47517088D01*
X20500000Y-47474585D01*
X20500000Y-46705413D01*
X20519685Y-46638374D01*
X20572489Y-46592619D01*
X20614273Y-46581795D01*
X20615271Y-46581716D01*
X20654622Y-46527554D01*
X20751095Y-46338217D01*
X20816757Y-46136130D01*
X20816757Y-46136127D01*
X20850000Y-45926246D01*
X20850000Y-45713753D01*
X20816757Y-45503872D01*
X20816757Y-45503869D01*
X20751095Y-45301782D01*
X20654623Y-45112447D01*
X20654622Y-45112445D01*
X20615270Y-45058281D01*
X20614271Y-45058203D01*
X20548982Y-45033319D01*
X20507512Y-44977088D01*
X20500000Y-44934585D01*
X20500000Y-44750000D01*
X20364320Y-44750000D01*
X20345290Y-44744412D01*
X20325468Y-44743756D01*
X20301858Y-44731659D01*
X20297281Y-44730315D01*
X20293866Y-44728040D01*
X20183793Y-44652040D01*
X20166792Y-44631055D01*
X20147157Y-44612512D01*
X20145126Y-44604314D01*
X20139810Y-44597752D01*
X20136852Y-44570904D01*
X20130361Y-44544692D01*
X20133084Y-44536698D01*
X20132160Y-44528302D01*
X20144186Y-44504119D01*
X20152897Y-44478556D01*
X20159929Y-44472462D01*
X20163272Y-44465741D01*
X20177457Y-44457273D01*
X20197954Y-44439514D01*
X20207554Y-44434622D01*
X20261716Y-44395270D01*
X20261717Y-44395270D01*
X19629408Y-43762962D01*
X19692993Y-43745925D01*
X19807007Y-43680099D01*
X19900099Y-43587007D01*
X19965925Y-43472993D01*
X19982962Y-43409408D01*
X20615270Y-44041717D01*
X20615270Y-44041716D01*
X20654622Y-43987554D01*
X20751095Y-43798217D01*
X20783894Y-43697273D01*
X26849500Y-43697273D01*
X26849500Y-43802727D01*
X26876793Y-43904587D01*
X26929520Y-43995913D01*
X27004087Y-44070480D01*
X27095413Y-44123207D01*
X27121606Y-44130225D01*
X27181267Y-44166590D01*
X27211796Y-44229437D01*
X27203501Y-44298812D01*
X27159016Y-44352690D01*
X27121607Y-44369774D01*
X27095417Y-44376792D01*
X27095413Y-44376793D01*
X27095410Y-44376794D01*
X27004085Y-44429521D01*
X26929521Y-44504085D01*
X26876794Y-44595410D01*
X26876793Y-44595413D01*
X26849500Y-44697273D01*
X26849500Y-44802727D01*
X26876793Y-44904587D01*
X26929520Y-44995913D01*
X27004087Y-45070480D01*
X27095413Y-45123207D01*
X27197273Y-45150500D01*
X27197275Y-45150500D01*
X27302725Y-45150500D01*
X27302727Y-45150500D01*
X27404587Y-45123207D01*
X27495913Y-45070480D01*
X27570480Y-44995913D01*
X27623207Y-44904587D01*
X27650500Y-44802727D01*
X27650500Y-44697273D01*
X27623207Y-44595413D01*
X27570480Y-44504087D01*
X27495913Y-44429520D01*
X27427674Y-44390122D01*
X27404589Y-44376794D01*
X27404585Y-44376792D01*
X27388979Y-44372611D01*
X27378393Y-44369774D01*
X27318733Y-44333411D01*
X27288203Y-44270564D01*
X27296497Y-44201188D01*
X27340982Y-44147310D01*
X27378392Y-44130225D01*
X27404587Y-44123207D01*
X27495913Y-44070480D01*
X27570480Y-43995913D01*
X27623207Y-43904587D01*
X27650500Y-43802727D01*
X27650500Y-43697273D01*
X27623207Y-43595413D01*
X27570480Y-43504087D01*
X27495913Y-43429520D01*
X27404587Y-43376793D01*
X27302727Y-43349500D01*
X27197273Y-43349500D01*
X27095413Y-43376793D01*
X27095410Y-43376794D01*
X27004085Y-43429521D01*
X26929521Y-43504085D01*
X26876794Y-43595410D01*
X26876793Y-43595413D01*
X26849500Y-43697273D01*
X20783894Y-43697273D01*
X20798985Y-43650828D01*
X20816757Y-43596130D01*
X20816757Y-43596127D01*
X20850000Y-43386246D01*
X20850000Y-43173753D01*
X20816757Y-42963872D01*
X20816757Y-42963869D01*
X20751095Y-42761782D01*
X20654624Y-42572449D01*
X20615270Y-42518282D01*
X20615269Y-42518282D01*
X19982962Y-43150590D01*
X19965925Y-43087007D01*
X19900099Y-42972993D01*
X19807007Y-42879901D01*
X19692993Y-42814075D01*
X19629409Y-42797037D01*
X20229171Y-42197273D01*
X26849500Y-42197273D01*
X26849500Y-42302727D01*
X26876793Y-42404587D01*
X26929520Y-42495913D01*
X27004087Y-42570480D01*
X27095413Y-42623207D01*
X27197273Y-42650500D01*
X27197275Y-42650500D01*
X27302725Y-42650500D01*
X27302727Y-42650500D01*
X27404587Y-42623207D01*
X27495913Y-42570480D01*
X27570480Y-42495913D01*
X27623207Y-42404587D01*
X27650500Y-42302727D01*
X27650500Y-42197273D01*
X27623207Y-42095413D01*
X27570480Y-42004087D01*
X27495913Y-41929520D01*
X27404587Y-41876793D01*
X27302727Y-41849500D01*
X27197273Y-41849500D01*
X27095413Y-41876793D01*
X27095410Y-41876794D01*
X27004085Y-41929521D01*
X26929521Y-42004085D01*
X26876794Y-42095410D01*
X26876793Y-42095413D01*
X26849500Y-42197273D01*
X20229171Y-42197273D01*
X20261716Y-42164728D01*
X20207550Y-42125375D01*
X20018217Y-42028904D01*
X19816128Y-41963242D01*
X19614730Y-41931343D01*
X19551595Y-41901414D01*
X19514664Y-41842102D01*
X19515662Y-41772239D01*
X19554272Y-41714007D01*
X19609933Y-41687254D01*
X19777251Y-41653973D01*
X19950231Y-41582322D01*
X20105908Y-41478302D01*
X20238302Y-41345908D01*
X20342322Y-41190231D01*
X20413973Y-41017251D01*
X20450500Y-40833616D01*
X20450500Y-40646384D01*
X20413973Y-40462749D01*
X20358554Y-40328956D01*
X20342323Y-40289771D01*
X20342318Y-40289762D01*
X20321120Y-40258037D01*
X20280518Y-40197273D01*
X24599500Y-40197273D01*
X24599500Y-40302727D01*
X24626793Y-40404587D01*
X24679520Y-40495913D01*
X24754087Y-40570480D01*
X24845413Y-40623207D01*
X24947273Y-40650500D01*
X24947275Y-40650500D01*
X25052725Y-40650500D01*
X25052727Y-40650500D01*
X25154587Y-40623207D01*
X25245913Y-40570480D01*
X25320480Y-40495913D01*
X25373207Y-40404587D01*
X25400500Y-40302727D01*
X25400500Y-40197273D01*
X25373207Y-40095413D01*
X25320480Y-40004087D01*
X25245913Y-39929520D01*
X25168355Y-39884742D01*
X25154589Y-39876794D01*
X25154588Y-39876793D01*
X25154587Y-39876793D01*
X25052727Y-39849500D01*
X24947273Y-39849500D01*
X24845413Y-39876793D01*
X24845410Y-39876794D01*
X24754085Y-39929521D01*
X24679521Y-40004085D01*
X24626794Y-40095410D01*
X24626793Y-40095413D01*
X24599500Y-40197273D01*
X20280518Y-40197273D01*
X20238302Y-40134092D01*
X20238299Y-40134088D01*
X20105911Y-40001700D01*
X20105907Y-40001697D01*
X19950237Y-39897681D01*
X19950228Y-39897676D01*
X19777251Y-39826027D01*
X19777243Y-39826025D01*
X19593620Y-39789500D01*
X19593616Y-39789500D01*
X19406384Y-39789500D01*
X19406379Y-39789500D01*
X19222756Y-39826025D01*
X19222748Y-39826027D01*
X19049771Y-39897676D01*
X19049762Y-39897681D01*
X18894092Y-40001697D01*
X18894088Y-40001700D01*
X18761700Y-40134088D01*
X18761697Y-40134092D01*
X18657681Y-40289762D01*
X18657676Y-40289771D01*
X18586027Y-40462748D01*
X18586025Y-40462756D01*
X18549500Y-40646379D01*
X18549500Y-40833620D01*
X18586025Y-41017243D01*
X18586027Y-41017251D01*
X18657676Y-41190228D01*
X18657681Y-41190237D01*
X18761697Y-41345907D01*
X18761700Y-41345911D01*
X18894088Y-41478299D01*
X18894092Y-41478302D01*
X19049762Y-41582318D01*
X19049768Y-41582321D01*
X19049769Y-41582322D01*
X19222749Y-41653973D01*
X19390064Y-41687253D01*
X19451973Y-41719637D01*
X19486547Y-41780353D01*
X19482808Y-41850122D01*
X19441942Y-41906794D01*
X19385269Y-41931343D01*
X19183872Y-41963242D01*
X19183869Y-41963242D01*
X18981782Y-42028904D01*
X18792439Y-42125380D01*
X18738282Y-42164727D01*
X18738282Y-42164728D01*
X19370591Y-42797037D01*
X19307007Y-42814075D01*
X19192993Y-42879901D01*
X19099901Y-42972993D01*
X19034075Y-43087007D01*
X19017037Y-43150591D01*
X18384728Y-42518282D01*
X18384727Y-42518282D01*
X18345380Y-42572439D01*
X18248904Y-42761782D01*
X18183242Y-42963869D01*
X18183242Y-42963872D01*
X18151343Y-43165269D01*
X18121413Y-43228404D01*
X18062102Y-43265335D01*
X17992239Y-43264337D01*
X17934007Y-43225727D01*
X17907254Y-43170065D01*
X17873973Y-43002749D01*
X17802322Y-42829769D01*
X17802321Y-42829768D01*
X17802318Y-42829762D01*
X17698302Y-42674092D01*
X17698299Y-42674088D01*
X17565911Y-42541700D01*
X17565907Y-42541697D01*
X17410237Y-42437681D01*
X17410228Y-42437676D01*
X17237251Y-42366027D01*
X17237243Y-42366025D01*
X17053620Y-42329500D01*
X17053616Y-42329500D01*
X16866384Y-42329500D01*
X16866379Y-42329500D01*
X16682756Y-42366025D01*
X16682748Y-42366027D01*
X16509771Y-42437676D01*
X16509762Y-42437681D01*
X16354092Y-42541697D01*
X16354088Y-42541700D01*
X16221700Y-42674088D01*
X16221697Y-42674092D01*
X16117681Y-42829762D01*
X16117676Y-42829771D01*
X16046027Y-43002748D01*
X16046025Y-43002756D01*
X16009500Y-43186379D01*
X16009500Y-43373620D01*
X16046025Y-43557243D01*
X16046027Y-43557251D01*
X16117676Y-43730228D01*
X16117681Y-43730237D01*
X16221697Y-43885907D01*
X16221700Y-43885911D01*
X16354088Y-44018299D01*
X16354092Y-44018302D01*
X16509762Y-44122318D01*
X16509771Y-44122323D01*
X16527197Y-44129541D01*
X16682749Y-44193973D01*
X16850064Y-44227253D01*
X16911973Y-44259637D01*
X16946547Y-44320353D01*
X16942808Y-44390122D01*
X16901942Y-44446794D01*
X16845269Y-44471343D01*
X16643872Y-44503242D01*
X16643869Y-44503242D01*
X16441782Y-44568904D01*
X16252439Y-44665380D01*
X16168563Y-44726319D01*
X16102756Y-44749798D01*
X16095679Y-44750000D01*
X16000000Y-44750000D01*
X16000000Y-44931437D01*
X15980315Y-44998476D01*
X15927511Y-45044231D01*
X15885730Y-45055055D01*
X15844727Y-45058282D01*
X15805380Y-45112439D01*
X15708904Y-45301782D01*
X15643242Y-45503869D01*
X15643242Y-45503872D01*
X15610000Y-45713753D01*
X12500500Y-45713753D01*
X12500500Y-40646379D01*
X16009500Y-40646379D01*
X16009500Y-40833620D01*
X16046025Y-41017243D01*
X16046027Y-41017251D01*
X16117676Y-41190228D01*
X16117681Y-41190237D01*
X16221697Y-41345907D01*
X16221700Y-41345911D01*
X16354088Y-41478299D01*
X16354092Y-41478302D01*
X16509762Y-41582318D01*
X16509768Y-41582321D01*
X16509769Y-41582322D01*
X16682749Y-41653973D01*
X16850055Y-41687252D01*
X16866379Y-41690499D01*
X16866383Y-41690500D01*
X16866384Y-41690500D01*
X17053617Y-41690500D01*
X17053618Y-41690499D01*
X17237251Y-41653973D01*
X17410231Y-41582322D01*
X17565908Y-41478302D01*
X17698302Y-41345908D01*
X17802322Y-41190231D01*
X17873973Y-41017251D01*
X17910500Y-40833616D01*
X17910500Y-40646384D01*
X17873973Y-40462749D01*
X17818554Y-40328956D01*
X17802323Y-40289771D01*
X17802318Y-40289762D01*
X17698302Y-40134092D01*
X17698299Y-40134088D01*
X17565911Y-40001700D01*
X17565907Y-40001697D01*
X17410237Y-39897681D01*
X17410228Y-39897676D01*
X17237251Y-39826027D01*
X17237243Y-39826025D01*
X17053620Y-39789500D01*
X17053616Y-39789500D01*
X16866384Y-39789500D01*
X16866379Y-39789500D01*
X16682756Y-39826025D01*
X16682748Y-39826027D01*
X16509771Y-39897676D01*
X16509762Y-39897681D01*
X16354092Y-40001697D01*
X16354088Y-40001700D01*
X16221700Y-40134088D01*
X16221697Y-40134092D01*
X16117681Y-40289762D01*
X16117676Y-40289771D01*
X16046027Y-40462748D01*
X16046025Y-40462756D01*
X16009500Y-40646379D01*
X12500500Y-40646379D01*
X12500500Y-39447273D01*
X21849500Y-39447273D01*
X21849500Y-39552727D01*
X21876793Y-39654587D01*
X21929520Y-39745913D01*
X22004087Y-39820480D01*
X22095413Y-39873207D01*
X22197273Y-39900500D01*
X22197275Y-39900500D01*
X22302725Y-39900500D01*
X22302727Y-39900500D01*
X22404587Y-39873207D01*
X22495913Y-39820480D01*
X22570480Y-39745913D01*
X22623207Y-39654587D01*
X22650500Y-39552727D01*
X22650500Y-39447273D01*
X22623207Y-39345413D01*
X22570480Y-39254087D01*
X22495913Y-39179520D01*
X22404587Y-39126793D01*
X22302727Y-39099500D01*
X22197273Y-39099500D01*
X22095413Y-39126793D01*
X22095410Y-39126794D01*
X22004085Y-39179521D01*
X21929521Y-39254085D01*
X21876794Y-39345410D01*
X21876793Y-39345413D01*
X21849500Y-39447273D01*
X12500500Y-39447273D01*
X12500500Y-35553753D01*
X15610000Y-35553753D01*
X15610000Y-35766246D01*
X15643242Y-35976127D01*
X15643242Y-35976130D01*
X15708904Y-36178217D01*
X15805375Y-36367550D01*
X15844728Y-36421716D01*
X16477037Y-35789408D01*
X16494075Y-35852993D01*
X16559901Y-35967007D01*
X16652993Y-36060099D01*
X16767007Y-36125925D01*
X16830590Y-36142962D01*
X16198282Y-36775269D01*
X16198282Y-36775270D01*
X16252449Y-36814624D01*
X16441782Y-36911095D01*
X16643870Y-36976757D01*
X16845269Y-37008656D01*
X16908404Y-37038585D01*
X16945335Y-37097897D01*
X16944337Y-37167759D01*
X16905727Y-37225992D01*
X16850062Y-37252746D01*
X16682756Y-37286025D01*
X16682748Y-37286027D01*
X16509771Y-37357676D01*
X16509762Y-37357681D01*
X16354092Y-37461697D01*
X16354088Y-37461700D01*
X16221700Y-37594088D01*
X16221697Y-37594092D01*
X16117681Y-37749762D01*
X16117676Y-37749771D01*
X16046027Y-37922748D01*
X16046025Y-37922756D01*
X16009500Y-38106379D01*
X16009500Y-38293620D01*
X16046025Y-38477243D01*
X16046027Y-38477251D01*
X16117676Y-38650228D01*
X16117681Y-38650237D01*
X16221697Y-38805907D01*
X16221700Y-38805911D01*
X16354088Y-38938299D01*
X16354092Y-38938302D01*
X16509762Y-39042318D01*
X16509768Y-39042321D01*
X16509769Y-39042322D01*
X16682749Y-39113973D01*
X16866379Y-39150499D01*
X16866383Y-39150500D01*
X16866384Y-39150500D01*
X17053617Y-39150500D01*
X17053618Y-39150499D01*
X17237251Y-39113973D01*
X17410231Y-39042322D01*
X17565908Y-38938302D01*
X17698302Y-38805908D01*
X17802322Y-38650231D01*
X17873973Y-38477251D01*
X17910500Y-38293616D01*
X17910500Y-38106384D01*
X17873973Y-37922749D01*
X17802322Y-37749769D01*
X17802321Y-37749768D01*
X17802318Y-37749762D01*
X17698302Y-37594092D01*
X17698299Y-37594088D01*
X17565911Y-37461700D01*
X17565907Y-37461697D01*
X17410237Y-37357681D01*
X17410228Y-37357676D01*
X17237251Y-37286027D01*
X17237243Y-37286025D01*
X17069937Y-37252746D01*
X17008026Y-37220361D01*
X16973452Y-37159646D01*
X16977191Y-37089876D01*
X17018057Y-37033204D01*
X17074730Y-37008656D01*
X17276127Y-36976757D01*
X17276130Y-36976757D01*
X17478217Y-36911095D01*
X17667554Y-36814622D01*
X17721716Y-36775270D01*
X17721717Y-36775270D01*
X17089408Y-36142962D01*
X17152993Y-36125925D01*
X17267007Y-36060099D01*
X17360099Y-35967007D01*
X17425925Y-35852993D01*
X17442962Y-35789408D01*
X18075270Y-36421717D01*
X18075270Y-36421716D01*
X18114622Y-36367554D01*
X18119514Y-36357954D01*
X18167488Y-36307157D01*
X18235308Y-36290361D01*
X18301444Y-36312897D01*
X18340486Y-36357954D01*
X18345375Y-36367550D01*
X18384728Y-36421716D01*
X19017037Y-35789408D01*
X19034075Y-35852993D01*
X19099901Y-35967007D01*
X19192993Y-36060099D01*
X19307007Y-36125925D01*
X19370590Y-36142962D01*
X18738282Y-36775269D01*
X18738282Y-36775270D01*
X18792449Y-36814624D01*
X18981782Y-36911095D01*
X19183870Y-36976757D01*
X19385269Y-37008656D01*
X19448404Y-37038585D01*
X19485335Y-37097897D01*
X19484337Y-37167759D01*
X19445727Y-37225992D01*
X19390062Y-37252746D01*
X19222756Y-37286025D01*
X19222748Y-37286027D01*
X19049771Y-37357676D01*
X19049762Y-37357681D01*
X18894092Y-37461697D01*
X18894088Y-37461700D01*
X18761700Y-37594088D01*
X18761697Y-37594092D01*
X18657681Y-37749762D01*
X18657676Y-37749771D01*
X18586027Y-37922748D01*
X18586025Y-37922756D01*
X18549500Y-38106379D01*
X18549500Y-38293620D01*
X18586025Y-38477243D01*
X18586027Y-38477251D01*
X18657676Y-38650228D01*
X18657681Y-38650237D01*
X18761697Y-38805907D01*
X18761700Y-38805911D01*
X18894088Y-38938299D01*
X18894092Y-38938302D01*
X19049762Y-39042318D01*
X19049768Y-39042321D01*
X19049769Y-39042322D01*
X19222749Y-39113973D01*
X19406379Y-39150499D01*
X19406383Y-39150500D01*
X19406384Y-39150500D01*
X19593617Y-39150500D01*
X19593618Y-39150499D01*
X19777251Y-39113973D01*
X19950231Y-39042322D01*
X20105908Y-38938302D01*
X20238302Y-38805908D01*
X20342322Y-38650231D01*
X20413973Y-38477251D01*
X20450500Y-38293616D01*
X20450500Y-38150503D01*
X25349500Y-38150503D01*
X25349500Y-38255957D01*
X25376793Y-38357817D01*
X25429520Y-38449143D01*
X25504087Y-38523710D01*
X25595413Y-38576437D01*
X25697273Y-38603730D01*
X25697275Y-38603730D01*
X25802725Y-38603730D01*
X25802727Y-38603730D01*
X25904587Y-38576437D01*
X25995913Y-38523710D01*
X26070480Y-38449143D01*
X26123207Y-38357817D01*
X26150500Y-38255957D01*
X26150500Y-38150503D01*
X26123207Y-38048643D01*
X26070480Y-37957317D01*
X25995913Y-37882750D01*
X25904587Y-37830023D01*
X25802727Y-37802730D01*
X25697273Y-37802730D01*
X25595413Y-37830023D01*
X25595410Y-37830024D01*
X25504085Y-37882751D01*
X25429521Y-37957315D01*
X25376794Y-38048640D01*
X25376793Y-38048643D01*
X25349500Y-38150503D01*
X20450500Y-38150503D01*
X20450500Y-38106384D01*
X20413973Y-37922749D01*
X20342322Y-37749769D01*
X20342321Y-37749768D01*
X20342318Y-37749762D01*
X20238302Y-37594092D01*
X20238299Y-37594088D01*
X20105911Y-37461700D01*
X20105907Y-37461697D01*
X19950237Y-37357681D01*
X19950228Y-37357676D01*
X19777251Y-37286027D01*
X19777243Y-37286025D01*
X19609937Y-37252746D01*
X19548026Y-37220361D01*
X19513452Y-37159646D01*
X19517191Y-37089876D01*
X19558057Y-37033204D01*
X19614730Y-37008656D01*
X19816127Y-36976757D01*
X19816130Y-36976757D01*
X20018217Y-36911095D01*
X20207554Y-36814622D01*
X20261716Y-36775270D01*
X20261717Y-36775270D01*
X19629408Y-36142962D01*
X19692993Y-36125925D01*
X19807007Y-36060099D01*
X19900099Y-35967007D01*
X19965925Y-35852993D01*
X19982962Y-35789408D01*
X20615270Y-36421717D01*
X20615270Y-36421716D01*
X20654622Y-36367554D01*
X20751095Y-36178217D01*
X20816757Y-35976130D01*
X20816757Y-35976127D01*
X20850000Y-35766246D01*
X20850000Y-35553753D01*
X20816757Y-35343872D01*
X20816757Y-35343869D01*
X20751095Y-35141782D01*
X20654624Y-34952449D01*
X20615270Y-34898282D01*
X20615269Y-34898282D01*
X19982962Y-35530590D01*
X19965925Y-35467007D01*
X19900099Y-35352993D01*
X19807007Y-35259901D01*
X19692993Y-35194075D01*
X19629409Y-35177037D01*
X20261716Y-34544728D01*
X20207550Y-34505375D01*
X20018217Y-34408904D01*
X19816128Y-34343242D01*
X19614730Y-34311343D01*
X19551595Y-34281414D01*
X19514664Y-34222102D01*
X19515662Y-34152239D01*
X19554272Y-34094007D01*
X19609933Y-34067254D01*
X19777251Y-34033973D01*
X19950231Y-33962322D01*
X20105908Y-33858302D01*
X20238302Y-33725908D01*
X20342322Y-33570231D01*
X20413973Y-33397251D01*
X20450500Y-33213616D01*
X20450500Y-33197273D01*
X24599500Y-33197273D01*
X24599500Y-33302727D01*
X24626793Y-33404587D01*
X24679520Y-33495913D01*
X24754087Y-33570480D01*
X24845413Y-33623207D01*
X24947273Y-33650500D01*
X24947275Y-33650500D01*
X25052725Y-33650500D01*
X25052727Y-33650500D01*
X25154587Y-33623207D01*
X25245913Y-33570480D01*
X25320480Y-33495913D01*
X25373207Y-33404587D01*
X25400500Y-33302727D01*
X25400500Y-33197273D01*
X25373207Y-33095413D01*
X25320480Y-33004087D01*
X25245913Y-32929520D01*
X25154587Y-32876793D01*
X25052727Y-32849500D01*
X24947273Y-32849500D01*
X24845413Y-32876793D01*
X24845410Y-32876794D01*
X24754085Y-32929521D01*
X24679521Y-33004085D01*
X24626794Y-33095410D01*
X24626793Y-33095413D01*
X24599500Y-33197273D01*
X20450500Y-33197273D01*
X20450500Y-33026384D01*
X20413973Y-32842749D01*
X20342322Y-32669769D01*
X20342321Y-32669768D01*
X20342318Y-32669762D01*
X20238302Y-32514092D01*
X20238299Y-32514088D01*
X20105911Y-32381700D01*
X20105907Y-32381697D01*
X19950237Y-32277681D01*
X19950228Y-32277676D01*
X19777251Y-32206027D01*
X19777243Y-32206025D01*
X19593620Y-32169500D01*
X19593616Y-32169500D01*
X19406384Y-32169500D01*
X19406379Y-32169500D01*
X19222756Y-32206025D01*
X19222748Y-32206027D01*
X19049771Y-32277676D01*
X19049762Y-32277681D01*
X18894092Y-32381697D01*
X18894088Y-32381700D01*
X18761700Y-32514088D01*
X18761697Y-32514092D01*
X18657681Y-32669762D01*
X18657676Y-32669771D01*
X18586027Y-32842748D01*
X18586025Y-32842756D01*
X18549500Y-33026379D01*
X18549500Y-33213620D01*
X18586025Y-33397243D01*
X18586027Y-33397251D01*
X18657676Y-33570228D01*
X18657681Y-33570237D01*
X18761697Y-33725907D01*
X18761700Y-33725911D01*
X18894088Y-33858299D01*
X18894092Y-33858302D01*
X19049762Y-33962318D01*
X19049768Y-33962321D01*
X19049769Y-33962322D01*
X19222749Y-34033973D01*
X19390064Y-34067253D01*
X19451973Y-34099637D01*
X19486547Y-34160353D01*
X19482808Y-34230122D01*
X19441942Y-34286794D01*
X19385269Y-34311343D01*
X19183872Y-34343242D01*
X19183869Y-34343242D01*
X18981782Y-34408904D01*
X18792439Y-34505380D01*
X18738282Y-34544727D01*
X18738282Y-34544728D01*
X19370591Y-35177037D01*
X19307007Y-35194075D01*
X19192993Y-35259901D01*
X19099901Y-35352993D01*
X19034075Y-35467007D01*
X19017037Y-35530591D01*
X18384728Y-34898282D01*
X18384727Y-34898282D01*
X18345380Y-34952440D01*
X18340483Y-34962051D01*
X18292506Y-35012845D01*
X18224684Y-35029638D01*
X18158550Y-35007098D01*
X18119516Y-34962048D01*
X18114626Y-34952452D01*
X18075270Y-34898282D01*
X18075269Y-34898282D01*
X17442962Y-35530590D01*
X17425925Y-35467007D01*
X17360099Y-35352993D01*
X17267007Y-35259901D01*
X17152993Y-35194075D01*
X17089409Y-35177037D01*
X17721716Y-34544728D01*
X17667550Y-34505375D01*
X17478217Y-34408904D01*
X17276128Y-34343242D01*
X17074730Y-34311343D01*
X17011595Y-34281414D01*
X16974664Y-34222102D01*
X16975662Y-34152239D01*
X17014272Y-34094007D01*
X17069933Y-34067254D01*
X17237251Y-34033973D01*
X17410231Y-33962322D01*
X17565908Y-33858302D01*
X17698302Y-33725908D01*
X17802322Y-33570231D01*
X17873973Y-33397251D01*
X17910500Y-33213616D01*
X17910500Y-33026384D01*
X17873973Y-32842749D01*
X17802322Y-32669769D01*
X17802321Y-32669768D01*
X17802318Y-32669762D01*
X17698302Y-32514092D01*
X17698299Y-32514088D01*
X17565911Y-32381700D01*
X17565907Y-32381697D01*
X17410237Y-32277681D01*
X17410228Y-32277676D01*
X17237251Y-32206027D01*
X17237243Y-32206025D01*
X17053620Y-32169500D01*
X17053616Y-32169500D01*
X16866384Y-32169500D01*
X16866379Y-32169500D01*
X16682756Y-32206025D01*
X16682748Y-32206027D01*
X16509771Y-32277676D01*
X16509762Y-32277681D01*
X16354092Y-32381697D01*
X16354088Y-32381700D01*
X16221700Y-32514088D01*
X16221697Y-32514092D01*
X16117681Y-32669762D01*
X16117676Y-32669771D01*
X16046027Y-32842748D01*
X16046025Y-32842756D01*
X16009500Y-33026379D01*
X16009500Y-33213620D01*
X16046025Y-33397243D01*
X16046027Y-33397251D01*
X16117676Y-33570228D01*
X16117681Y-33570237D01*
X16221697Y-33725907D01*
X16221700Y-33725911D01*
X16354088Y-33858299D01*
X16354092Y-33858302D01*
X16509762Y-33962318D01*
X16509768Y-33962321D01*
X16509769Y-33962322D01*
X16682749Y-34033973D01*
X16850064Y-34067253D01*
X16911973Y-34099637D01*
X16946547Y-34160353D01*
X16942808Y-34230122D01*
X16901942Y-34286794D01*
X16845269Y-34311343D01*
X16643872Y-34343242D01*
X16643869Y-34343242D01*
X16441782Y-34408904D01*
X16252439Y-34505380D01*
X16198282Y-34544727D01*
X16198282Y-34544728D01*
X16830591Y-35177037D01*
X16767007Y-35194075D01*
X16652993Y-35259901D01*
X16559901Y-35352993D01*
X16494075Y-35467007D01*
X16477037Y-35530591D01*
X15844728Y-34898282D01*
X15844727Y-34898282D01*
X15805380Y-34952439D01*
X15708904Y-35141782D01*
X15643242Y-35343869D01*
X15643242Y-35343872D01*
X15610000Y-35553753D01*
X12500500Y-35553753D01*
X12500500Y-33067273D01*
X13849500Y-33067273D01*
X13849500Y-33172727D01*
X13876793Y-33274587D01*
X13929520Y-33365913D01*
X14004087Y-33440480D01*
X14095413Y-33493207D01*
X14197273Y-33520500D01*
X14197275Y-33520500D01*
X14302725Y-33520500D01*
X14302727Y-33520500D01*
X14404587Y-33493207D01*
X14495913Y-33440480D01*
X14570480Y-33365913D01*
X14623207Y-33274587D01*
X14650500Y-33172727D01*
X14650500Y-33067273D01*
X14623207Y-32965413D01*
X14570480Y-32874087D01*
X14495913Y-32799520D01*
X14404587Y-32746793D01*
X14302727Y-32719500D01*
X14197273Y-32719500D01*
X14095413Y-32746793D01*
X14095410Y-32746794D01*
X14004085Y-32799521D01*
X13929521Y-32874085D01*
X13876794Y-32965410D01*
X13876793Y-32965413D01*
X13849500Y-33067273D01*
X12500500Y-33067273D01*
X12500500Y-29759374D01*
X12520185Y-29692335D01*
X12572989Y-29646580D01*
X12642147Y-29636636D01*
X12656571Y-29639594D01*
X12697273Y-29650500D01*
X12697277Y-29650500D01*
X12802725Y-29650500D01*
X12802727Y-29650500D01*
X12904587Y-29623207D01*
X12995913Y-29570480D01*
X13070480Y-29495913D01*
X13123207Y-29404587D01*
X13150500Y-29302727D01*
X13150500Y-29197273D01*
X13123207Y-29095413D01*
X13070480Y-29004087D01*
X12995913Y-28929520D01*
X12904587Y-28876793D01*
X12802727Y-28849500D01*
X12697273Y-28849500D01*
X12697271Y-28849500D01*
X12656592Y-28860400D01*
X12586742Y-28858737D01*
X12528880Y-28819574D01*
X12501377Y-28755345D01*
X12500500Y-28740625D01*
X12500500Y-27933753D01*
X15610000Y-27933753D01*
X15610000Y-28146246D01*
X15643242Y-28356127D01*
X15643242Y-28356130D01*
X15708904Y-28558217D01*
X15805375Y-28747550D01*
X15844728Y-28801716D01*
X16477037Y-28169408D01*
X16494075Y-28232993D01*
X16559901Y-28347007D01*
X16652993Y-28440099D01*
X16767007Y-28505925D01*
X16830590Y-28522962D01*
X16198282Y-29155269D01*
X16198282Y-29155270D01*
X16252449Y-29194624D01*
X16441782Y-29291095D01*
X16643870Y-29356757D01*
X16845269Y-29388656D01*
X16908404Y-29418585D01*
X16945335Y-29477897D01*
X16944337Y-29547759D01*
X16905727Y-29605992D01*
X16850062Y-29632746D01*
X16682756Y-29666025D01*
X16682748Y-29666027D01*
X16509771Y-29737676D01*
X16509762Y-29737681D01*
X16354092Y-29841697D01*
X16354088Y-29841700D01*
X16221700Y-29974088D01*
X16221697Y-29974092D01*
X16117681Y-30129762D01*
X16117676Y-30129771D01*
X16046027Y-30302748D01*
X16046025Y-30302756D01*
X16009500Y-30486379D01*
X16009500Y-30673620D01*
X16046025Y-30857243D01*
X16046027Y-30857251D01*
X16117676Y-31030228D01*
X16117681Y-31030237D01*
X16221697Y-31185907D01*
X16221700Y-31185911D01*
X16354088Y-31318299D01*
X16354092Y-31318302D01*
X16509762Y-31422318D01*
X16509768Y-31422321D01*
X16509769Y-31422322D01*
X16682749Y-31493973D01*
X16866379Y-31530499D01*
X16866383Y-31530500D01*
X16866384Y-31530500D01*
X17053617Y-31530500D01*
X17053618Y-31530499D01*
X17237251Y-31493973D01*
X17410231Y-31422322D01*
X17565908Y-31318302D01*
X17698302Y-31185908D01*
X17802322Y-31030231D01*
X17873973Y-30857251D01*
X17910500Y-30673616D01*
X17910500Y-30486384D01*
X17873973Y-30302749D01*
X17802322Y-30129769D01*
X17802321Y-30129768D01*
X17802318Y-30129762D01*
X17698302Y-29974092D01*
X17698299Y-29974088D01*
X17565911Y-29841700D01*
X17565907Y-29841697D01*
X17410237Y-29737681D01*
X17410228Y-29737676D01*
X17237251Y-29666027D01*
X17237243Y-29666025D01*
X17069937Y-29632746D01*
X17008026Y-29600361D01*
X16973452Y-29539646D01*
X16977191Y-29469876D01*
X17018057Y-29413204D01*
X17074730Y-29388656D01*
X17276127Y-29356757D01*
X17276130Y-29356757D01*
X17478217Y-29291095D01*
X17667554Y-29194622D01*
X17721716Y-29155270D01*
X17721717Y-29155270D01*
X17089408Y-28522962D01*
X17152993Y-28505925D01*
X17267007Y-28440099D01*
X17360099Y-28347007D01*
X17425925Y-28232993D01*
X17442962Y-28169408D01*
X18075270Y-28801717D01*
X18075270Y-28801716D01*
X18114622Y-28747554D01*
X18119514Y-28737954D01*
X18167488Y-28687157D01*
X18235308Y-28670361D01*
X18301444Y-28692897D01*
X18340486Y-28737954D01*
X18345375Y-28747550D01*
X18384728Y-28801716D01*
X19017037Y-28169408D01*
X19034075Y-28232993D01*
X19099901Y-28347007D01*
X19192993Y-28440099D01*
X19307007Y-28505925D01*
X19370590Y-28522962D01*
X18738282Y-29155269D01*
X18738282Y-29155270D01*
X18792449Y-29194624D01*
X18981782Y-29291095D01*
X19183870Y-29356757D01*
X19385269Y-29388656D01*
X19448404Y-29418585D01*
X19485335Y-29477897D01*
X19484337Y-29547759D01*
X19445727Y-29605992D01*
X19390062Y-29632746D01*
X19222756Y-29666025D01*
X19222748Y-29666027D01*
X19049771Y-29737676D01*
X19049762Y-29737681D01*
X18894092Y-29841697D01*
X18894088Y-29841700D01*
X18761700Y-29974088D01*
X18761697Y-29974092D01*
X18657681Y-30129762D01*
X18657676Y-30129771D01*
X18586027Y-30302748D01*
X18586025Y-30302756D01*
X18549500Y-30486379D01*
X18549500Y-30673620D01*
X18586025Y-30857243D01*
X18586027Y-30857251D01*
X18657676Y-31030228D01*
X18657681Y-31030237D01*
X18761697Y-31185907D01*
X18761700Y-31185911D01*
X18894088Y-31318299D01*
X18894092Y-31318302D01*
X19049762Y-31422318D01*
X19049768Y-31422321D01*
X19049769Y-31422322D01*
X19222749Y-31493973D01*
X19406379Y-31530499D01*
X19406383Y-31530500D01*
X19406384Y-31530500D01*
X19593617Y-31530500D01*
X19593618Y-31530499D01*
X19777251Y-31493973D01*
X19950231Y-31422322D01*
X20105908Y-31318302D01*
X20238302Y-31185908D01*
X20342322Y-31030231D01*
X20413973Y-30857251D01*
X20450500Y-30673616D01*
X20450500Y-30486384D01*
X20413973Y-30302749D01*
X20342322Y-30129769D01*
X20342321Y-30129768D01*
X20342318Y-30129762D01*
X20238302Y-29974092D01*
X20238299Y-29974088D01*
X20105911Y-29841700D01*
X20105907Y-29841697D01*
X19950237Y-29737681D01*
X19950228Y-29737676D01*
X19777251Y-29666027D01*
X19777243Y-29666025D01*
X19609937Y-29632746D01*
X19548026Y-29600361D01*
X19513452Y-29539646D01*
X19517191Y-29469876D01*
X19558057Y-29413204D01*
X19614730Y-29388656D01*
X19816127Y-29356757D01*
X19816130Y-29356757D01*
X20018217Y-29291095D01*
X20207554Y-29194622D01*
X20261716Y-29155270D01*
X20261717Y-29155270D01*
X19629408Y-28522962D01*
X19692993Y-28505925D01*
X19807007Y-28440099D01*
X19900099Y-28347007D01*
X19965925Y-28232993D01*
X19982962Y-28169408D01*
X20615270Y-28801717D01*
X20615270Y-28801716D01*
X20654622Y-28747554D01*
X20751095Y-28558217D01*
X20816757Y-28356130D01*
X20816757Y-28356127D01*
X20850000Y-28146246D01*
X20850000Y-27933753D01*
X20820895Y-27750000D01*
X73500000Y-27750000D01*
X96000000Y-27750000D01*
X96000000Y-18000000D01*
X73500000Y-18000000D01*
X73500000Y-27750000D01*
X20820895Y-27750000D01*
X20816757Y-27723872D01*
X20816757Y-27723869D01*
X20751095Y-27521782D01*
X20654624Y-27332449D01*
X20615270Y-27278282D01*
X20615269Y-27278282D01*
X19982962Y-27910590D01*
X19965925Y-27847007D01*
X19900099Y-27732993D01*
X19807007Y-27639901D01*
X19692993Y-27574075D01*
X19629409Y-27557037D01*
X20261716Y-26924728D01*
X20207550Y-26885375D01*
X20018217Y-26788904D01*
X19816128Y-26723242D01*
X19614730Y-26691343D01*
X19551595Y-26661414D01*
X19514664Y-26602102D01*
X19515662Y-26532239D01*
X19554272Y-26474007D01*
X19609933Y-26447254D01*
X19777251Y-26413973D01*
X19950231Y-26342322D01*
X20105908Y-26238302D01*
X20238302Y-26105908D01*
X20342322Y-25950231D01*
X20413973Y-25777251D01*
X20450500Y-25593616D01*
X20450500Y-25406384D01*
X20413973Y-25222749D01*
X20342322Y-25049769D01*
X20342321Y-25049768D01*
X20342318Y-25049762D01*
X20238302Y-24894092D01*
X20238299Y-24894088D01*
X20105911Y-24761700D01*
X20105907Y-24761697D01*
X19950237Y-24657681D01*
X19950228Y-24657676D01*
X19777251Y-24586027D01*
X19777243Y-24586025D01*
X19593620Y-24549500D01*
X19593616Y-24549500D01*
X19406384Y-24549500D01*
X19406379Y-24549500D01*
X19222756Y-24586025D01*
X19222748Y-24586027D01*
X19049771Y-24657676D01*
X19049762Y-24657681D01*
X18894092Y-24761697D01*
X18894088Y-24761700D01*
X18761700Y-24894088D01*
X18761697Y-24894092D01*
X18657681Y-25049762D01*
X18657676Y-25049771D01*
X18586027Y-25222748D01*
X18586025Y-25222756D01*
X18549500Y-25406379D01*
X18549500Y-25593620D01*
X18586025Y-25777243D01*
X18586027Y-25777251D01*
X18657676Y-25950228D01*
X18657681Y-25950237D01*
X18761697Y-26105907D01*
X18761700Y-26105911D01*
X18894088Y-26238299D01*
X18894092Y-26238302D01*
X19049762Y-26342318D01*
X19049768Y-26342321D01*
X19049769Y-26342322D01*
X19222749Y-26413973D01*
X19390064Y-26447253D01*
X19451973Y-26479637D01*
X19486547Y-26540353D01*
X19482808Y-26610122D01*
X19441942Y-26666794D01*
X19385269Y-26691343D01*
X19183872Y-26723242D01*
X19183869Y-26723242D01*
X18981782Y-26788904D01*
X18792439Y-26885380D01*
X18738282Y-26924727D01*
X18738282Y-26924728D01*
X19370591Y-27557037D01*
X19307007Y-27574075D01*
X19192993Y-27639901D01*
X19099901Y-27732993D01*
X19034075Y-27847007D01*
X19017037Y-27910591D01*
X18384728Y-27278282D01*
X18384727Y-27278282D01*
X18345380Y-27332440D01*
X18340483Y-27342051D01*
X18292506Y-27392845D01*
X18224684Y-27409638D01*
X18158550Y-27387098D01*
X18119516Y-27342048D01*
X18114626Y-27332452D01*
X18075270Y-27278282D01*
X18075269Y-27278282D01*
X17442962Y-27910590D01*
X17425925Y-27847007D01*
X17360099Y-27732993D01*
X17267007Y-27639901D01*
X17152993Y-27574075D01*
X17089409Y-27557037D01*
X17721716Y-26924728D01*
X17667550Y-26885375D01*
X17478217Y-26788904D01*
X17276129Y-26723242D01*
X17110272Y-26696973D01*
X17047137Y-26667044D01*
X17010206Y-26607732D01*
X17011204Y-26537870D01*
X17049814Y-26479637D01*
X17113778Y-26451523D01*
X17129670Y-26450500D01*
X17593261Y-26450500D01*
X17615971Y-26447191D01*
X17661393Y-26440573D01*
X17766483Y-26389198D01*
X17849198Y-26306483D01*
X17900573Y-26201393D01*
X17910500Y-26133260D01*
X17910500Y-24866740D01*
X17900573Y-24798607D01*
X17849198Y-24693517D01*
X17849196Y-24693515D01*
X17849196Y-24693514D01*
X17766485Y-24610803D01*
X17661391Y-24559426D01*
X17593261Y-24549500D01*
X17593260Y-24549500D01*
X16326740Y-24549500D01*
X16326739Y-24549500D01*
X16258608Y-24559426D01*
X16153514Y-24610803D01*
X16070803Y-24693514D01*
X16019426Y-24798608D01*
X16009500Y-24866739D01*
X16009500Y-26133260D01*
X16019426Y-26201391D01*
X16070803Y-26306485D01*
X16153514Y-26389196D01*
X16153515Y-26389196D01*
X16153517Y-26389198D01*
X16258607Y-26440573D01*
X16292673Y-26445536D01*
X16326739Y-26450500D01*
X16790330Y-26450500D01*
X16857369Y-26470185D01*
X16903124Y-26522989D01*
X16913068Y-26592147D01*
X16884043Y-26655703D01*
X16825265Y-26693477D01*
X16809728Y-26696973D01*
X16643872Y-26723242D01*
X16643869Y-26723242D01*
X16441782Y-26788904D01*
X16252439Y-26885380D01*
X16198282Y-26924727D01*
X16198282Y-26924728D01*
X16830591Y-27557037D01*
X16767007Y-27574075D01*
X16652993Y-27639901D01*
X16559901Y-27732993D01*
X16494075Y-27847007D01*
X16477037Y-27910591D01*
X15844728Y-27278282D01*
X15844727Y-27278282D01*
X15805380Y-27332439D01*
X15708904Y-27521782D01*
X15643242Y-27723869D01*
X15643242Y-27723872D01*
X15610000Y-27933753D01*
X12500500Y-27933753D01*
X12500500Y-17828681D01*
X27344739Y-17828681D01*
X27344739Y-18171318D01*
X27383097Y-18511768D01*
X27383100Y-18511782D01*
X27459341Y-18845816D01*
X27459342Y-18845818D01*
X27572503Y-19169216D01*
X27721161Y-19477907D01*
X27721163Y-19477910D01*
X27903450Y-19768018D01*
X28117073Y-20035893D01*
X28359346Y-20278166D01*
X28627221Y-20491789D01*
X28917329Y-20674076D01*
X29226024Y-20822736D01*
X29549422Y-20935897D01*
X29883456Y-21012139D01*
X29883465Y-21012140D01*
X29883470Y-21012141D01*
X30110436Y-21037713D01*
X30223921Y-21050499D01*
X30223924Y-21050500D01*
X30223927Y-21050500D01*
X30566554Y-21050500D01*
X30566555Y-21050499D01*
X30740550Y-21030895D01*
X30907007Y-21012141D01*
X30907010Y-21012140D01*
X30907022Y-21012139D01*
X31241056Y-20935897D01*
X31564454Y-20822736D01*
X31873149Y-20674076D01*
X32163257Y-20491789D01*
X32431132Y-20278166D01*
X32673405Y-20035893D01*
X32887028Y-19768018D01*
X33069315Y-19477910D01*
X33217975Y-19169215D01*
X33331136Y-18845817D01*
X33407378Y-18511783D01*
X33445739Y-18171312D01*
X33445739Y-17828688D01*
X33445738Y-17828681D01*
X60344739Y-17828681D01*
X60344739Y-18171318D01*
X60383097Y-18511768D01*
X60383100Y-18511782D01*
X60459341Y-18845816D01*
X60459342Y-18845818D01*
X60572503Y-19169216D01*
X60721161Y-19477907D01*
X60721163Y-19477910D01*
X60903450Y-19768018D01*
X61117073Y-20035893D01*
X61359346Y-20278166D01*
X61627221Y-20491789D01*
X61917329Y-20674076D01*
X62226024Y-20822736D01*
X62549422Y-20935897D01*
X62883456Y-21012139D01*
X62883465Y-21012140D01*
X62883470Y-21012141D01*
X63110436Y-21037713D01*
X63223921Y-21050499D01*
X63223924Y-21050500D01*
X63223927Y-21050500D01*
X63566554Y-21050500D01*
X63566555Y-21050499D01*
X63740550Y-21030895D01*
X63907007Y-21012141D01*
X63907010Y-21012140D01*
X63907022Y-21012139D01*
X64241056Y-20935897D01*
X64564454Y-20822736D01*
X64873149Y-20674076D01*
X65163257Y-20491789D01*
X65431132Y-20278166D01*
X65673405Y-20035893D01*
X65887028Y-19768018D01*
X66069315Y-19477910D01*
X66217975Y-19169215D01*
X66331136Y-18845817D01*
X66407378Y-18511783D01*
X66445739Y-18171312D01*
X66445739Y-17828688D01*
X66407378Y-17488217D01*
X66331136Y-17154183D01*
X66217975Y-16830785D01*
X66069315Y-16522090D01*
X65887028Y-16231982D01*
X65673405Y-15964107D01*
X65431132Y-15721834D01*
X65163257Y-15508211D01*
X64873149Y-15325924D01*
X64873146Y-15325922D01*
X64564455Y-15177264D01*
X64241057Y-15064103D01*
X64241055Y-15064102D01*
X63983263Y-15005262D01*
X63907022Y-14987861D01*
X63907019Y-14987860D01*
X63907007Y-14987858D01*
X63566557Y-14949500D01*
X63566551Y-14949500D01*
X63223927Y-14949500D01*
X63223920Y-14949500D01*
X62883470Y-14987858D01*
X62883456Y-14987861D01*
X62549422Y-15064102D01*
X62549420Y-15064103D01*
X62226022Y-15177264D01*
X61917331Y-15325922D01*
X61627222Y-15508210D01*
X61359346Y-15721833D01*
X61117072Y-15964107D01*
X60903449Y-16231983D01*
X60721161Y-16522092D01*
X60572503Y-16830783D01*
X60459342Y-17154181D01*
X60459341Y-17154183D01*
X60383100Y-17488217D01*
X60383097Y-17488231D01*
X60344739Y-17828681D01*
X33445738Y-17828681D01*
X33407378Y-17488217D01*
X33331136Y-17154183D01*
X33217975Y-16830785D01*
X33069315Y-16522090D01*
X32887028Y-16231982D01*
X32673405Y-15964107D01*
X32431132Y-15721834D01*
X32163257Y-15508211D01*
X31873149Y-15325924D01*
X31873146Y-15325922D01*
X31564455Y-15177264D01*
X31241057Y-15064103D01*
X31241055Y-15064102D01*
X30983263Y-15005262D01*
X30907022Y-14987861D01*
X30907019Y-14987860D01*
X30907007Y-14987858D01*
X30566557Y-14949500D01*
X30566551Y-14949500D01*
X30223927Y-14949500D01*
X30223920Y-14949500D01*
X29883470Y-14987858D01*
X29883456Y-14987861D01*
X29549422Y-15064102D01*
X29549420Y-15064103D01*
X29226022Y-15177264D01*
X28917331Y-15325922D01*
X28627222Y-15508210D01*
X28359346Y-15721833D01*
X28117072Y-15964107D01*
X27903449Y-16231983D01*
X27721161Y-16522092D01*
X27572503Y-16830783D01*
X27459342Y-17154181D01*
X27459341Y-17154183D01*
X27383100Y-17488217D01*
X27383097Y-17488231D01*
X27344739Y-17828681D01*
X12500500Y-17828681D01*
X12500500Y-14504066D01*
X12500765Y-14495956D01*
X12504819Y-14434108D01*
X12517075Y-14247102D01*
X12519190Y-14231048D01*
X12567045Y-13990462D01*
X12571243Y-13974797D01*
X12594337Y-13906762D01*
X12650093Y-13742512D01*
X12656291Y-13727547D01*
X12764790Y-13507533D01*
X12772893Y-13493498D01*
X12909182Y-13289527D01*
X12919039Y-13276681D01*
X13080786Y-13092244D01*
X13092244Y-13080786D01*
X13276681Y-12919039D01*
X13289527Y-12909182D01*
X13493498Y-12772893D01*
X13507533Y-12764790D01*
X13727547Y-12656291D01*
X13742512Y-12650093D01*
X13906762Y-12594337D01*
X13974797Y-12571243D01*
X13990464Y-12567045D01*
X14231048Y-12519190D01*
X14247102Y-12517075D01*
X14495957Y-12500765D01*
X14504067Y-12500500D01*
X14565892Y-12500500D01*
X100874108Y-12500500D01*
X100935933Y-12500500D01*
X100944043Y-12500765D01*
G37*
%TD.AperFunction*%
%TD*%
%TA.AperFunction,Conductor*%
%TO.N,+28V*%
G36*
X43193039Y-125019685D02*
G01*
X43238794Y-125072489D01*
X43250000Y-125124000D01*
X43250000Y-127126000D01*
X43230315Y-127193039D01*
X43177511Y-127238794D01*
X43126000Y-127250000D01*
X36624000Y-127250000D01*
X36556961Y-127230315D01*
X36511206Y-127177511D01*
X36500000Y-127126000D01*
X36500000Y-125124000D01*
X36519685Y-125056961D01*
X36572489Y-125011206D01*
X36624000Y-125000000D01*
X43126000Y-125000000D01*
X43193039Y-125019685D01*
G37*
%TD.AperFunction*%
%TD*%
%TA.AperFunction,Conductor*%
%TO.N,+28V_SW*%
G36*
X38391561Y-127769685D02*
G01*
X38437316Y-127822489D01*
X38448522Y-127874000D01*
X38448522Y-130126000D01*
X38428837Y-130193039D01*
X38376033Y-130238794D01*
X38324522Y-130250000D01*
X35376766Y-130250000D01*
X35309727Y-130230315D01*
X35263972Y-130177511D01*
X35254028Y-130108353D01*
X35255148Y-130101810D01*
X35260500Y-130074901D01*
X35260500Y-129925096D01*
X35260499Y-129925092D01*
X35231276Y-129778177D01*
X35231275Y-129778170D01*
X35173947Y-129639768D01*
X35173946Y-129639767D01*
X35173943Y-129639761D01*
X35090719Y-129515209D01*
X35090716Y-129515205D01*
X34984794Y-129409283D01*
X34984790Y-129409280D01*
X34860238Y-129326056D01*
X34860229Y-129326051D01*
X34721830Y-129268725D01*
X34721822Y-129268723D01*
X34574907Y-129239500D01*
X34574903Y-129239500D01*
X34425097Y-129239500D01*
X34425092Y-129239500D01*
X34278177Y-129268723D01*
X34278169Y-129268725D01*
X34139770Y-129326051D01*
X34139761Y-129326056D01*
X34015209Y-129409280D01*
X34015205Y-129409283D01*
X33909283Y-129515205D01*
X33909280Y-129515209D01*
X33826056Y-129639761D01*
X33826051Y-129639770D01*
X33768725Y-129778169D01*
X33768723Y-129778177D01*
X33739500Y-129925092D01*
X33739500Y-130074901D01*
X33744852Y-130101810D01*
X33738623Y-130171402D01*
X33695759Y-130226579D01*
X33629869Y-130249822D01*
X33623234Y-130250000D01*
X21822522Y-130250000D01*
X21755483Y-130230315D01*
X21709728Y-130177511D01*
X21698522Y-130126000D01*
X21698522Y-127874000D01*
X21718207Y-127806961D01*
X21771011Y-127761206D01*
X21822522Y-127750000D01*
X38324522Y-127750000D01*
X38391561Y-127769685D01*
G37*
%TD.AperFunction*%
%TD*%
M02*
