%TF.GenerationSoftware,KiCad,Pcbnew,9.0.7*%
%TF.CreationDate,2026-03-20T13:48:15-04:00*%
%TF.ProjectId,theboard.v3.7,74686562-6f61-4726-942e-76332e372e6b,3.7*%
%TF.SameCoordinates,Original*%
%TF.FileFunction,Soldermask,Bot*%
%TF.FilePolarity,Negative*%
%FSLAX46Y46*%
G04 Gerber Fmt 4.6, Leading zero omitted, Abs format (unit mm)*
G04 Created by KiCad (PCBNEW 9.0.7) date 2026-03-20 13:48:15*
%MOMM*%
%LPD*%
G01*
G04 APERTURE LIST*
G04 Aperture macros list*
%AMRoundRect*
0 Rectangle with rounded corners*
0 $1 Rounding radius*
0 $2 $3 $4 $5 $6 $7 $8 $9 X,Y pos of 4 corners*
0 Add a 4 corners polygon primitive as box body*
4,1,4,$2,$3,$4,$5,$6,$7,$8,$9,$2,$3,0*
0 Add four circle primitives for the rounded corners*
1,1,$1+$1,$2,$3*
1,1,$1+$1,$4,$5*
1,1,$1+$1,$6,$7*
1,1,$1+$1,$8,$9*
0 Add four rect primitives between the rounded corners*
20,1,$1+$1,$2,$3,$4,$5,0*
20,1,$1+$1,$4,$5,$6,$7,0*
20,1,$1+$1,$6,$7,$8,$9,0*
20,1,$1+$1,$8,$9,$2,$3,0*%
G04 Aperture macros list end*
%ADD10C,0.010000*%
%ADD11C,0.586200*%
%ADD12C,0.836200*%
%ADD13C,1.026200*%
%ADD14O,1.704000X3.204000*%
%ADD15O,1.904000X3.604000*%
%ADD16C,0.700000*%
%ADD17C,4.400000*%
%ADD18C,6.200000*%
%ADD19C,1.650000*%
%ADD20C,1.150000*%
%ADD21C,6.100000*%
%ADD22O,1.750000X1.200000*%
%ADD23RoundRect,0.250000X-0.625000X0.350000X-0.625000X-0.350000X0.625000X-0.350000X0.625000X0.350000X0*%
%ADD24C,1.700000*%
%ADD25RoundRect,0.250000X-0.600000X-0.600000X0.600000X-0.600000X0.600000X0.600000X-0.600000X0.600000X0*%
%ADD26O,1.950000X1.700000*%
%ADD27RoundRect,0.250000X-0.725000X0.600000X-0.725000X-0.600000X0.725000X-0.600000X0.725000X0.600000X0*%
%ADD28C,1.020000*%
%ADD29C,0.654000*%
G04 APERTURE END LIST*
D10*
%TO.C,J1*%
X49086200Y-126896200D02*
X47413800Y-126896200D01*
X47413800Y-125223800D01*
X49086200Y-125223800D01*
X49086200Y-126896200D01*
G36*
X49086200Y-126896200D02*
G01*
X47413800Y-126896200D01*
X47413800Y-125223800D01*
X49086200Y-125223800D01*
X49086200Y-126896200D01*
G37*
D11*
X51543100Y-130000000D02*
G75*
G02*
X50956900Y-130000000I-293100J0D01*
G01*
X50956900Y-130000000D02*
G75*
G02*
X51543100Y-130000000I293100J0D01*
G01*
D12*
X48668100Y-129060000D02*
G75*
G02*
X47831900Y-129060000I-418100J0D01*
G01*
X47831900Y-129060000D02*
G75*
G02*
X48668100Y-129060000I418100J0D01*
G01*
D11*
X45543100Y-130000000D02*
G75*
G02*
X44956900Y-130000000I-293100J0D01*
G01*
X44956900Y-130000000D02*
G75*
G02*
X45543100Y-130000000I293100J0D01*
G01*
D10*
%TO.C,J3*%
X23826200Y-124520450D02*
X21773800Y-124520450D01*
X21773800Y-122468050D01*
X23826200Y-122468050D01*
X23826200Y-124520450D01*
G36*
X23826200Y-124520450D02*
G01*
X21773800Y-124520450D01*
X21773800Y-122468050D01*
X23826200Y-122468050D01*
X23826200Y-124520450D01*
G37*
D13*
X27513100Y-128994250D02*
G75*
G02*
X26486900Y-128994250I-513100J0D01*
G01*
X26486900Y-128994250D02*
G75*
G02*
X27513100Y-128994250I513100J0D01*
G01*
X27513100Y-123494250D02*
G75*
G02*
X26486900Y-123494250I-513100J0D01*
G01*
X26486900Y-123494250D02*
G75*
G02*
X27513100Y-123494250I513100J0D01*
G01*
X23313100Y-128994250D02*
G75*
G02*
X22286900Y-128994250I-513100J0D01*
G01*
X22286900Y-128994250D02*
G75*
G02*
X23313100Y-128994250I513100J0D01*
G01*
D10*
%TO.C,J2*%
X38336200Y-126896200D02*
X36663800Y-126896200D01*
X36663800Y-125223800D01*
X38336200Y-125223800D01*
X38336200Y-126896200D01*
G36*
X38336200Y-126896200D02*
G01*
X36663800Y-126896200D01*
X36663800Y-125223800D01*
X38336200Y-125223800D01*
X38336200Y-126896200D01*
G37*
D11*
X40793100Y-130000000D02*
G75*
G02*
X40206900Y-130000000I-293100J0D01*
G01*
X40206900Y-130000000D02*
G75*
G02*
X40793100Y-130000000I293100J0D01*
G01*
D12*
X37918100Y-129060000D02*
G75*
G02*
X37081900Y-129060000I-418100J0D01*
G01*
X37081900Y-129060000D02*
G75*
G02*
X37918100Y-129060000I418100J0D01*
G01*
D11*
X34793100Y-130000000D02*
G75*
G02*
X34206900Y-130000000I-293100J0D01*
G01*
X34206900Y-130000000D02*
G75*
G02*
X34793100Y-130000000I293100J0D01*
G01*
%TD*%
D14*
%TO.C,J10*%
X71250000Y-130337500D03*
D15*
X71250000Y-124377500D03*
D14*
X56750000Y-130337500D03*
D15*
X56750000Y-124377500D03*
%TD*%
D16*
%TO.C,H1*%
X16400000Y-14750000D03*
X15916726Y-15916726D03*
X15916726Y-13583274D03*
X14750000Y-16400000D03*
D17*
X14750000Y-14750000D03*
D16*
X14750000Y-13100000D03*
X13583274Y-15916726D03*
X13583274Y-13583274D03*
X13100000Y-14750000D03*
%TD*%
D18*
%TO.C,J7*%
X84750000Y-102525000D03*
X84750000Y-82525000D03*
X84750000Y-64525000D03*
X84750000Y-52525000D03*
D19*
X94750000Y-24275000D03*
D20*
X74750000Y-24275000D03*
%TD*%
D16*
%TO.C,H2*%
X102483274Y-14666726D03*
X102000000Y-15833452D03*
X102000000Y-13500000D03*
X100833274Y-16316726D03*
D17*
X100833274Y-14666726D03*
D16*
X100833274Y-13016726D03*
X99666548Y-15833452D03*
X99666548Y-13500000D03*
X99183274Y-14666726D03*
%TD*%
D21*
%TO.C,J6*%
X63395239Y-66000000D03*
X63395239Y-18000000D03*
X30395239Y-66000000D03*
X30395239Y-18000000D03*
%TD*%
D22*
%TO.C,J11*%
X16500000Y-92000000D03*
X16500000Y-90000000D03*
X16500000Y-88000000D03*
X16500000Y-86000000D03*
X16500000Y-84000000D03*
X16500000Y-82000000D03*
X16500000Y-80000000D03*
D23*
X16500000Y-78000000D03*
%TD*%
D24*
%TO.C,J9*%
X19500000Y-48360000D03*
X16960000Y-48360000D03*
X19500000Y-45820000D03*
X16960000Y-45820000D03*
X19500000Y-43280000D03*
X16960000Y-43280000D03*
X19500000Y-40740000D03*
X16960000Y-40740000D03*
X19500000Y-38200000D03*
X16960000Y-38200000D03*
X19500000Y-35660000D03*
X16960000Y-35660000D03*
X19500000Y-33120000D03*
X16960000Y-33120000D03*
X19500000Y-30580000D03*
X16960000Y-30580000D03*
X19500000Y-28040000D03*
X16960000Y-28040000D03*
X19500000Y-25500000D03*
D25*
X16960000Y-25500000D03*
%TD*%
D26*
%TO.C,J8*%
X17250000Y-70499999D03*
X17250000Y-67999999D03*
X17250000Y-65499999D03*
X17250000Y-62999999D03*
X17250000Y-60499999D03*
D27*
X17250000Y-57999999D03*
%TD*%
D28*
%TO.C,J1*%
X45250000Y-130000000D03*
X51250000Y-130000000D03*
%TD*%
D29*
%TO.C,U1*%
X43500000Y-92950000D03*
X44350000Y-92060000D03*
X43500000Y-92060000D03*
X42650000Y-92060000D03*
X44350000Y-90900000D03*
X43500000Y-90900000D03*
X42650000Y-90900000D03*
X44350000Y-89740000D03*
X43500000Y-89740000D03*
X42650000Y-89740000D03*
X43500000Y-88850000D03*
%TD*%
D16*
%TO.C,H3*%
X16483274Y-131166726D03*
X16000000Y-132333452D03*
X16000000Y-130000000D03*
X14833274Y-132816726D03*
D17*
X14833274Y-131166726D03*
D16*
X14833274Y-129516726D03*
X13666548Y-132333452D03*
X13666548Y-130000000D03*
X13183274Y-131166726D03*
%TD*%
%TO.C,H4*%
X102233274Y-131166726D03*
X101750000Y-132333452D03*
X101750000Y-130000000D03*
X100583274Y-132816726D03*
D17*
X100583274Y-131166726D03*
D16*
X100583274Y-129516726D03*
X99416548Y-132333452D03*
X99416548Y-130000000D03*
X98933274Y-131166726D03*
%TD*%
D28*
%TO.C,J2*%
X34500000Y-130000000D03*
X40500000Y-130000000D03*
%TD*%
M02*
