%TF.GenerationSoftware,KiCad,Pcbnew,9.0.7*%
%TF.CreationDate,2026-03-20T13:48:14-04:00*%
%TF.ProjectId,theboard.v3.7,74686562-6f61-4726-942e-76332e372e6b,3.7*%
%TF.SameCoordinates,Original*%
%TF.FileFunction,Soldermask,Top*%
%TF.FilePolarity,Negative*%
%FSLAX46Y46*%
G04 Gerber Fmt 4.6, Leading zero omitted, Abs format (unit mm)*
G04 Created by KiCad (PCBNEW 9.0.7) date 2026-03-20 13:48:14*
%MOMM*%
%LPD*%
G01*
G04 APERTURE LIST*
G04 Aperture macros list*
%AMRoundRect*
0 Rectangle with rounded corners*
0 $1 Rounding radius*
0 $2 $3 $4 $5 $6 $7 $8 $9 X,Y pos of 4 corners*
0 Add a 4 corners polygon primitive as box body*
4,1,4,$2,$3,$4,$5,$6,$7,$8,$9,$2,$3,0*
0 Add four circle primitives for the rounded corners*
1,1,$1+$1,$2,$3*
1,1,$1+$1,$4,$5*
1,1,$1+$1,$6,$7*
1,1,$1+$1,$8,$9*
0 Add four rect primitives between the rounded corners*
20,1,$1+$1,$2,$3,$4,$5,0*
20,1,$1+$1,$4,$5,$6,$7,0*
20,1,$1+$1,$6,$7,$8,$9,0*
20,1,$1+$1,$8,$9,$2,$3,0*%
G04 Aperture macros list end*
%ADD10C,0.010000*%
%ADD11C,0.586200*%
%ADD12C,0.836200*%
%ADD13C,1.026200*%
%ADD14O,1.704000X3.204000*%
%ADD15O,1.904000X3.604000*%
%ADD16RoundRect,0.200000X-0.275000X0.200000X-0.275000X-0.200000X0.275000X-0.200000X0.275000X0.200000X0*%
%ADD17C,0.700000*%
%ADD18C,4.400000*%
%ADD19RoundRect,0.102000X-0.600000X-1.375000X0.600000X-1.375000X0.600000X1.375000X-0.600000X1.375000X0*%
%ADD20C,6.200000*%
%ADD21RoundRect,0.102000X-0.150000X-0.775000X0.150000X-0.775000X0.150000X0.775000X-0.150000X0.775000X0*%
%ADD22RoundRect,0.218750X-0.256250X0.218750X-0.256250X-0.218750X0.256250X-0.218750X0.256250X0.218750X0*%
%ADD23R,0.700000X0.200000*%
%ADD24C,6.100000*%
%ADD25RoundRect,0.250000X0.475000X-0.250000X0.475000X0.250000X-0.475000X0.250000X-0.475000X-0.250000X0*%
%ADD26RoundRect,0.250000X1.100000X-0.325000X1.100000X0.325000X-1.100000X0.325000X-1.100000X-0.325000X0*%
%ADD27RoundRect,0.250000X-0.325000X-0.650000X0.325000X-0.650000X0.325000X0.650000X-0.325000X0.650000X0*%
%ADD28O,1.750000X1.200000*%
%ADD29RoundRect,0.250000X-0.625000X0.350000X-0.625000X-0.350000X0.625000X-0.350000X0.625000X0.350000X0*%
%ADD30RoundRect,0.102000X1.335000X1.605000X-1.335000X1.605000X-1.335000X-1.605000X1.335000X-1.605000X0*%
%ADD31RoundRect,0.140000X-0.140000X-0.170000X0.140000X-0.170000X0.140000X0.170000X-0.140000X0.170000X0*%
%ADD32C,1.700000*%
%ADD33RoundRect,0.250000X-0.600000X-0.600000X0.600000X-0.600000X0.600000X0.600000X-0.600000X0.600000X0*%
%ADD34RoundRect,0.200000X0.275000X-0.200000X0.275000X0.200000X-0.275000X0.200000X-0.275000X-0.200000X0*%
%ADD35O,1.950000X1.700000*%
%ADD36RoundRect,0.250000X-0.725000X0.600000X-0.725000X-0.600000X0.725000X-0.600000X0.725000X0.600000X0*%
%ADD37RoundRect,0.250000X-1.000000X-0.900000X1.000000X-0.900000X1.000000X0.900000X-1.000000X0.900000X0*%
%ADD38RoundRect,0.225000X-0.250000X0.225000X-0.250000X-0.225000X0.250000X-0.225000X0.250000X0.225000X0*%
%ADD39RoundRect,0.250000X-0.250000X-0.475000X0.250000X-0.475000X0.250000X0.475000X-0.250000X0.475000X0*%
%ADD40RoundRect,0.225000X0.225000X0.250000X-0.225000X0.250000X-0.225000X-0.250000X0.225000X-0.250000X0*%
%ADD41RoundRect,0.140000X0.170000X-0.140000X0.170000X0.140000X-0.170000X0.140000X-0.170000X-0.140000X0*%
%ADD42RoundRect,0.102000X0.300000X0.600000X-0.300000X0.600000X-0.300000X-0.600000X0.300000X-0.600000X0*%
%ADD43C,0.654000*%
%ADD44RoundRect,0.102000X-1.100000X-2.300000X1.100000X-2.300000X1.100000X2.300000X-1.100000X2.300000X0*%
%ADD45RoundRect,0.056750X-0.170250X-0.345250X0.170250X-0.345250X0.170250X0.345250X-0.170250X0.345250X0*%
%ADD46RoundRect,0.056750X-0.420250X-0.170250X0.420250X-0.170250X0.420250X0.170250X-0.420250X0.170250X0*%
%ADD47RoundRect,0.140000X-0.170000X0.140000X-0.170000X-0.140000X0.170000X-0.140000X0.170000X0.140000X0*%
%ADD48RoundRect,0.200000X0.200000X0.275000X-0.200000X0.275000X-0.200000X-0.275000X0.200000X-0.275000X0*%
%ADD49R,5.100000X2.350000*%
%ADD50RoundRect,0.250000X0.625000X-0.312500X0.625000X0.312500X-0.625000X0.312500X-0.625000X-0.312500X0*%
G04 APERTURE END LIST*
D10*
%TO.C,J10*%
X68700000Y-124967500D02*
X68300000Y-124967500D01*
X68300000Y-122267500D01*
X68700000Y-122267500D01*
X68700000Y-124967500D01*
G36*
X68700000Y-124967500D02*
G01*
X68300000Y-124967500D01*
X68300000Y-122267500D01*
X68700000Y-122267500D01*
X68700000Y-124967500D01*
G37*
X68200000Y-124967500D02*
X67800000Y-124967500D01*
X67800000Y-122267500D01*
X68200000Y-122267500D01*
X68200000Y-124967500D01*
G36*
X68200000Y-124967500D02*
G01*
X67800000Y-124967500D01*
X67800000Y-122267500D01*
X68200000Y-122267500D01*
X68200000Y-124967500D01*
G37*
X67700000Y-124967500D02*
X67300000Y-124967500D01*
X67300000Y-122267500D01*
X67700000Y-122267500D01*
X67700000Y-124967500D01*
G36*
X67700000Y-124967500D02*
G01*
X67300000Y-124967500D01*
X67300000Y-122267500D01*
X67700000Y-122267500D01*
X67700000Y-124967500D01*
G37*
X67200000Y-124967500D02*
X66800000Y-124967500D01*
X66800000Y-122267500D01*
X67200000Y-122267500D01*
X67200000Y-124967500D01*
G36*
X67200000Y-124967500D02*
G01*
X66800000Y-124967500D01*
X66800000Y-122267500D01*
X67200000Y-122267500D01*
X67200000Y-124967500D01*
G37*
X66700000Y-124967500D02*
X66300000Y-124967500D01*
X66300000Y-122267500D01*
X66700000Y-122267500D01*
X66700000Y-124967500D01*
G36*
X66700000Y-124967500D02*
G01*
X66300000Y-124967500D01*
X66300000Y-122267500D01*
X66700000Y-122267500D01*
X66700000Y-124967500D01*
G37*
X66200000Y-124967500D02*
X65800000Y-124967500D01*
X65800000Y-122267500D01*
X66200000Y-122267500D01*
X66200000Y-124967500D01*
G36*
X66200000Y-124967500D02*
G01*
X65800000Y-124967500D01*
X65800000Y-122267500D01*
X66200000Y-122267500D01*
X66200000Y-124967500D01*
G37*
X65700000Y-124967500D02*
X65300000Y-124967500D01*
X65300000Y-122267500D01*
X65700000Y-122267500D01*
X65700000Y-124967500D01*
G36*
X65700000Y-124967500D02*
G01*
X65300000Y-124967500D01*
X65300000Y-122267500D01*
X65700000Y-122267500D01*
X65700000Y-124967500D01*
G37*
X65200000Y-124967500D02*
X64800000Y-124967500D01*
X64800000Y-122267500D01*
X65200000Y-122267500D01*
X65200000Y-124967500D01*
G36*
X65200000Y-124967500D02*
G01*
X64800000Y-124967500D01*
X64800000Y-122267500D01*
X65200000Y-122267500D01*
X65200000Y-124967500D01*
G37*
X64700000Y-124967500D02*
X64300000Y-124967500D01*
X64300000Y-122267500D01*
X64700000Y-122267500D01*
X64700000Y-124967500D01*
G36*
X64700000Y-124967500D02*
G01*
X64300000Y-124967500D01*
X64300000Y-122267500D01*
X64700000Y-122267500D01*
X64700000Y-124967500D01*
G37*
X64200000Y-124967500D02*
X63800000Y-124967500D01*
X63800000Y-122267500D01*
X64200000Y-122267500D01*
X64200000Y-124967500D01*
G36*
X64200000Y-124967500D02*
G01*
X63800000Y-124967500D01*
X63800000Y-122267500D01*
X64200000Y-122267500D01*
X64200000Y-124967500D01*
G37*
X63700000Y-124967500D02*
X63300000Y-124967500D01*
X63300000Y-122267500D01*
X63700000Y-122267500D01*
X63700000Y-124967500D01*
G36*
X63700000Y-124967500D02*
G01*
X63300000Y-124967500D01*
X63300000Y-122267500D01*
X63700000Y-122267500D01*
X63700000Y-124967500D01*
G37*
X63200000Y-124967500D02*
X62800000Y-124967500D01*
X62800000Y-122267500D01*
X63200000Y-122267500D01*
X63200000Y-124967500D01*
G36*
X63200000Y-124967500D02*
G01*
X62800000Y-124967500D01*
X62800000Y-122267500D01*
X63200000Y-122267500D01*
X63200000Y-124967500D01*
G37*
X62700000Y-124967500D02*
X62300000Y-124967500D01*
X62300000Y-122267500D01*
X62700000Y-122267500D01*
X62700000Y-124967500D01*
G36*
X62700000Y-124967500D02*
G01*
X62300000Y-124967500D01*
X62300000Y-122267500D01*
X62700000Y-122267500D01*
X62700000Y-124967500D01*
G37*
X62200000Y-124967500D02*
X61800000Y-124967500D01*
X61800000Y-122267500D01*
X62200000Y-122267500D01*
X62200000Y-124967500D01*
G36*
X62200000Y-124967500D02*
G01*
X61800000Y-124967500D01*
X61800000Y-122267500D01*
X62200000Y-122267500D01*
X62200000Y-124967500D01*
G37*
X61700000Y-124967500D02*
X61300000Y-124967500D01*
X61300000Y-122267500D01*
X61700000Y-122267500D01*
X61700000Y-124967500D01*
G36*
X61700000Y-124967500D02*
G01*
X61300000Y-124967500D01*
X61300000Y-122267500D01*
X61700000Y-122267500D01*
X61700000Y-124967500D01*
G37*
X61200000Y-124967500D02*
X60800000Y-124967500D01*
X60800000Y-122267500D01*
X61200000Y-122267500D01*
X61200000Y-124967500D01*
G36*
X61200000Y-124967500D02*
G01*
X60800000Y-124967500D01*
X60800000Y-122267500D01*
X61200000Y-122267500D01*
X61200000Y-124967500D01*
G37*
X60700000Y-124967500D02*
X60300000Y-124967500D01*
X60300000Y-122267500D01*
X60700000Y-122267500D01*
X60700000Y-124967500D01*
G36*
X60700000Y-124967500D02*
G01*
X60300000Y-124967500D01*
X60300000Y-122267500D01*
X60700000Y-122267500D01*
X60700000Y-124967500D01*
G37*
X60200000Y-124967500D02*
X59800000Y-124967500D01*
X59800000Y-122267500D01*
X60200000Y-122267500D01*
X60200000Y-124967500D01*
G36*
X60200000Y-124967500D02*
G01*
X59800000Y-124967500D01*
X59800000Y-122267500D01*
X60200000Y-122267500D01*
X60200000Y-124967500D01*
G37*
X59700000Y-124967500D02*
X59300000Y-124967500D01*
X59300000Y-122267500D01*
X59700000Y-122267500D01*
X59700000Y-124967500D01*
G36*
X59700000Y-124967500D02*
G01*
X59300000Y-124967500D01*
X59300000Y-122267500D01*
X59700000Y-122267500D01*
X59700000Y-124967500D01*
G37*
%TO.C,U2*%
X36100000Y-79250000D02*
X35200000Y-79250000D01*
X35200000Y-77650000D01*
X36100000Y-77650000D01*
X36100000Y-79250000D01*
G36*
X36100000Y-79250000D02*
G01*
X35200000Y-79250000D01*
X35200000Y-77650000D01*
X36100000Y-77650000D01*
X36100000Y-79250000D01*
G37*
X36100000Y-77600000D02*
X35400000Y-77600000D01*
X35400000Y-77200000D01*
X36100000Y-77200000D01*
X36100000Y-77600000D01*
G36*
X36100000Y-77600000D02*
G01*
X35400000Y-77600000D01*
X35400000Y-77200000D01*
X36100000Y-77200000D01*
X36100000Y-77600000D01*
G37*
X36100000Y-77150000D02*
X35400000Y-77150000D01*
X35400000Y-76750000D01*
X36100000Y-76750000D01*
X36100000Y-77150000D01*
G36*
X36100000Y-77150000D02*
G01*
X35400000Y-77150000D01*
X35400000Y-76750000D01*
X36100000Y-76750000D01*
X36100000Y-77150000D01*
G37*
X36100000Y-76700000D02*
X35400000Y-76700000D01*
X35400000Y-76300000D01*
X36100000Y-76300000D01*
X36100000Y-76700000D01*
G36*
X36100000Y-76700000D02*
G01*
X35400000Y-76700000D01*
X35400000Y-76300000D01*
X36100000Y-76300000D01*
X36100000Y-76700000D01*
G37*
X35150000Y-79480000D02*
X34650000Y-79480000D01*
X34650000Y-77650000D01*
X35150000Y-77650000D01*
X35150000Y-79480000D01*
G36*
X35150000Y-79480000D02*
G01*
X34650000Y-79480000D01*
X34650000Y-77650000D01*
X35150000Y-77650000D01*
X35150000Y-79480000D01*
G37*
X34600000Y-79250000D02*
X33700000Y-79250000D01*
X33700000Y-77650000D01*
X34600000Y-77650000D01*
X34600000Y-79250000D01*
G36*
X34600000Y-79250000D02*
G01*
X33700000Y-79250000D01*
X33700000Y-77650000D01*
X34600000Y-77650000D01*
X34600000Y-79250000D01*
G37*
X34400000Y-77600000D02*
X33700000Y-77600000D01*
X33700000Y-77200000D01*
X34400000Y-77200000D01*
X34400000Y-77600000D01*
G36*
X34400000Y-77600000D02*
G01*
X33700000Y-77600000D01*
X33700000Y-77200000D01*
X34400000Y-77200000D01*
X34400000Y-77600000D01*
G37*
X34400000Y-77150000D02*
X33700000Y-77150000D01*
X33700000Y-76750000D01*
X34400000Y-76750000D01*
X34400000Y-77150000D01*
G36*
X34400000Y-77150000D02*
G01*
X33700000Y-77150000D01*
X33700000Y-76750000D01*
X34400000Y-76750000D01*
X34400000Y-77150000D01*
G37*
X34400000Y-76700000D02*
X33700000Y-76700000D01*
X33700000Y-76300000D01*
X34400000Y-76300000D01*
X34400000Y-76700000D01*
G36*
X34400000Y-76700000D02*
G01*
X33700000Y-76700000D01*
X33700000Y-76300000D01*
X34400000Y-76300000D01*
X34400000Y-76700000D01*
G37*
%TO.C,J1*%
X49086200Y-126896200D02*
X47413800Y-126896200D01*
X47413800Y-125223800D01*
X49086200Y-125223800D01*
X49086200Y-126896200D01*
G36*
X49086200Y-126896200D02*
G01*
X47413800Y-126896200D01*
X47413800Y-125223800D01*
X49086200Y-125223800D01*
X49086200Y-126896200D01*
G37*
D11*
X51543100Y-130000000D02*
G75*
G02*
X50956900Y-130000000I-293100J0D01*
G01*
X50956900Y-130000000D02*
G75*
G02*
X51543100Y-130000000I293100J0D01*
G01*
D12*
X48668100Y-129060000D02*
G75*
G02*
X47831900Y-129060000I-418100J0D01*
G01*
X47831900Y-129060000D02*
G75*
G02*
X48668100Y-129060000I418100J0D01*
G01*
D11*
X45543100Y-130000000D02*
G75*
G02*
X44956900Y-130000000I-293100J0D01*
G01*
X44956900Y-130000000D02*
G75*
G02*
X45543100Y-130000000I293100J0D01*
G01*
D10*
%TO.C,J3*%
X23826200Y-124520450D02*
X21773800Y-124520450D01*
X21773800Y-122468050D01*
X23826200Y-122468050D01*
X23826200Y-124520450D01*
G36*
X23826200Y-124520450D02*
G01*
X21773800Y-124520450D01*
X21773800Y-122468050D01*
X23826200Y-122468050D01*
X23826200Y-124520450D01*
G37*
D13*
X27513100Y-128994250D02*
G75*
G02*
X26486900Y-128994250I-513100J0D01*
G01*
X26486900Y-128994250D02*
G75*
G02*
X27513100Y-128994250I513100J0D01*
G01*
X27513100Y-123494250D02*
G75*
G02*
X26486900Y-123494250I-513100J0D01*
G01*
X26486900Y-123494250D02*
G75*
G02*
X27513100Y-123494250I513100J0D01*
G01*
X23313100Y-128994250D02*
G75*
G02*
X22286900Y-128994250I-513100J0D01*
G01*
X22286900Y-128994250D02*
G75*
G02*
X23313100Y-128994250I513100J0D01*
G01*
D10*
%TO.C,J2*%
X38336200Y-126896200D02*
X36663800Y-126896200D01*
X36663800Y-125223800D01*
X38336200Y-125223800D01*
X38336200Y-126896200D01*
G36*
X38336200Y-126896200D02*
G01*
X36663800Y-126896200D01*
X36663800Y-125223800D01*
X38336200Y-125223800D01*
X38336200Y-126896200D01*
G37*
D11*
X40793100Y-130000000D02*
G75*
G02*
X40206900Y-130000000I-293100J0D01*
G01*
X40206900Y-130000000D02*
G75*
G02*
X40793100Y-130000000I293100J0D01*
G01*
D12*
X37918100Y-129060000D02*
G75*
G02*
X37081900Y-129060000I-418100J0D01*
G01*
X37081900Y-129060000D02*
G75*
G02*
X37918100Y-129060000I418100J0D01*
G01*
D11*
X34793100Y-130000000D02*
G75*
G02*
X34206900Y-130000000I-293100J0D01*
G01*
X34206900Y-130000000D02*
G75*
G02*
X34793100Y-130000000I293100J0D01*
G01*
%TD*%
D14*
%TO.C,J10*%
X71250000Y-130337500D03*
D15*
X71250000Y-124377500D03*
D14*
X56750000Y-130337500D03*
D15*
X56750000Y-124377500D03*
%TD*%
D16*
%TO.C,R11A1*%
X23500000Y-100500000D03*
X23500000Y-102150000D03*
%TD*%
D17*
%TO.C,H1*%
X16400000Y-14750000D03*
X15916726Y-15916726D03*
X15916726Y-13583274D03*
X14750000Y-16400000D03*
D18*
X14750000Y-14750000D03*
D17*
X14750000Y-13100000D03*
X13583274Y-15916726D03*
X13583274Y-13583274D03*
X13100000Y-14750000D03*
%TD*%
D19*
%TO.C,J7*%
X95100000Y-19775000D03*
X74400000Y-19775000D03*
D20*
X84750000Y-102525000D03*
X84750000Y-82525000D03*
X84750000Y-64525000D03*
X84750000Y-52525000D03*
D21*
X94000000Y-19000000D03*
X93750000Y-26550000D03*
X93500000Y-19000000D03*
X93250000Y-26550000D03*
X93000000Y-19000000D03*
X92750000Y-26550000D03*
X92500000Y-19000000D03*
X92250000Y-26550000D03*
X92000000Y-19000000D03*
X89750000Y-26550000D03*
X89500000Y-19000000D03*
X89250000Y-26550000D03*
X89000000Y-19000000D03*
X88750000Y-26550000D03*
X88500000Y-19000000D03*
X88250000Y-26550000D03*
X88000000Y-19000000D03*
X87750000Y-26550000D03*
X87500000Y-19000000D03*
X87250000Y-26550000D03*
X87000000Y-19000000D03*
X86750000Y-26550000D03*
X86500000Y-19000000D03*
X86250000Y-26550000D03*
X86000000Y-19000000D03*
X85750000Y-26550000D03*
X85500000Y-19000000D03*
X85250000Y-26550000D03*
X85000000Y-19000000D03*
X84750000Y-26550000D03*
X84500000Y-19000000D03*
X84250000Y-26550000D03*
X84000000Y-19000000D03*
X83750000Y-26550000D03*
X83500000Y-19000000D03*
X83250000Y-26550000D03*
X83000000Y-19000000D03*
X82750000Y-26550000D03*
X82500000Y-19000000D03*
X82250000Y-26550000D03*
X82000000Y-19000000D03*
X81750000Y-26550000D03*
X81500000Y-19000000D03*
X81250000Y-26550000D03*
X81000000Y-19000000D03*
X80750000Y-26550000D03*
X80500000Y-19000000D03*
X80250000Y-26550000D03*
X80000000Y-19000000D03*
X79750000Y-26550000D03*
X79500000Y-19000000D03*
X79250000Y-26550000D03*
X79000000Y-19000000D03*
X78750000Y-26550000D03*
X78500000Y-19000000D03*
X78250000Y-26550000D03*
X78000000Y-19000000D03*
X77750000Y-26550000D03*
X77500000Y-19000000D03*
X77250000Y-26550000D03*
X77000000Y-19000000D03*
X76750000Y-26550000D03*
X76500000Y-19000000D03*
X76250000Y-26550000D03*
X76000000Y-19000000D03*
X75750000Y-26550000D03*
X75500000Y-19000000D03*
%TD*%
D17*
%TO.C,H2*%
X102483274Y-14666726D03*
X102000000Y-15833452D03*
X102000000Y-13500000D03*
X100833274Y-16316726D03*
D18*
X100833274Y-14666726D03*
D17*
X100833274Y-13016726D03*
X99666548Y-15833452D03*
X99666548Y-13500000D03*
X99183274Y-14666726D03*
%TD*%
D22*
%TO.C,D4*%
X14500000Y-98825000D03*
X14500000Y-97250000D03*
%TD*%
D23*
%TO.C,J6*%
X65435239Y-54300000D03*
X62355239Y-54300000D03*
X65435239Y-53900000D03*
X62355239Y-53900000D03*
X65435239Y-53500000D03*
X62355239Y-53500000D03*
X65435239Y-53100000D03*
X62355239Y-53100000D03*
X65435239Y-52700000D03*
X62355239Y-52700000D03*
X65435239Y-52300000D03*
X62355239Y-52300000D03*
X65435239Y-51900000D03*
X62355239Y-51900000D03*
X65435239Y-51500000D03*
X62355239Y-51500000D03*
X65435239Y-51100000D03*
X62355239Y-51100000D03*
X65435239Y-50700000D03*
X62355239Y-50700000D03*
X65435239Y-50300000D03*
X62355239Y-50300000D03*
X65435239Y-49900000D03*
X62355239Y-49900000D03*
X65435239Y-49500000D03*
X62355239Y-49500000D03*
X65435239Y-49100000D03*
X62355239Y-49100000D03*
X65435239Y-48700000D03*
X62355239Y-48700000D03*
X65435239Y-48300000D03*
X62355239Y-48300000D03*
X65435239Y-47900000D03*
X62355239Y-47900000D03*
X65435239Y-47500000D03*
X62355239Y-47500000D03*
X65435239Y-47100000D03*
X62355239Y-47100000D03*
X65435239Y-46700000D03*
X62355239Y-46700000D03*
X65435239Y-46300000D03*
X62355239Y-46300000D03*
X65435239Y-45900000D03*
X62355239Y-45900000D03*
X65435239Y-45500000D03*
X62355239Y-45500000D03*
X65435239Y-45100000D03*
X62355239Y-45100000D03*
X65435239Y-44700000D03*
X62355239Y-44700000D03*
X65435239Y-44300000D03*
X62355239Y-44300000D03*
X65435239Y-43900000D03*
X62355239Y-43900000D03*
X65435239Y-43500000D03*
X62355239Y-43500000D03*
X65435239Y-43100000D03*
X62355239Y-43100000D03*
X65435239Y-42700000D03*
X62355239Y-42700000D03*
X65435239Y-42300000D03*
X62355239Y-42300000D03*
X65435239Y-41900000D03*
X62355239Y-41900000D03*
X65435239Y-41500000D03*
X62355239Y-41500000D03*
X65435239Y-41100000D03*
X62355239Y-41100000D03*
X65435239Y-40700000D03*
X62355239Y-40700000D03*
X65435239Y-40300000D03*
X62355239Y-40300000D03*
X65435239Y-39900000D03*
X62355239Y-39900000D03*
X65435239Y-39500000D03*
X62355239Y-39500000D03*
X65435239Y-39100000D03*
X62355239Y-39100000D03*
X65435239Y-38700000D03*
X62355239Y-38700000D03*
X65435239Y-38300000D03*
X62355239Y-38300000D03*
X65435239Y-37900000D03*
X62355239Y-37900000D03*
X65435239Y-37500000D03*
X62355239Y-37500000D03*
X65435239Y-37100000D03*
X62355239Y-37100000D03*
X65435239Y-36700000D03*
X62355239Y-36700000D03*
X65435239Y-36300000D03*
X62355239Y-36300000D03*
X65435239Y-35900000D03*
X62355239Y-35900000D03*
X65435239Y-35500000D03*
X62355239Y-35500000D03*
X65435239Y-35100000D03*
X62355239Y-35100000D03*
X65435239Y-34700000D03*
X62355239Y-34700000D03*
D24*
X63395239Y-66000000D03*
X63395239Y-18000000D03*
X30395239Y-66000000D03*
X30395239Y-18000000D03*
%TD*%
D22*
%TO.C,D2*%
X14500000Y-105787500D03*
X14500000Y-104212500D03*
%TD*%
D25*
%TO.C,C19*%
X35250000Y-80750000D03*
X35250000Y-82650000D03*
%TD*%
D26*
%TO.C,C10*%
X51000000Y-82050000D03*
X51000000Y-85000000D03*
%TD*%
D27*
%TO.C,C15*%
X35200000Y-103000000D03*
X32250000Y-103000000D03*
%TD*%
%TO.C,C2*%
X35200000Y-95000000D03*
X32250000Y-95000000D03*
%TD*%
%TO.C,C13*%
X35200000Y-97750000D03*
X32250000Y-97750000D03*
%TD*%
%TO.C,C14*%
X35200000Y-100500000D03*
X32250000Y-100500000D03*
%TD*%
D28*
%TO.C,J11*%
X16500000Y-92000000D03*
X16500000Y-90000000D03*
X16500000Y-88000000D03*
X16500000Y-86000000D03*
X16500000Y-84000000D03*
X16500000Y-82000000D03*
X16500000Y-80000000D03*
D29*
X16500000Y-78000000D03*
%TD*%
D30*
%TO.C,3.3V Inductor L2*%
X33110000Y-90000000D03*
X38750000Y-90000000D03*
%TD*%
D31*
%TO.C,C5*%
X35000000Y-75250000D03*
X34040000Y-75250000D03*
%TD*%
D26*
%TO.C,C1*%
X39750000Y-102000000D03*
X39750000Y-104950000D03*
%TD*%
D32*
%TO.C,J9*%
X19500000Y-48360000D03*
X16960000Y-48360000D03*
X19500000Y-45820000D03*
X16960000Y-45820000D03*
X19500000Y-43280000D03*
X16960000Y-43280000D03*
X19500000Y-40740000D03*
X16960000Y-40740000D03*
X19500000Y-38200000D03*
X16960000Y-38200000D03*
X19500000Y-35660000D03*
X16960000Y-35660000D03*
X19500000Y-33120000D03*
X16960000Y-33120000D03*
X19500000Y-30580000D03*
X16960000Y-30580000D03*
X19500000Y-28040000D03*
X16960000Y-28040000D03*
X19500000Y-25500000D03*
D33*
X16960000Y-25500000D03*
%TD*%
D25*
%TO.C,C3*%
X48250000Y-88050000D03*
X48250000Y-89950000D03*
%TD*%
D34*
%TO.C,R_GS1*%
X40500000Y-109045000D03*
X40500000Y-110695000D03*
%TD*%
D35*
%TO.C,J8*%
X17250000Y-70499999D03*
X17250000Y-67999999D03*
X17250000Y-65499999D03*
X17250000Y-62999999D03*
X17250000Y-60499999D03*
D36*
X17250000Y-57999999D03*
%TD*%
D25*
%TO.C,C11*%
X53750000Y-88000000D03*
X53750000Y-89900000D03*
%TD*%
%TO.C,C9*%
X93250000Y-28750000D03*
X93250000Y-30650000D03*
%TD*%
D23*
%TO.C,J5*%
X31435239Y-54300000D03*
X28355239Y-54300000D03*
X31435239Y-53900000D03*
X28355239Y-53900000D03*
X31435239Y-53500000D03*
X28355239Y-53500000D03*
X31435239Y-53100000D03*
X28355239Y-53100000D03*
X31435239Y-52700000D03*
X28355239Y-52700000D03*
X31435239Y-52300000D03*
X28355239Y-52300000D03*
X31435239Y-51900000D03*
X28355239Y-51900000D03*
X31435239Y-51500000D03*
X28355239Y-51500000D03*
X31435239Y-51100000D03*
X28355239Y-51100000D03*
X31435239Y-50700000D03*
X28355239Y-50700000D03*
X31435239Y-50300000D03*
X28355239Y-50300000D03*
X31435239Y-49900000D03*
X28355239Y-49900000D03*
X31435239Y-49500000D03*
X28355239Y-49500000D03*
X31435239Y-49100000D03*
X28355239Y-49100000D03*
X31435239Y-48700000D03*
X28355239Y-48700000D03*
X31435239Y-48300000D03*
X28355239Y-48300000D03*
X31435239Y-47900000D03*
X28355239Y-47900000D03*
X31435239Y-47500000D03*
X28355239Y-47500000D03*
X31435239Y-47100000D03*
X28355239Y-47100000D03*
X31435239Y-46700000D03*
X28355239Y-46700000D03*
X31435239Y-46300000D03*
X28355239Y-46300000D03*
X31435239Y-45900000D03*
X28355239Y-45900000D03*
X31435239Y-45500000D03*
X28355239Y-45500000D03*
X31435239Y-45100000D03*
X28355239Y-45100000D03*
X31435239Y-44700000D03*
X28355239Y-44700000D03*
X31435239Y-44300000D03*
X28355239Y-44300000D03*
X31435239Y-43900000D03*
X28355239Y-43900000D03*
X31435239Y-43500000D03*
X28355239Y-43500000D03*
X31435239Y-43100000D03*
X28355239Y-43100000D03*
X31435239Y-42700000D03*
X28355239Y-42700000D03*
X31435239Y-42300000D03*
X28355239Y-42300000D03*
X31435239Y-41900000D03*
X28355239Y-41900000D03*
X31435239Y-41500000D03*
X28355239Y-41500000D03*
X31435239Y-41100000D03*
X28355239Y-41100000D03*
X31435239Y-40700000D03*
X28355239Y-40700000D03*
X31435239Y-40300000D03*
X28355239Y-40300000D03*
X31435239Y-39900000D03*
X28355239Y-39900000D03*
X31435239Y-39500000D03*
X28355239Y-39500000D03*
X31435239Y-39100000D03*
X28355239Y-39100000D03*
X31435239Y-38700000D03*
X28355239Y-38700000D03*
X31435239Y-38300000D03*
X28355239Y-38300000D03*
X31435239Y-37900000D03*
X28355239Y-37900000D03*
X31435239Y-37500000D03*
X28355239Y-37500000D03*
X31435239Y-37100000D03*
X28355239Y-37100000D03*
X31435239Y-36700000D03*
X28355239Y-36700000D03*
X31435239Y-36300000D03*
X28355239Y-36300000D03*
X31435239Y-35900000D03*
X28355239Y-35900000D03*
X31435239Y-35500000D03*
X28355239Y-35500000D03*
X31435239Y-35100000D03*
X28355239Y-35100000D03*
X31435239Y-34700000D03*
X28355239Y-34700000D03*
%TD*%
D37*
%TO.C,D5*%
X37517259Y-115778407D03*
X33217259Y-115778407D03*
%TD*%
D16*
%TO.C,R4*%
X45500000Y-75900000D03*
X45500000Y-74250000D03*
%TD*%
%TO.C,R5*%
X45500000Y-79650000D03*
X45500000Y-78000000D03*
%TD*%
D38*
%TO.C,C12*%
X46250000Y-101150000D03*
X46250000Y-99600000D03*
%TD*%
D22*
%TO.C,D3*%
X14500000Y-109037500D03*
X14500000Y-107462500D03*
%TD*%
D39*
%TO.C,C6*%
X50700000Y-73250000D03*
X48800000Y-73250000D03*
%TD*%
D22*
%TO.C,D1*%
X14500000Y-102250000D03*
X14500000Y-100675000D03*
%TD*%
D40*
%TO.C,C16*%
X38725000Y-95750000D03*
X40275000Y-95750000D03*
%TD*%
D41*
%TO.C,C7*%
X91500000Y-29000000D03*
X91500000Y-29960000D03*
%TD*%
D42*
%TO.C,Q1*%
X44250000Y-117500000D03*
X42980000Y-117500000D03*
X41710000Y-117500000D03*
X40440000Y-117500000D03*
X40440000Y-112445000D03*
X41710000Y-112445000D03*
X42980000Y-112445000D03*
X44250000Y-112445000D03*
%TD*%
D43*
%TO.C,U1*%
X43500000Y-92950000D03*
X44350000Y-92060000D03*
X43500000Y-92060000D03*
X42650000Y-92060000D03*
X44350000Y-90900000D03*
X43500000Y-90900000D03*
X42650000Y-90900000D03*
X44350000Y-89740000D03*
X43500000Y-89740000D03*
X42650000Y-89740000D03*
X43500000Y-88850000D03*
D44*
X43500000Y-90900000D03*
D45*
X42750000Y-88000000D03*
X43250000Y-88000000D03*
X43750000Y-88000000D03*
X44250000Y-88000000D03*
D46*
X45325000Y-88400000D03*
X45325000Y-88900000D03*
X45325000Y-89400000D03*
X45325000Y-89900000D03*
X45325000Y-90400000D03*
X45325000Y-90900000D03*
X45325000Y-91400000D03*
X45325000Y-91900000D03*
X45325000Y-92400000D03*
X45325000Y-92900000D03*
X45325000Y-93400000D03*
D45*
X44250000Y-93800000D03*
X43750000Y-93800000D03*
X43250000Y-93800000D03*
X42750000Y-93800000D03*
D46*
X41675000Y-93400000D03*
X41675000Y-92900000D03*
X41675000Y-92400000D03*
X41675000Y-91900000D03*
X41675000Y-91400000D03*
X41675000Y-90900000D03*
X41675000Y-90400000D03*
X41675000Y-89900000D03*
X41675000Y-89400000D03*
X41675000Y-88900000D03*
X41675000Y-88400000D03*
%TD*%
D47*
%TO.C,C20*%
X45500000Y-72210000D03*
X45500000Y-71250000D03*
%TD*%
D41*
%TO.C,C8*%
X90000000Y-29000000D03*
X90000000Y-29960000D03*
%TD*%
D34*
%TO.C,R1*%
X43000000Y-96330000D03*
X43000000Y-97980000D03*
%TD*%
D31*
%TO.C,C4*%
X42480000Y-86500000D03*
X41520000Y-86500000D03*
%TD*%
D48*
%TO.C,R3*%
X38675000Y-99500000D03*
X40325000Y-99500000D03*
%TD*%
D49*
%TO.C,L1*%
X40000000Y-72175000D03*
X40000000Y-76325000D03*
%TD*%
D17*
%TO.C,H3*%
X16483274Y-131166726D03*
X16000000Y-132333452D03*
X16000000Y-130000000D03*
X14833274Y-132816726D03*
D18*
X14833274Y-131166726D03*
D17*
X14833274Y-129516726D03*
X13666548Y-132333452D03*
X13666548Y-130000000D03*
X13183274Y-131166726D03*
%TD*%
%TO.C,H4*%
X102233274Y-131166726D03*
X101750000Y-132333452D03*
X101750000Y-130000000D03*
X100583274Y-132816726D03*
D18*
X100583274Y-131166726D03*
D17*
X100583274Y-129516726D03*
X99416548Y-132333452D03*
X99416548Y-130000000D03*
X98933274Y-131166726D03*
%TD*%
D26*
%TO.C,C17*%
X51000000Y-86925000D03*
X51000000Y-89875000D03*
%TD*%
D16*
%TO.C,R2*%
X43000000Y-101200000D03*
X43000000Y-99550000D03*
%TD*%
D40*
%TO.C,C18*%
X40275000Y-97500000D03*
X38725000Y-97500000D03*
%TD*%
D50*
%TO.C,SW on R1*%
X23500000Y-91250000D03*
X23500000Y-94175000D03*
%TD*%
D34*
%TO.C,R12A1*%
X23500000Y-105175000D03*
X23500000Y-106825000D03*
%TD*%
%TO.C,R12B1*%
X23750000Y-82075000D03*
X23750000Y-83725000D03*
%TD*%
%TO.C,R11A2*%
X23500000Y-96425000D03*
X23500000Y-98075000D03*
%TD*%
%TO.C,R13A1*%
X23500000Y-109575000D03*
X23500000Y-111225000D03*
%TD*%
%TO.C,R11B1*%
X23750000Y-78000000D03*
X23750000Y-79650000D03*
%TD*%
%TO.C,R13B1*%
X23750000Y-87975000D03*
X23750000Y-86325000D03*
%TD*%
M02*
